<svg xmlns="http://www.w3.org/2000/svg" viewBox="0 0 100 100">
  <rect width="100" height="100" rx="20" fill="#3b82f6"/>
  <path d="M30 70 Q25 60 30 50 Q35 40 45 35 Q55 30 65 35 Q75 40 80 50 Q85 60 80 70 Q75 80 65 85 Q55 90 45 85 Q35 80 30 70" fill="#93c5fd"/>
  <circle cx="40" cy="55" r="5" fill="#1e3a8a"/>
  <circle cx="60" cy="55" r="5" fill="#1e3a8a"/>
  <path d="M45 65 Q50 70 55 65" stroke="#1e3a8a" stroke-width="3" fill="none"/>
  <path d="M25 45 Q20 35 25 25 Q30 15 40 10" stroke="#93c5fd" stroke-width="4" fill="none"/>
  <path d="M75 45 Q80 35 75 25 Q70 15 60 10" stroke="#93c5fd" stroke-width="4" fill="none"/>
</svg>
