<?xml version="1.0" encoding="UTF-8"?>
<!-- Generator: https://ezgif.com/png-to-svg -->
<svg version="1.1" xmlns="http://www.w3.org/2000/svg" width="1329" height="800">
<path d="M0,0 L32,0 L56,3 L75,8 L92,15 L107,24 L120,36 L127,45 L134,55 L147,64 L163,70 L173,72 L203,73 L199,78 L188,85 L174,92 L156,98 L143,101 L123,103 L102,103 L86,101 L73,97 L62,90 L41,69 L27,59 L12,52 L-3,47 L-16,44 L-30,43 L-42,45 L-52,50 L-59,58 L-64,68 L-66,75 L-65,83 L-61,91 L-53,99 L-38,109 L-20,117 L1,123 L23,126 L52,126 L78,123 L109,118 L119,117 L151,117 L171,120 L188,125 L212,136 L232,148 L244,156 L264,170 L282,183 L300,196 L330,216 L345,225 L342,226 L311,215 L278,201 L258,192 L223,176 L196,165 L175,158 L164,156 L137,154 L-7,154 L-32,151 L-57,145 L-119,127 L-138,123 L-145,122 L-173,122 L-191,126 L-207,133 L-219,140 L-230,149 L-238,156 L-249,170 L-260,186 L-271,199 L-278,206 L-288,213 L-298,218 L-305,220 L-323,220 L-319,218 L-309,213 L-305,207 L-305,200 L-308,195 L-313,193 L-322,194 L-330,198 L-343,210 L-356,223 L-363,231 L-371,239 L-378,247 L-392,261 L-403,270 L-420,283 L-439,295 L-457,305 L-473,313 L-496,324 L-524,334 L-532,336 L-535,357 L-536,364 L-536,373 L-531,378 L-522,384 L-507,389 L-496,391 L-474,392 L-449,390 L-424,385 L-401,377 L-376,365 L-349,352 L-327,344 L-310,340 L-306,341 L-337,356 L-358,369 L-375,381 L-393,393 L-412,403 L-427,408 L-446,412 L-461,414 L-483,415 L-506,413 L-523,409 L-539,403 L-553,395 L-563,387 L-573,378 L-585,364 L-595,351 L-598,346 L-599,337 L-595,331 L-585,325 L-561,316 L-530,305 L-498,292 L-470,279 L-444,265 L-426,253 L-413,243 L-400,231 L-390,222 L-378,209 L-366,195 L-355,182 L-346,171 L-335,159 L-326,149 L-305,128 L-292,118 L-277,108 L-254,95 L-228,82 L-198,69 L-163,56 L-135,48 L-100,41 L-85,36 L-75,30 L-65,21 L-57,14 L-49,9 L-33,4 L-13,1 Z " fill="#FFFFFF" transform="translate(599,0)"/>
<path d="M0,0 L13,0 L47,4 L77,9 L108,16 L139,25 L169,36 L192,46 L217,58 L242,72 L265,87 L282,99 L295,109 L306,118 L320,130 L332,141 L347,155 L354,163 L362,171 L369,179 L380,192 L393,209 L405,225 L422,251 L439,280 L454,309 L465,334 L476,363 L481,379 L480,382 L463,354 L451,335 L435,311 L423,294 L409,275 L400,264 L387,248 L374,233 L362,220 L334,192 L326,185 L313,174 L293,159 L272,145 L257,136 L236,125 L211,115 L188,108 L168,104 L139,101 L102,101 L81,103 L51,108 L27,114 L-3,124 L-22,131 L-38,135 L-52,137 L-80,138 L-114,138 L-134,140 L-156,145 L-187,156 L-224,171 L-258,184 L-294,196 L-324,203 L-338,205 L-365,205 L-380,201 L-386,197 L-386,196 L-358,195 L-338,192 L-312,185 L-284,174 L-251,158 L-205,135 L-179,124 L-155,116 L-148,115 L-159,101 L-167,87 L-173,74 L-172,71 L-153,83 L-131,93 L-111,99 L-94,102 L-80,103 L-68,103 L-48,101 L-29,97 L-9,90 L8,81 L19,72 L26,62 L29,53 L29,38 L24,25 L17,16 L12,11 L3,3 Z " fill="#FFFFFF" transform="translate(544,241)"/>
<path d="M0,0 L43,0 L88,3 L132,8 L185,17 L225,26 L261,36 L297,48 L322,57 L352,70 L380,84 L397,94 L409,102 L410,104 L383,119 L371,126 L384,137 L396,148 L411,163 L420,174 L431,187 L444,205 L458,227 L473,253 L487,281 L499,309 L510,338 L522,374 L532,412 L540,449 L546,488 L549,517 L550,532 L550,594 L549,605 L548,605 L543,559 L537,523 L529,486 L520,454 L508,418 L497,390 L482,357 L469,332 L456,310 L434,277 L420,258 L408,244 L399,233 L392,226 L385,218 L370,203 L362,196 L352,187 L338,176 L325,166 L305,152 L283,139 L264,129 L264,127 L281,116 L295,107 L296,105 L292,103 L275,92 L256,81 L233,69 L208,58 L169,43 L132,31 L88,19 L48,10 L6,2 L0,1 Z " fill="#FFFFFF" transform="translate(589,194)"/>
<path d="M0,0 L37,0 L79,3 L115,7 L155,13 L195,51 L241,32 L282,44 L318,56 L349,67 L381,80 L411,93 L446,110 L475,125 L499,139 L510,146 L507,147 L474,134 L440,122 L398,109 L354,97 L315,88 L284,82 L257,78 L233,76 L224,76 L211,78 L205,81 L203,84 L204,92 L210,99 L231,112 L249,123 L263,133 L279,146 L294,160 L306,173 L317,187 L327,201 L340,222 L349,239 L354,251 L353,253 L341,239 L329,226 L316,213 L305,204 L296,196 L280,184 L259,170 L239,158 L217,146 L201,138 L166,121 L143,110 L129,102 L113,89 L100,76 L95,71 L84,60 L76,53 L65,43 L51,32 L37,22 L17,10 L0,1 Z " fill="#FFFFFF" transform="translate(814,91)"/>
<path d="M0,0 L2,1 Z " fill="#FFFFFF" transform="translate(1324,238)"/>
<path d="M0,0 Z " fill="#FFFFFF" transform="translate(1168,344)"/>
<path d="M0,0 Z " fill="#FFFFFF" transform="translate(370,311)"/>
<path d="M0,0 Z " fill="#FFFFFF" transform="translate(543,240)"/>
<path d="M0,0 Z " fill="#FFFFFF" transform="translate(1326,239)"/>
<path d="M0,0 Z " fill="#FFFFFF" transform="translate(802,72)"/>
</svg>
