<?xml version="1.0" encoding="UTF-8"?>
<svg xmlns="http://www.w3.org/2000/svg" viewBox="0 0 787 786">
<rect width="787" height="786" rx="120" fill="#FFFFFF"/>
<path d="M0 0 C1.26 0.01 1.26 0.01 2.55 0.01 C56.91 0.34 114.02 14.63 161.94 40.38 C162.62 40.74 163.3 41.1 164 41.48 C189.73 55.38 189.73 55.38 196.75 69.62 C200.14 76.21 204.04 81.8 208.94 87.38 C209.57 88.14 210.21 88.91 210.87 89.7 C228.42 110.42 255.15 122.45 279.34 133.5 C311.65 148.27 343.46 164.08 373.94 182.38 C374.83 182.91 375.72 183.44 376.64 183.99 C379.14 185.49 381.63 186.99 384.12 188.5 C384.85 188.94 385.57 189.37 386.32 189.82 C390.06 192.12 393.67 194.42 396.94 197.38 C396.94 198.03 396.94 198.69 396.94 199.38 C395.84 199.47 394.74 199.57 393.61 199.67 C382.46 200.76 372.87 203.01 362.94 208.38 C349.77 197.12 349.77 197.12 345.94 191.38 C346.49 205.14 350.13 218.4 359.99 228.47 C361.92 230.19 363.89 231.8 365.94 233.38 C366.93 234.18 367.92 234.98 368.94 235.81 C369.6 236.33 370.26 236.84 370.94 237.38 C357.35 249.61 335.76 253.77 317.94 254.38 C316.85 254.43 315.76 254.48 314.63 254.53 C274.02 255.54 235.58 241.57 198.23 227.22 C197.58 226.97 196.93 226.72 196.25 226.47 C194.49 225.79 192.73 225.11 190.97 224.43 C185.63 222.57 180.63 222.17 175 222.12 C174.31 222.1 173.62 222.08 172.91 222.06 C168.18 222.03 164.88 222.73 160.94 225.38 C159.96 228.97 159.96 228.97 159.94 232.38 C163.4 235.55 166.94 236.19 171.44 236.88 C172.15 236.99 172.86 237.11 173.59 237.23 C177.53 237.86 181.46 238.45 185.41 238.94 C197.84 240.51 209.51 243.57 221.48 247.24 C226.75 248.86 232.03 250.42 237.32 251.98 C238.34 252.28 239.37 252.58 240.42 252.9 C270.66 261.8 299.56 264.96 330.94 264.38 C329.94 267.38 329.94 267.38 327.16 268.91 C310.33 276.05 295.16 276.49 277.25 273.82 C276.1 273.65 274.94 273.48 273.75 273.3 C257.02 270.71 240.46 267.23 223.88 263.88 C161.69 251.29 96.33 240.25 39.92 277.61 C34.27 281.45 29.12 285.67 24.14 290.33 C22.27 292.07 20.36 293.66 18.38 295.25 C-0.97 311.79 -17.81 342.55 -23.06 367.38 C-22.19 365.83 -22.19 365.83 -21.3 364.25 C0.1 326.88 28.04 296.7 67.94 279.38 C69.21 278.81 69.21 278.81 70.52 278.24 C74.13 276.76 76.22 276.21 79.94 277.38 C79.07 277.97 78.19 278.56 77.3 279.18 C55.8 294.05 38.8 312.64 27.82 336.47 C27.01 338.22 26.17 339.96 25.32 341.69 C17.65 358.2 13.98 376.28 12.94 394.38 C12.88 395.28 12.82 396.18 12.76 397.11 C12.68 399.56 12.77 401.93 12.94 404.38 C12.98 405.02 13.02 405.66 13.06 406.32 C15.49 441.4 30.48 477.08 53.94 503.38 C53.61 502.8 53.28 502.23 52.94 501.64 C29.18 459.21 17.85 410.65 30.89 362.87 C39.21 333.99 56.17 302.04 82.94 286.38 C82.36 290.28 80.51 292.28 77.94 295.19 C58.38 318.57 46.93 350.96 46.73 381.36 C46.72 382.47 46.72 382.47 46.71 383.6 C46.45 406.16 46.45 406.16 49.94 428.38 C50.23 429.59 50.23 429.59 50.52 430.84 C55.1 449.6 62.21 467.3 72.94 483.38 C72.52 482.3 72.52 482.3 72.1 481.2 C66.58 466.79 61.14 452.5 57.94 437.38 C57.78 436.62 57.62 435.87 57.45 435.1 C54.73 421.86 54.58 408.85 54.94 395.38 C56.87 398.27 57.43 399.9 58.16 403.21 C58.5 404.67 58.5 404.67 58.84 406.16 C59.2 407.72 59.2 407.72 59.56 409.31 C67.78 443.51 85.53 470.85 108.4 497.05 C122.91 513.71 134.18 530.59 138.94 552.38 C142.38 530.2 136.34 510.4 123.31 492.51 C122.53 491.48 121.75 490.44 120.94 489.38 C120.15 488.33 119.37 487.28 118.56 486.21 C115.11 481.64 111.58 477.15 107.95 472.71 C87.76 447.99 71.56 417.74 71.88 384.94 C71.88 383.7 71.89 382.47 71.9 381.19 C71.91 380.26 71.93 379.33 71.94 378.38 C73.49 380.71 74.5 382.53 75.53 385.08 C81.89 400.32 90.2 412.83 100.94 425.38 C101.47 426.03 102 426.68 102.55 427.36 C112.81 439.86 127.01 449.37 140.98 457.27 C142.28 458 143.57 458.74 144.86 459.5 C163.8 470.53 184.87 476.73 205.94 482.38 C202.85 485.46 199.11 485.12 194.94 485.38 C194.1 485.43 193.27 485.48 192.41 485.54 C175.04 486.09 158.27 481.82 141.94 476.38 C142.46 477.23 142.98 478.09 143.51 478.98 C156.3 500.5 162.18 524.56 156.94 549.38 C154.75 557.97 151.96 566.46 147.94 574.38 C147.28 574.71 146.62 575.03 145.94 575.38 C145.79 574.24 145.65 573.11 145.5 571.94 C145.33 568.57 145.33 568.57 143.94 567.38 C143.57 568.39 143.21 569.41 142.84 570.45 C136.19 588.77 127.38 603.13 113.94 617.38 C113.03 618.34 113.03 618.34 112.11 619.33 C110.77 620.72 109.36 622.06 107.94 623.38 C107.28 623.38 106.62 623.38 105.94 623.38 C107.28 619.76 108.95 616.41 110.76 613.01 C121.16 593.25 124.31 571.06 117.69 549.54 C114.41 540.07 109.93 531.39 103.94 523.38 C104.22 524.28 104.22 524.28 104.51 525.2 C111.51 547.68 111.51 547.68 111.94 558.38 C111.98 559.34 112.02 560.31 112.06 561.31 C112.35 575.4 110.33 590.6 103.94 603.38 C103.28 603.38 102.62 603.38 101.94 603.38 C101.41 601.67 101.41 601.67 100.87 599.93 C92.01 571.92 74.88 550.89 52.73 531.95 C47.56 527.42 42.98 522.39 38.52 517.17 C37.05 515.5 35.53 513.93 33.94 512.38 C39.95 523.3 47.05 532.65 55.08 542.16 C64.13 552.96 72.53 563.78 78.94 576.38 C79.49 577.43 80.04 578.48 80.61 579.57 C86.27 590.99 90.2 604.48 90 617.31 C89.99 618.08 89.98 618.86 89.97 619.65 C89.96 620.51 89.96 620.51 89.94 621.38 C84.58 623.16 79.38 619.77 74.31 617.75 C73.69 617.5 73.07 617.26 72.43 617 C46.77 606.79 20.89 593.33 -0.47 575.69 C-2.25 574.22 -4.06 572.79 -5.87 571.36 C-15.38 563.82 -24.33 555.8 -33.06 547.38 C-34.28 546.2 -34.28 546.2 -35.53 545 C-62.25 518.74 -82.35 486.06 -96.06 451.38 C-92.9 471.32 -86 490.33 -77.06 508.38 C-76.63 509.27 -76.2 510.16 -75.75 511.08 C-65.58 531.95 -53.05 551.62 -38.06 569.38 C-37.52 570.01 -36.99 570.65 -36.43 571.31 C-29.32 579.74 -29.32 579.74 -21.68 587.69 C-19.06 590.38 -19.06 590.38 -19.06 592.38 C-25.12 591.73 -30.65 590.12 -36.44 588.25 C-37.41 587.94 -38.39 587.62 -39.39 587.3 C-48.16 584.42 -56.64 581.13 -65.06 577.38 C-65.91 577 -66.76 576.63 -67.64 576.25 C-89.5 566.67 -109.78 553.83 -127.38 537.62 C-129.75 535.44 -132.12 533.33 -134.65 531.33 C-138.27 528.4 -141.08 524.93 -144.06 521.38 C-144.75 520.57 -145.45 519.77 -146.16 518.94 C-171.14 489.34 -185.25 451.38 -185.25 412.65 C-185.25 410.51 -185.27 408.38 -185.29 406.24 C-185.34 394.4 -185.29 385.51 -176.64 376.73 C-166.95 367.88 -144.5 349.38 -131.06 349.38 C-131.65 354.28 -132.33 359.17 -133.06 364.06 C-139.3 408.29 -132.34 452.21 -113.06 492.38 C-112.73 493.06 -112.41 493.75 -112.07 494.46 C-103.89 511.4 -92.96 526.86 -81.06 541.38 C-83.75 535.92 -86.44 530.48 -89.37 525.16 C-119.08 470.92 -128.05 407.96 -111.17 348.26 C-108.6 339.51 -105.1 335.4 -97.38 330.56 C-96.42 329.96 -95.47 329.35 -94.49 328.73 C-92.06 327.38 -92.06 327.38 -90.06 327.38 C-90.21 328.49 -90.35 329.6 -90.5 330.75 C-91.11 335.64 -91.63 340.53 -92.12 345.44 C-92.22 346.3 -92.31 347.16 -92.4 348.04 C-93.47 356.8 -93.47 356.8 -92.06 365.38 C-91.79 364.41 -91.53 363.44 -91.25 362.44 C-84.37 338.52 -70.92 319.38 -52.12 303.16 C-27.16 281.49 -6.92 257.81 1.94 225.38 C2.59 223.37 3.26 221.37 3.94 219.38 C7.28 220.89 9.93 222.86 12.81 225.12 C20.77 231 29.56 234.34 38.94 237.38 C38.94 238.03 38.94 238.69 38.94 239.38 C37.85 239.92 36.76 240.47 35.64 241.03 C18.36 249.83 -6.91 265.55 -15.06 284.38 C-14.41 283.78 -13.75 283.19 -13.07 282.57 C20.32 253.48 64.11 241.95 106.94 235.38 C106.33 235.34 105.71 235.3 105.08 235.25 C77.55 233.4 42.7 230.78 21.58 210.32 C14.96 202.47 10.36 194.32 10.7 183.87 C12.16 168.57 20.04 153.12 30.94 142.38 C34.48 139.5 38.12 136.87 41.94 134.38 C27.23 137.79 16.46 146.02 6.94 157.38 C4.26 154.7 4.29 152.73 3.68 149 C3.47 147.71 3.25 146.41 3.03 145.07 C2.87 144.05 2.87 144.05 2.71 143.01 C2.38 140.98 2.04 138.94 1.71 136.91 C-2.85 109.23 -2.38 79.49 14.23 55.51 C17.01 51.7 19.93 48.01 22.94 44.38 C18.47 46.47 14.82 49.37 10.94 52.38 C9.48 53.43 9.48 53.43 8 54.5 C-5.77 66.33 -13.97 85.73 -16.06 103.38 C-17.02 118.04 -15.59 132.43 -13.57 146.93 C-7.95 187.52 -11.98 224.83 -36.81 258.5 C-46.04 270.66 -56.84 280.32 -69.06 289.38 C-69.71 289.86 -70.35 290.34 -71.02 290.84 C-99.85 312.38 -99.85 312.38 -108.06 312.38 C-106.48 308.15 -103.3 305.7 -100 302.81 C-94.03 297.44 -88.92 291.78 -84.06 285.38 C-83.64 284.83 -83.21 284.29 -82.77 283.72 C-51.45 243.55 -37.84 191.27 -38.04 140.87 C-38.04 140.05 -38.04 139.22 -38.04 138.38 C-38.05 136.38 -38.06 134.38 -38.06 132.38 C-38.28 133.33 -38.5 134.28 -38.73 135.27 C-48.18 175.9 -61.97 216.06 -91 247.16 C-92.84 249.14 -94.58 251.17 -96.31 253.25 C-104.01 262.02 -112.96 269.47 -122.19 276.56 C-122.92 277.13 -123.66 277.69 -124.41 278.27 C-129.67 282.24 -129.67 282.24 -133.06 283.38 C-131.57 279.3 -129.59 275.73 -127.38 272 C-118.57 256.83 -111.5 240.88 -109.06 223.38 C-109.56 224.28 -110.06 225.19 -110.57 226.12 C-131.51 263.88 -166.98 284.11 -202.61 305.94 C-211.01 311.09 -219.3 316.29 -227.06 322.38 C-227.61 322.8 -228.15 323.22 -228.71 323.66 C-238.86 331.69 -246.88 340.6 -254.06 351.38 C-254.72 351.38 -255.38 351.38 -256.06 351.38 C-249.91 330.38 -235 310.87 -221.06 294.38 C-220.19 293.31 -219.31 292.23 -218.44 291.16 C-203.31 272.83 -184.71 258.08 -165.87 243.75 C-155.46 235.81 -145.11 227.78 -135.06 219.38 C-134.28 218.73 -134.28 218.73 -133.47 218.07 C-113.39 201.64 -97.63 182.06 -85.06 159.38 C-84.6 158.54 -84.14 157.71 -83.66 156.86 C-73.59 138.6 -65.09 119.67 -60.06 99.38 C-60.61 100.32 -60.61 100.32 -61.17 101.29 C-66.3 109.77 -72.49 116.99 -79.06 124.38 C-79.84 125.26 -80.61 126.15 -81.41 127.07 C-90.56 137.42 -100.21 146.82 -111.06 155.38 C-112.19 156.3 -113.32 157.22 -114.45 158.14 C-131.23 171.82 -149.06 183.82 -167.12 195.71 C-175.65 201.34 -183.96 207.13 -192.06 213.38 C-193.3 214.3 -194.53 215.22 -195.77 216.13 C-215.27 231 -229.39 249 -242.73 269.36 C-245.42 273.43 -248.23 277.41 -251.06 281.38 C-252.06 279.38 -252.06 279.38 -251.19 276.75 C-250.72 275.64 -250.25 274.53 -249.77 273.38 C-249.52 272.77 -249.26 272.16 -249 271.54 C-248.16 269.52 -247.3 267.51 -246.44 265.5 C-246.14 264.81 -245.85 264.12 -245.55 263.41 C-230.33 227.55 -213.88 191.59 -187.17 162.67 C-185.3 160.63 -183.52 158.55 -181.75 156.44 C-168.16 141 -150.8 129.5 -133.06 119.38 C-153.38 126.42 -170.61 136.39 -187.06 150.38 C-188.13 151.24 -188.13 151.24 -189.21 152.11 C-194.98 156.89 -199.46 162.5 -204.06 168.38 C-204.87 169.37 -205.67 170.36 -206.5 171.38 C-211.97 178.21 -216.56 185.27 -220.84 192.9 C-223.87 198.28 -223.87 198.28 -226.06 199.38 C-220.71 169.2 -197.67 137.03 -178.06 114.38 C-177.39 113.58 -176.71 112.79 -176.01 111.97 C-174.38 110.08 -172.73 108.23 -171.06 106.38 C-170.38 105.59 -169.7 104.8 -169 104 C-153.76 86.64 -134.77 73.45 -114.06 63.38 C-133.04 69.81 -149.45 78.82 -165.06 91.38 C-166.73 92.71 -168.39 94.04 -170.06 95.38 C-170.66 95.87 -171.26 96.37 -171.88 96.88 C-173.87 98.24 -175.73 99.16 -177.92 100.16 C-182.31 102.31 -185.17 105.11 -188.38 108.75 C-189.21 109.67 -189.21 109.67 -190.06 110.61 C-194.21 115.25 -198.04 120.11 -201.83 125.05 C-206.93 131.64 -212.62 137.66 -218.41 143.66 C-219.92 145.22 -221.41 146.8 -222.91 148.38 C-238.11 164.1 -256.07 175.7 -276.06 184.38 C-257.4 182.4 -239.85 174.9 -224.58 164.14 C-222.13 162.43 -219.64 160.88 -217.06 159.38 C-217.67 163.47 -219.03 166.44 -221 170.06 C-240.5 207.72 -249.98 251.31 -258.96 292.48 C-264.78 319.14 -273.54 343.42 -290.06 365.38 C-290.77 366.32 -291.47 367.27 -292.2 368.25 C-309.4 390.27 -331.53 407.33 -358.06 416.38 C-356.71 412.33 -354.74 411.62 -351.19 409.31 C-343.55 404.23 -336.99 398.31 -330.5 391.81 C-329.04 390.35 -327.55 388.91 -326.03 387.52 C-303.52 366.52 -290.18 334.44 -282.06 305.38 C-282.72 306.03 -283.38 306.68 -284.05 307.36 C-298.91 321.61 -318.41 334.84 -338.06 341.38 C-339.05 341.05 -340.04 340.71 -341.06 340.38 C-339.72 339.23 -339.72 339.23 -338.35 338.07 C-331.88 332.54 -325.46 326.98 -319.17 321.26 C-317.44 319.71 -315.69 318.25 -313.88 316.81 C-310.96 314.28 -308.54 311.59 -306.07 308.63 C-304.35 306.7 -302.58 304.92 -300.73 303.11 C-297.06 299.46 -293.87 295.56 -290.75 291.44 C-289.91 290.33 -289.91 290.33 -289.05 289.2 C-283.57 281.87 -278.63 274.3 -274.06 266.38 C-273.66 265.68 -273.26 264.98 -272.84 264.26 C-263.35 247.59 -255.91 229.63 -250.06 211.38 C-262.15 225.38 -271.01 241.92 -277.06 259.38 C-277.72 259.38 -278.38 259.38 -279.06 259.38 C-276.87 236.07 -270.55 216.28 -258.06 196.38 C-259.16 196.65 -260.26 196.93 -261.39 197.21 C-269.61 199.24 -277.57 201.07 -286.06 201.38 C-286.93 201.43 -287.8 201.48 -288.7 201.53 C-318.61 202.53 -345.75 190.19 -369.06 172.38 C-369.85 171.83 -370.63 171.28 -371.44 170.71 C-371.98 170.27 -372.51 169.83 -373.06 169.38 C-373.06 168.72 -373.06 168.06 -373.06 167.38 C-371.93 167.77 -370.79 168.16 -369.62 168.56 C-364.88 170.14 -360.1 171.58 -355.31 173 C-354.58 173.22 -353.85 173.44 -353.09 173.66 C-352.39 173.87 -351.68 174.08 -350.95 174.29 C-350.32 174.47 -349.7 174.66 -349.05 174.85 C-322.75 181.8 -294.55 173.96 -271.48 161.04 C-251.91 149.55 -233.27 133.74 -220.65 114.77 C-214.49 105.74 -214.49 105.74 -210.45 104.71 C-207.79 104.95 -205.59 105.5 -203.06 106.38 C-201.69 106.73 -200.31 107.08 -198.94 107.44 C-197.99 107.75 -197.04 108.06 -196.06 108.38 C-195.83 107.85 -195.59 107.33 -195.35 106.79 C-190.16 97.05 -182.65 88.29 -175.06 80.38 C-173.72 78.92 -173.72 78.92 -172.36 77.45 C-149.46 53.08 -117.34 43.6 -85.06 39.38 C-83.86 39.21 -83.86 39.21 -82.63 39.05 C-72.92 37.97 -63.13 38.27 -53.38 38.31 C-51.5 38.32 -49.62 38.32 -47.74 38.33 C-43.18 38.34 -38.62 38.35 -34.06 38.38 C-36.56 37.57 -39.06 36.77 -41.57 35.98 C-42.26 35.76 -42.96 35.53 -43.68 35.3 C-59.39 30.33 -75.71 29.47 -92.06 28.38 C-88.71 24.89 -85.21 22.46 -81 20.12 C-80.3 19.74 -79.61 19.35 -78.89 18.95 C-54.11 5.48 -28.09 -0.28 0 0 Z M135.94 54.38 C139.73 58.29 143.76 61.82 147.95 65.31 C150.11 67.56 150.98 69.43 151.94 72.38 C150.28 72.65 150.28 72.65 148.58 72.93 C130.88 76.08 113.96 81.68 96.94 87.38 C96.94 87.7 96.94 88.03 96.94 88.38 C98.28 88.41 98.28 88.41 99.65 88.45 C112.21 89.04 119.99 92.44 130.37 99.38 C139.9 105.1 150.34 106.41 161.18 107.71 C172.15 109.19 181.3 113.32 190.98 118.55 C191.62 118.83 192.27 119.1 192.94 119.38 C193.6 119.05 194.26 118.72 194.94 118.38 C194.37 117.82 193.8 117.26 193.21 116.69 C168.67 92.43 168.67 92.43 167.94 81.38 C168.56 79.2 169.31 77.26 170.31 75.23 C171.13 72.8 170.97 71.73 169.94 69.38 C163.69 63.52 155.84 60.35 147.94 57.38 C147.15 57.05 146.35 56.73 145.54 56.4 C142.08 55.02 139.72 54.38 135.94 54.38 Z M87.94 108.38 C92.33 113.63 96.95 118.54 101.81 123.38 C102.82 124.38 102.82 124.38 103.84 125.41 C107.17 128.74 110.55 131.94 114.13 135 C117.48 137.88 120.22 140.9 122.94 144.38 C122.12 144.8 122.12 144.8 121.29 145.23 C118.79 146.52 116.3 147.82 113.81 149.12 C112.96 149.57 112.1 150.01 111.22 150.47 C106.6 152.88 102.2 155.38 97.94 158.38 C101.62 159.6 103.03 159 106.73 157.93 C107.91 157.6 109.09 157.27 110.3 156.92 C111.56 156.56 112.82 156.19 114.12 155.81 C116.75 155.07 119.37 154.33 121.99 153.59 C122.65 153.4 123.32 153.22 124 153.02 C130.55 151.18 137.14 149.51 143.75 147.88 C144.78 147.62 145.81 147.37 146.87 147.1 C149.23 146.52 151.58 145.95 153.94 145.38 C153.94 144.72 153.94 144.06 153.94 143.38 C153.24 143.02 152.54 142.66 151.82 142.3 C134.11 133.23 116.69 123.77 99.47 113.79 C98.81 113.4 98.15 113.02 97.47 112.63 C95.77 111.65 94.08 110.66 92.39 109.67 C90.1 108.22 90.1 108.22 87.94 108.38 Z M-60.06 329.38 C-79 366.41 -87.01 402.89 -79.06 444.38 C-76.49 443.09 -76.27 442.02 -75.12 439.41 C-74.59 438.21 -74.59 438.21 -74.04 436.99 C-73.68 436.15 -73.31 435.3 -72.94 434.44 C-72.38 433.18 -72.38 433.18 -71.81 431.9 C-69.81 427.78 -69.81 427.78 -69.06 423.38 C-68.4 423.38 -67.74 423.38 -67.06 423.38 C-66.95 424.42 -66.95 424.42 -66.84 425.48 C-60.62 473.58 -32.49 518.26 3.94 549.38 C4.86 550.2 5.79 551.02 6.74 551.87 C22.3 565.6 39.95 577 58.12 586.94 C58.77 587.3 59.42 587.66 60.09 588.03 C61.67 588.87 63.3 589.63 64.94 590.38 C65.6 590.05 66.26 589.71 66.94 589.38 C66.03 588.61 65.13 587.85 64.19 587.07 C54.4 578.79 45.16 570.25 36.94 560.38 C36.29 559.6 36.29 559.6 35.63 558.81 C13.51 532.13 -2.47 502.35 -10.06 468.38 C-10.39 468.38 -10.72 468.38 -11.06 468.38 C-11.97 473.02 -12.21 477.51 -12.2 482.22 C-12.2 483.32 -12.2 483.32 -12.2 484.45 C-12.2 485.99 -12.2 487.54 -12.19 489.08 C-12.19 491.43 -12.19 493.79 -12.2 496.14 C-12.2 497.65 -12.2 499.15 -12.2 500.66 C-12.2 501.71 -12.2 501.71 -12.2 502.78 C-12.18 506.44 -11.93 509.82 -11.06 513.38 C-11.72 513.38 -12.38 513.38 -13.06 513.38 C-13.33 512.65 -13.59 511.92 -13.86 511.16 C-15.08 508.34 -16.49 506.2 -18.31 503.74 C-33.03 483.13 -41.21 459.22 -45.06 434.38 C-45.17 433.71 -45.27 433.05 -45.38 432.37 C-46.4 424.67 -46.31 416.88 -46.31 409.12 C-46.31 408.37 -46.31 407.62 -46.32 406.84 C-46.3 389.82 -44.36 373.83 -39.73 357.43 C-38.78 354.35 -38.78 354.35 -40.06 351.38 C-45.05 356.14 -49.46 361.13 -53.62 366.62 C-54.19 367.37 -54.75 368.11 -55.33 368.87 C-62.65 377.85 -62.65 377.85 -66.06 388.38 C-66.72 388.38 -67.38 388.38 -68.06 388.38 C-67 370.02 -65.7 351.61 -59.48 334.15 C-58.85 332.15 -58.85 332.15 -60.06 329.38 Z M-25.06 369.38 C-24.06 371.38 -24.06 371.38 -24.06 371.38 Z M-168.76 397.4 C-172.93 402.8 -172.35 408.25 -171.94 414.81 C-171.89 416.15 -171.84 417.5 -171.8 418.84 C-171.4 429.16 -170.36 439.3 -168.06 449.38 C-167.91 450.1 -167.75 450.82 -167.59 451.57 C-163.95 468.09 -156.76 483.54 -147.06 497.38 C-145.77 493.5 -146.65 492.45 -148.25 488.75 C-151.43 480.8 -153.38 472.76 -155.06 464.38 C-155.29 463.26 -155.52 462.14 -155.75 460.99 C-157.67 449.87 -157.25 438.62 -157.06 427.38 C-155.8 428.33 -155.8 428.33 -154.51 429.31 C-153.4 430.14 -152.29 430.98 -151.19 431.81 C-150.63 432.23 -150.08 432.65 -149.5 433.09 C-146.41 435.43 -146.41 435.43 -143.06 437.38 C-143.18 436.77 -143.3 436.16 -143.43 435.54 C-146.85 417.91 -147.56 401.28 -147.06 383.38 C-154.26 383.38 -163.74 392.75 -168.76 397.4 Z M-98.06 446.38 C-97.06 449.38 -97.06 449.38 -97.06 449.38 Z M73.94 484.38 C74.94 486.38 74.94 486.38 74.94 486.38 Z M74.94 486.38 C75.94 488.38 75.94 488.38 75.94 488.38 Z M-146.06 497.38 C-145.06 499.38 -145.06 499.38 -145.06 499.38 Z M54.94 504.38 C55.27 505.37 55.6 506.36 55.94 507.38 C55.94 506.38 55.94 505.39 55.94 504.38 C55.61 504.38 55.28 504.38 54.94 504.38 Z M101.94 520.38 C102.94 522.38 102.94 522.38 102.94 522.38 Z " fill="#2B2520" transform="translate(382.0625,89.625)"/>
<path d="M0 0 C-8.5 22.49 -31.55 39.76 -50.15 53.61 C-54.18 56.64 -58.08 59.82 -62 63 C-62.82 63.65 -63.64 64.29 -64.48 64.96 C-120.63 109.72 -155.48 172.12 -164.31 243.25 C-164.4 243.95 -164.49 244.65 -164.58 245.37 C-165.64 253.93 -166.25 262.36 -166 271 C-165.82 270.14 -165.65 269.28 -165.47 268.4 C-160.96 246.52 -156.25 225.03 -146 205 C-145.55 204.1 -145.11 203.19 -144.64 202.26 C-138.09 189.57 -129.37 178.72 -119.47 168.52 C-118.08 167.08 -116.72 165.62 -115.36 164.16 C-102.99 151.22 -88.12 142.04 -72.96 132.7 C-67.49 129.32 -62.1 125.83 -56.75 122.25 C-56.02 121.76 -55.29 121.27 -54.53 120.77 C-51.29 118.59 -48.09 116.39 -45 114 C-44.34 114.33 -43.68 114.66 -43 115 C-49.81 122.97 -56.8 129.9 -64.96 136.47 C-68.9 139.75 -72.64 143.2 -76.37 146.7 C-79.22 149.37 -82.11 151.95 -85.12 154.44 C-105.9 172.54 -117.55 198.05 -121 225 C-122.4 250.61 -119.94 275.86 -108 299 C-108.02 298.21 -108.03 297.42 -108.05 296.61 C-108.39 276.59 -108.57 256.61 -100 238 C-99.01 237.67 -98.02 237.34 -97 237 C-97.02 238.23 -97.03 239.46 -97.05 240.72 C-97.1 245.38 -97.14 250.04 -97.16 254.7 C-97.18 256.7 -97.2 258.7 -97.23 260.69 C-97.45 277.85 -96.8 295.12 -90.94 311.44 C-90.64 312.29 -90.34 313.14 -90.04 314.02 C-84.37 329.79 -76.93 344.5 -67 358 C-66.58 358.57 -66.16 359.14 -65.73 359.73 C-52.03 378.36 -35.68 395.34 -17 409 C-16.2 409.59 -15.39 410.18 -14.56 410.79 C-13.7 411.42 -12.83 412.06 -11.94 412.71 C-11.07 413.35 -10.2 413.99 -9.31 414.65 C-7.59 415.91 -5.86 417.16 -4.13 418.41 C-2.96 419.26 -2.96 419.26 -1.76 420.13 C-0.71 420.89 -0.71 420.89 0.36 421.66 C2 423 2 423 3 425 C-2.51 423.42 -7.27 420.88 -12.25 418.12 C-13.13 417.64 -14 417.16 -14.9 416.66 C-28.7 408.91 -41.73 399.98 -54 390 C-54.53 389.57 -55.07 389.14 -55.62 388.69 C-70.41 376.66 -84.47 363.24 -95.69 347.79 C-97.08 345.9 -98.49 344.03 -99.91 342.16 C-122.18 312.31 -132.16 279.59 -136 243 C-157.89 281.08 -164.29 323.87 -168 367 C-168.66 367 -169.32 367 -170 367 C-175.86 338.46 -180.23 310.17 -180.25 280.94 C-180.25 280.21 -180.25 279.47 -180.25 278.72 C-180.16 215.06 -155.98 163.78 -124 110 C-123.48 109.12 -122.96 108.24 -122.43 107.34 C-119.53 102.44 -116.53 97.68 -113.19 93.06 C-112.55 92.17 -112.55 92.17 -111.89 91.26 C-96.99 70.79 -79.43 54.37 -59.31 39.12 C-58.71 38.67 -58.12 38.21 -57.5 37.74 C-51.19 33 -44.6 28.68 -38.02 24.34 C-34.71 22.15 -31.41 19.95 -28.11 17.75 C-26.81 16.89 -25.51 16.02 -24.21 15.16 C-23.25 14.52 -23.25 14.52 -22.27 13.87 C-20.95 12.98 -19.62 12.1 -18.3 11.22 C-16.34 9.92 -14.38 8.62 -12.43 7.32 C-11.84 6.93 -11.25 6.54 -10.64 6.13 C-8.28 4.56 -5.96 2.97 -3.72 1.23 C-2 0 -2 0 0 0 Z " fill="#2B2520" transform="translate(264,270)"/>
<path d="M0 0 C0.33 0 0.66 0 1 0 C1.09 0.66 1.19 1.32 1.29 1.99 C9.25 56.31 34.6 103.2 77 139 C77.85 139.72 78.69 140.45 79.57 141.19 C120.61 175.54 173.38 200.27 226 210 C224.55 209.06 224.55 209.06 223.07 208.09 C216.2 203.59 209.43 199.08 203.15 193.76 C201.09 191.98 201.09 191.98 198.94 190.77 C195.27 188.41 193.91 186.22 192.91 182.02 C191.72 176.06 190.79 170.09 191 164 C195.01 166.23 198.38 168.93 201.81 171.94 C214.42 182.77 227.86 192.28 242 201 C242.84 201.52 243.68 202.03 244.54 202.57 C263.93 214.45 283.91 224.5 305 233 C305 233.66 305 234.32 305 235 C294.1 235.16 283.36 234.78 272.5 233.81 C271.75 233.75 271.01 233.68 270.24 233.61 C220.15 229.17 171.62 217.28 126.87 193.97 C125.01 193.01 123.14 192.06 121.28 191.11 C99.52 179.94 77.21 165.13 60.34 147.31 C59.01 145.88 59.01 145.88 57 145 C57 144.34 57 143.68 57 143 C56.41 142.74 55.81 142.48 55.2 142.22 C52.81 140.89 51.55 139.6 49.81 137.5 C47.2 134.4 44.52 131.4 41.75 128.44 C15.63 99.31 -2.34 60.58 -2.12 21.06 C-2.12 20.19 -2.12 19.32 -2.12 18.41 C-2 2 -2 2 0 0 Z " fill="#2B2520" transform="translate(177,497)"/>
<path d="M0 0 C1.15 0.01 2.3 0.01 3.48 0.02 C8.34 0.06 12.87 0.17 17.62 1.25 C17.62 1.91 17.62 2.57 17.62 3.25 C16.46 3.42 15.3 3.59 14.11 3.77 C-4.53 6.61 -20.8 11.49 -34.38 25.25 C-35.02 25.89 -35.67 26.53 -36.34 27.18 C-48.55 40.03 -51.97 57.51 -51.64 74.64 C-50.74 95.72 -41.08 112.56 -25.87 126.55 C-12.71 137.75 2.98 142.52 20.06 142.31 C21.16 142.31 21.16 142.31 22.28 142.3 C24.06 142.29 25.84 142.27 27.62 142.25 C19.34 151.19 7.82 153.48 -3.88 154.21 C-20.43 154.4 -34.37 148.04 -47.38 138.25 C-47.38 137.59 -47.38 136.93 -47.38 136.25 C-44.4 136.25 -41.44 136.25 -38.38 136.25 C-40.79 133.81 -43.21 131.4 -45.73 129.07 C-61.49 114.21 -69.99 94.82 -70.73 73.19 C-70.93 54.33 -65.34 36.15 -52.38 22.25 C-51.53 21.34 -50.68 20.44 -49.81 19.5 C-49.01 18.76 -48.2 18.01 -47.38 17.25 C-46.45 16.32 -45.52 15.39 -44.56 14.44 C-40.91 11.35 -36.86 9.22 -32.62 7.06 C-31.98 6.73 -31.34 6.4 -30.68 6.05 C-20.61 1.1 -11.15 -0.2 0 0 Z " fill="#2B2520" transform="translate(523.375,356.75)"/>
<path d="M0 0 C1.45 4.35 -0.59 7.1 -2.5 11 C-2.87 11.77 -3.24 12.54 -3.63 13.33 C-21.42 49.54 -52.46 74.73 -85.52 96.37 C-99.59 105.62 -112.63 115.53 -125 127 C-126 127.9 -126 127.9 -127.02 128.82 C-147.99 148.55 -160.57 177.2 -165.32 205.18 C-165.55 206.11 -165.77 207.04 -166 208 C-166.66 208.33 -167.32 208.66 -168 209 C-169.26 175.6 -159.33 141.54 -136.44 116.62 C-134.64 114.73 -132.82 112.87 -131 111 C-130.28 110.22 -129.57 109.45 -128.83 108.64 C-115.63 94.66 -97.99 85.03 -81.68 75.18 C-65.14 65.16 -48.68 54.98 -34.71 41.48 C-33 40 -33 40 -31 40 C-31 39.34 -31 38.68 -31 38 C-30.34 38 -29.68 38 -29 38 C-28.74 37.41 -28.48 36.82 -28.22 36.21 C-26.9 33.82 -25.51 32.41 -23.5 30.56 C-15.25 22.51 -8.76 12.89 -2.5 3.27 C-1 1 -1 1 0 0 Z " fill="#2B2520" transform="translate(317,321)"/>
<path d="M0 0 C0.33 0 0.66 0 1 0 C1.85 6.57 2.13 12.95 2.06 19.56 C2.06 20.48 2.05 21.39 2.05 22.33 C2.04 24.55 2.02 26.78 2 29 C1.67 29 1.34 29 1 29 C0.94 28.02 0.88 27.05 0.82 26.04 C0.73 24.77 0.65 23.5 0.56 22.19 C0.48 20.92 0.4 19.66 0.32 18.36 C0.13 15.01 0.13 15.01 -1 12 C-1.09 10.13 -1.13 8.25 -1.12 6.38 C-1.13 5.39 -1.13 4.41 -1.13 3.4 C-1 1 -1 1 0 0 Z " fill="#2B2520" transform="translate(344,207)"/>
<path d="M0 0 C-1.88 3.88 -1.88 3.88 -3 5 C-2.71 7.01 -2.38 9.01 -2 11 C-2.99 11.5 -2.99 11.5 -4 12 C-5.14 7.73 -6 4.44 -6 0 C-2.25 -1.12 -2.25 -1.12 0 0 Z " fill="#2B2520" transform="translate(286,522)"/>
</svg>
