<?xml version="1.0" encoding="UTF-8"?>
<svg xmlns="http://www.w3.org/2000/svg" viewBox="0 0 1465 403" role="img" aria-label="Coursing Stats">
<path d="M0 0 C1.5 0.79 2.99 1.57 4.5 2.35 C6.93 3.62 9.35 4.9 11.76 6.19 C12.88 6.77 12.88 6.77 14.02 7.37 C21.67 11.54 25.85 16.98 29.7 24.76 C32 29.41 34.43 32.52 38.14 36.13 C38.14 36.79 38.14 37.45 38.14 38.13 C38.72 38.4 39.3 38.66 39.9 38.94 C42.2 40.17 43.91 41.56 45.89 43.26 C49.8 46.34 53.88 48.67 58.34 50.84 C59.04 51.18 59.73 51.53 60.45 51.88 C68.63 55.9 76.88 59.77 85.14 63.63 C115.82 78 115.82 78 129.64 86.01 C130.51 86.51 131.39 87.02 132.29 87.54 C134.91 89.06 137.53 90.59 140.14 92.13 C140.95 92.6 141.75 93.08 142.58 93.57 C144.82 94.88 147.04 96.22 149.26 97.57 C149.92 97.96 150.58 98.35 151.25 98.75 C154.99 101.06 157.35 103.08 159.14 107.13 C159.14 117.91 151.24 125.89 144.14 133.13 C143.14 134.19 143.14 134.19 142.12 135.26 C137.03 140.23 131.52 143.13 125.16 146.12 C120.84 148.18 117.12 150.44 113.33 153.38 C100.3 163.38 84.4 163.36 68.77 161.39 C61.48 160.4 54.22 159.3 46.95 158.19 C4.52 150.34 4.52 150.34 -35.24 162.94 C-43.56 169.73 -48.36 178.89 -49.8 189.51 C-50.37 199.57 -47.36 208.48 -40.86 216.13 C-31.17 226.8 -17.6 232.67 -3.86 236.13 C-2.63 236.45 -2.63 236.45 -1.37 236.78 C37.36 246.09 80.42 230.15 115.14 214.13 C116.13 213.68 117.11 213.23 118.13 212.76 C164.26 191.81 164.26 191.81 201.97 158.72 C211.79 147 227.44 141.69 242.19 140.34 C248.89 139.99 255.63 140.18 262.13 141.94 C266.41 142.21 267.88 140.59 271.14 137.88 C272.28 136.96 273.41 136.03 274.55 135.1 C275.13 134.62 275.72 134.13 276.32 133.63 C279.36 131.13 282.47 128.73 285.58 126.32 C289.83 122.99 294.01 119.6 298.14 116.13 C298.8 116.46 299.46 116.79 300.14 117.13 C299.83 117.62 299.53 118.11 299.22 118.61 C292.27 129.77 285.39 140.96 278.58 152.19 C278.22 152.78 277.86 153.38 277.49 153.98 C273.78 160.1 270.08 166.22 266.42 172.36 C265.86 173.3 265.31 174.24 264.73 175.21 C263.69 176.95 262.66 178.7 261.63 180.44 C261.18 181.2 260.73 181.96 260.26 182.74 C259.68 183.73 259.68 183.73 259.08 184.74 C258.77 185.2 258.46 185.66 258.14 186.13 C257.81 186.13 257.48 186.13 257.14 186.13 C257.47 178.54 257.8 170.95 258.14 163.13 C246.22 161.92 235.26 161.44 224.94 168.63 C215.27 176.67 209.9 187.77 208.14 200.13 C207.9 203.36 207.8 206.58 207.76 209.82 C207.75 210.6 207.74 211.39 207.72 212.19 C207.79 220.35 209.75 227.57 215.4 233.63 C221.44 238.85 228.08 240.18 235.88 240.36 C239.04 240.04 242.09 239 245.14 238.13 C246.13 233.18 247.12 228.23 248.14 223.13 C248.8 223.13 249.46 223.13 250.14 223.13 C251.45 227.17 252.75 231.2 254.04 235.25 C254.48 236.62 254.92 237.99 255.37 239.36 C256.01 241.34 256.64 243.32 257.27 245.3 C257.65 246.49 258.03 247.68 258.43 248.9 C259.14 252.13 259.07 254 258.14 257.13 C255.95 257.78 253.76 258.43 251.58 259.07 C250.36 259.43 249.14 259.79 247.88 260.16 C233.48 263.9 217.67 263.24 204.26 256.44 C194.82 250.77 189 243.49 185.14 233.13 C184.74 230.81 184.39 228.47 184.14 226.13 C173.22 228.85 162.88 232.72 152.51 237.07 C151.88 237.33 151.25 237.6 150.6 237.87 C147.54 239.16 144.47 240.45 141.41 241.75 C137.29 243.49 133.16 245.2 129.01 246.88 C127.37 247.55 127.37 247.55 125.69 248.24 C123.14 249.13 123.14 249.13 120.14 249.13 C120.47 249.46 120.8 249.79 121.14 250.13 C122.91 250.04 124.68 249.88 126.45 249.69 C149.56 247.8 171.22 249.36 192.14 260.13 C188.36 261.39 186.44 260.68 182.58 259.76 C159 254.13 134.64 257.8 110.9 260.32 C66.15 265.05 66.15 265.05 49.14 264.13 C48.31 264.09 47.49 264.05 46.64 264 C8.62 261.81 -25.06 251.84 -51.86 224.13 C-49.3 236.89 -37.53 248.68 -27.33 255.88 C12.33 282.03 56.28 282.68 101.71 273.67 C112.99 271.33 124.21 268.75 135.33 265.7 C138.14 265.13 138.14 265.13 141.14 266.13 C92.14 285.57 43.38 300.9 -7.97 279.28 C-26.59 271.1 -43.18 258.94 -54.86 242.13 C-50.3 251.81 -45.61 260.75 -38.86 269.13 C-38.33 269.82 -37.8 270.52 -37.26 271.23 C-18.47 294.51 15.66 307.59 44.66 310.95 C50.77 311.4 56.9 311.38 63.01 311.38 C63.75 311.38 64.49 311.38 65.25 311.38 C76.49 311.37 87.19 310.77 98.14 308.13 C98.85 307.98 99.57 307.82 100.31 307.66 C121.19 303.12 140.78 293.98 160.14 285.13 C153.24 285.75 146.73 287.03 140.01 288.69 C138.95 288.95 137.89 289.21 136.79 289.48 C130.53 291.01 124.28 292.61 118.03 294.24 C117.35 294.41 116.67 294.59 115.96 294.78 C112.62 295.65 109.28 296.53 105.95 297.41 C86.08 302.64 67.47 304.45 47.14 301.13 C47.14 300.8 47.14 300.47 47.14 300.13 C47.75 300.14 48.36 300.15 48.98 300.17 C52.04 300.2 55.09 300.17 58.14 300.13 C59.3 300.12 60.46 300.1 61.66 300.08 C69.45 299.8 76.76 298.76 84.34 297.02 C85.29 296.8 86.25 296.58 87.23 296.36 C97.58 293.91 107.59 290.57 117.64 287.13 C139.71 279.58 160.93 273.91 184.39 273.88 C185.15 273.88 185.9 273.88 186.68 273.87 C198.41 273.86 209.66 274.59 221.14 277.13 C221.14 277.46 221.14 277.79 221.14 278.13 C220.52 278.17 219.9 278.21 219.27 278.25 C200.65 279.5 180.68 281.12 165.86 293.85 C163.14 296.13 163.14 296.13 161.14 296.13 C160.89 296.69 160.64 297.26 160.39 297.83 C158.93 300.52 157.17 302.6 155.14 304.88 C154.09 306.08 154.09 306.08 153.01 307.3 C151.14 309.13 151.14 309.13 149.14 309.13 C149.47 309.79 149.8 310.45 150.14 311.13 C151 310.88 151.86 310.63 152.75 310.37 C196.92 297.55 241.37 284.76 287.14 279.13 C288.03 279.02 288.92 278.9 289.83 278.78 C305.9 276.73 321.97 276.92 338.14 277.13 C338.14 277.46 338.14 277.79 338.14 278.13 C337.58 278.19 337.01 278.24 336.43 278.3 C285.18 283.42 235.77 297.66 186.73 312.8 C110.23 336.42 110.23 336.42 75.14 335.13 C75.14 334.8 75.14 334.47 75.14 334.13 C76.61 333.98 76.61 333.98 78.11 333.83 C101.72 331.3 124.81 323.15 141.14 305.13 C140.21 305.58 139.27 306.03 138.31 306.49 C113.47 318.32 86.95 325.83 59.14 324.13 C58.02 324.07 58.02 324.07 56.87 324 C19.13 321.68 -14.18 309.17 -41.86 283.13 C-42.55 282.52 -43.24 281.91 -43.94 281.28 C-57.38 268.83 -65.15 250.5 -69.86 233.13 C-70.03 239.14 -69.48 244.62 -68.3 250.51 C-68.13 251.36 -67.96 252.22 -67.79 253.11 C-66.27 260.24 -63.92 266.87 -61.06 273.57 C-60.28 275.4 -59.56 277.27 -58.86 279.13 C-59.19 279.79 -59.52 280.45 -59.86 281.13 C-74.86 258.73 -80.31 231.78 -75.31 205.17 C-71.83 189.37 -65.37 174.7 -53.86 163.13 C-71.33 175.39 -82.48 193.21 -86.86 214.13 C-91.22 240.07 -87.02 265.63 -72.36 287.76 C-71.54 288.89 -70.72 290.02 -69.86 291.13 C-70.19 291.79 -70.52 292.45 -70.86 293.13 C-88.75 274.72 -97.43 251.24 -97.08 225.83 C-96.28 201.65 -85.01 180.56 -67.86 164.13 C-65.26 161.94 -62.68 160.03 -59.86 158.13 C-71 162.5 -80.51 167.65 -89.86 175.13 C-90.75 175.84 -91.65 176.55 -92.57 177.28 C-104.57 187.45 -112.86 200.77 -120.86 214.13 C-121.86 212.13 -121.86 212.13 -120.93 208.93 C-120.44 207.57 -119.94 206.23 -119.42 204.88 C-119.15 204.17 -118.88 203.45 -118.6 202.72 C-113.92 190.84 -107.43 180.63 -98.86 171.13 C-98.1 170.28 -97.34 169.42 -96.56 168.55 C-78.21 149.02 -51.15 139.75 -24.79 138.93 C-22.96 138.91 -21.13 138.89 -19.3 138.88 C-18.02 138.85 -18.02 138.85 -16.71 138.82 C3.22 138.71 23.21 143.05 42.7 146.76 C45.96 147.37 49.22 147.98 52.49 148.59 C54.49 148.97 56.49 149.34 58.49 149.72 C73.41 152.54 88.55 154.31 103.14 149.13 C101.83 149.11 100.52 149.08 99.17 149.05 C78.2 148.48 58.68 144.77 38.58 139.03 C28 136.01 17.54 133.74 6.61 132.27 C5.67 132.14 4.72 132.02 3.74 131.89 C2.92 131.79 2.1 131.69 1.25 131.58 C-0.86 131.13 -0.86 131.13 -3.86 129.13 C-4.3 126.69 -4.3 126.69 -3.86 124.13 C-0.87 121.26 1.36 120.68 5.45 120.63 C12.38 120.83 18.37 122.91 24.8 125.28 C54.87 136.25 93.32 148.31 124.71 135.05 C126.55 134.14 128.35 133.15 130.14 132.13 C129.44 131.47 128.74 130.81 128.01 130.13 C120.97 122.99 114.93 114.38 114.89 103.94 C114.97 103.02 115.05 102.09 115.14 101.13 C117.71 103.7 120.22 106.23 122.58 109.01 C124.94 111.42 124.94 111.42 127.89 111.13 C131.25 110.1 134.58 109.03 137.89 107.85 C140.29 107.08 142.67 106.58 145.14 106.13 C140.28 103.24 135.41 100.37 130.52 97.52 C129.04 96.66 127.56 95.79 126.08 94.92 C107.6 84.05 87.83 75.32 68.2 66.76 C53.34 60.24 39.3 53.23 28.14 41.13 C27.68 40.67 27.23 40.21 26.76 39.73 C23.28 36.01 21.24 32.31 19.08 27.69 C15.01 20.01 9.73 16.89 2.14 13.13 C0.59 12.32 -0.95 11.51 -2.49 10.71 C-22.79 0.34 -44.52 -5.78 -66.86 -9.87 C-67.72 -10.03 -68.58 -10.2 -69.47 -10.36 C-100.33 -16.06 -132.09 -15.51 -159.86 0.13 C-160.19 0.46 -160.52 0.79 -160.86 1.13 C-160.16 1.24 -159.46 1.34 -158.74 1.45 C-155.51 1.94 -152.28 2.44 -149.05 2.94 C-147.95 3.11 -146.85 3.28 -145.71 3.45 C-138.61 4.56 -131.76 6.07 -124.86 8.13 C-124.86 8.46 -124.86 8.79 -124.86 9.13 C-125.64 9.14 -126.43 9.15 -127.23 9.16 C-158.04 9.62 -192.51 10.82 -215.81 33.84 C-223.41 41.78 -229.65 51 -235.99 59.94 C-247.56 75.88 -264.11 91.21 -282.86 98.13 C-265.01 95.75 -248.53 85.75 -237.58 71.46 C-236.13 69.5 -234.68 67.54 -233.24 65.57 C-219.25 46.5 -201.59 28.06 -177.86 22.13 C-176.87 22.46 -175.88 22.79 -174.86 23.13 C-175.83 23.63 -176.79 24.12 -177.79 24.64 C-209.97 41.35 -232.4 68.63 -247.86 101.13 C-247.86 101.79 -247.86 102.45 -247.86 103.13 C-247.57 102.64 -247.27 102.16 -246.97 101.65 C-234.8 82.42 -216.86 66.26 -194.86 59.13 C-193.87 59.46 -192.88 59.79 -191.86 60.13 C-192.89 60.75 -193.92 61.37 -194.97 62 C-203.48 67.17 -211.34 72.58 -218.86 79.13 C-219.6 79.72 -220.35 80.3 -221.11 80.91 C-228.76 87.15 -234.25 95.09 -239.86 103.13 C-240.33 103.8 -240.81 104.47 -241.29 105.15 C-252.57 121.28 -260.51 139.39 -268.86 157.13 C-265.59 152.82 -262.41 148.48 -259.36 144.01 C-245.26 124.76 -225.48 112.16 -205.36 99.96 C-190.85 91.14 -177.46 81.53 -164.86 70.13 C-164.19 69.53 -163.52 68.93 -162.83 68.31 C-157.26 63.07 -152.76 56.79 -148.11 50.74 C-146.39 48.52 -144.63 46.32 -142.86 44.13 C-143.47 49.8 -145.49 54.58 -147.74 59.76 C-148.33 61.13 -148.33 61.13 -148.94 62.53 C-154.99 76.24 -161.72 89.96 -171.86 101.13 C-172.56 101.94 -173.25 102.76 -173.97 103.59 C-183.93 115.05 -195.25 123.75 -207.56 132.48 C-217.21 139.39 -226.69 146.59 -235.86 154.13 C-236.52 154.64 -237.18 155.15 -237.86 155.68 C-250.69 166.09 -259.85 181.44 -266.86 196.13 C-266.52 195.67 -266.18 195.21 -265.82 194.73 C-256.38 182.97 -242.4 175.95 -229.5 168.63 C-211.28 158.68 -211.28 158.68 -194.86 146.13 C-194.11 145.47 -193.37 144.82 -192.6 144.14 C-186.87 138.83 -182.85 132.88 -178.81 126.27 C-177.26 123.77 -175.67 121.44 -173.86 119.13 C-174.39 124.68 -175.45 129.55 -177.49 134.76 C-177.75 135.44 -178 136.12 -178.27 136.81 C-181.01 143.82 -184.35 150.48 -187.86 157.13 C-154.26 132.15 -137.24 101.36 -129.86 60.13 C-129.53 60.13 -129.2 60.13 -128.86 60.13 C-128.31 79.82 -130.01 98.26 -135.86 117.13 C-136.07 117.8 -136.27 118.47 -136.48 119.16 C-143.21 140.86 -155.43 157.75 -170.86 174.13 C-158.64 168.51 -148 160.93 -137.86 152.13 C-137.23 151.59 -136.59 151.05 -135.94 150.5 C-127.01 142.33 -120.68 130.47 -116.86 119.13 C-116.54 118.19 -116.22 117.24 -115.9 116.27 C-111.84 101.87 -113.38 86.43 -115.42 71.82 C-117.83 54.52 -117.79 38.06 -106.86 23.46 C-102.3 18.15 -97.1 13.36 -90.86 10.13 C-90.2 10.46 -89.54 10.79 -88.86 11.13 C-89.38 11.79 -89.9 12.44 -90.44 13.12 C-103.53 30.25 -106.13 47.91 -103.53 68.87 C-102.94 73.05 -101.95 77.06 -100.86 81.13 C-100.27 80.43 -100.27 80.43 -99.67 79.72 C-95.87 75.34 -91.67 72.69 -86.55 70.13 C-85.93 69.82 -85.3 69.5 -84.66 69.18 C-83.09 68.42 -81.48 67.77 -79.86 67.13 C-79.2 67.46 -78.54 67.79 -77.86 68.13 C-78.51 68.69 -79.17 69.25 -79.84 69.82 C-88.94 77.77 -95.52 85.08 -97.74 97.19 C-97.94 103.67 -95.43 107.82 -91.3 112.66 C-76.99 127.32 -51.84 127.92 -32.86 129.13 C-35.31 131.58 -36.44 131.55 -39.82 131.99 C-40.84 132.13 -41.86 132.28 -42.91 132.42 C-44.01 132.57 -45.11 132.73 -46.24 132.88 C-70.82 136.56 -97.56 144.42 -115.86 162.13 C-115.86 157.19 -112.13 154.6 -108.86 151.13 C-108.17 150.38 -107.49 149.63 -106.78 148.85 C-101.39 143.17 -95.62 139.06 -88.86 135.13 C-88.12 134.7 -87.37 134.26 -86.61 133.81 C-85.03 132.9 -83.45 132.01 -81.86 131.13 C-82.53 130.92 -83.19 130.72 -83.88 130.5 C-91.29 128.02 -97.44 124.56 -103.86 120.13 C-103.92 121.04 -103.99 121.95 -104.05 122.88 C-107.27 144.55 -126.03 160.86 -141.32 174.84 C-153.34 185.92 -159.58 196.41 -163.86 212.13 C-164.52 211.8 -165.18 211.47 -165.86 211.13 C-166.1 202.86 -165.67 195.21 -163.86 187.13 C-168.35 188.65 -172.55 190.56 -174.79 194.96 C-176.74 200.2 -177.82 205.65 -178.86 211.13 C-179.1 212.3 -179.35 213.47 -179.6 214.68 C-185.47 248.04 -176.55 285.32 -157.79 313.38 C-157.49 313.96 -157.18 314.54 -156.86 315.13 C-157.19 315.79 -157.52 316.45 -157.86 317.13 C-162.8 311.77 -167.01 306.25 -170.86 300.07 C-171.38 299.24 -171.9 298.41 -172.43 297.56 C-185.31 276.58 -193.07 252.81 -193.05 228.07 C-193.05 227.25 -193.05 226.43 -193.05 225.58 C-192.97 217.12 -192.55 208.2 -189.86 200.13 C-193.35 201.97 -196.82 203.83 -200.3 205.69 C-201.27 206.21 -202.25 206.72 -203.25 207.25 C-214.33 212.89 -214.33 212.89 -222.4 221.93 C-226.31 249.04 -218.54 279.33 -202.16 301.25 C-200.11 303.92 -197.99 306.53 -195.86 309.13 C-195.26 309.88 -194.67 310.63 -194.05 311.41 C-189.33 317.13 -183.7 321.6 -177.86 326.13 C-176.89 326.9 -175.91 327.67 -174.91 328.46 C-150.69 347.12 -120.03 359.42 -89.86 364.13 C-90.83 363.55 -90.83 363.55 -91.81 362.95 C-116.08 347.92 -135.76 328.27 -150.86 304.13 C-151.22 303.56 -151.59 303 -151.96 302.41 C-158.87 291.48 -170.94 270.12 -168.42 256.81 C-168.24 256.26 -168.05 255.7 -167.86 255.13 C-167.52 256.04 -167.18 256.95 -166.83 257.89 C-153.47 292.84 -128.67 324.76 -97.86 346.13 C-97.32 346.52 -96.77 346.91 -96.21 347.31 C-79.68 359.1 -61.54 368.29 -42.86 376.13 C-42.86 376.46 -42.86 376.79 -42.86 377.13 C-97.78 375.56 -156.45 362.86 -197.33 323.54 C-199.32 321.64 -201.32 319.94 -203.49 318.26 C-225.63 299.39 -234.21 268.75 -237.86 241.13 C-244.6 264.56 -241.3 283.96 -229.67 305.26 C-225.27 313.01 -219.94 319.64 -213.86 326.13 C-213.38 326.65 -212.9 327.16 -212.41 327.69 C-205.98 334.56 -199.15 340.5 -191.58 346.07 C-189.47 347.67 -187.64 349.2 -185.86 351.13 C-190.98 349.68 -195.05 347.41 -199.49 344.57 C-200.19 344.12 -200.9 343.67 -201.63 343.2 C-203.72 341.86 -205.79 340.5 -207.86 339.13 C-209.37 338.15 -209.37 338.15 -210.9 337.14 C-236.18 319.38 -257.61 291.8 -263.86 261.13 C-264.56 257.14 -265.07 253.14 -265.5 249.11 C-265.77 246.08 -265.77 246.08 -266.86 243.13 C-279.91 267.09 -285.36 292.15 -287.86 319.13 C-289.84 316.17 -290.22 314.96 -290.68 311.56 C-290.8 310.66 -290.93 309.77 -291.05 308.84 C-291.18 307.91 -291.3 306.97 -291.42 306.01 C-291.55 305.09 -291.68 304.18 -291.8 303.24 C-292.17 300.54 -292.52 297.84 -292.86 295.13 C-292.96 294.42 -293.06 293.7 -293.16 292.96 C-298.82 249.35 -287.51 206.81 -261.15 171.77 C-258.5 168.39 -255.61 165.24 -252.67 162.12 C-250.71 160.06 -250.71 160.06 -248.86 157.13 C-248.2 157.13 -247.54 157.13 -246.86 157.13 C-246.61 156.54 -246.35 155.95 -246.09 155.34 C-244.74 152.91 -243.37 151.6 -241.24 149.82 C-240.6 149.29 -239.97 148.75 -239.32 148.21 C-238.51 147.52 -237.7 146.84 -236.86 146.13 C-236.3 145.63 -235.73 145.12 -235.15 144.6 C-229.98 139.99 -224.56 135.81 -218.99 131.69 C-212.17 126.62 -205.41 121.54 -198.86 116.13 C-198.23 115.64 -197.61 115.15 -196.96 114.64 C-191.56 110.27 -186.09 104.82 -183.86 98.13 C-184.47 98.56 -185.07 99 -185.69 99.45 C-191.65 103.67 -197.73 107.55 -203.99 111.32 C-217.24 119.42 -229.62 128.37 -240.86 139.13 C-241.67 139.87 -242.47 140.62 -243.3 141.38 C-257.5 154.89 -267.52 172.34 -277.39 189.09 C-288.88 208.57 -301.88 224.92 -322.05 235.82 C-322.7 236.17 -323.34 236.52 -324.01 236.88 C-325.59 237.7 -327.23 238.43 -328.86 239.13 C-329.52 238.8 -330.18 238.47 -330.86 238.13 C-329.7 237.28 -329.7 237.28 -328.52 236.41 C-305.17 219.1 -293.38 198.29 -283.86 171.13 C-284.31 171.52 -284.76 171.92 -285.22 172.32 C-295.31 181.06 -306.65 188.68 -318.86 194.13 C-319.52 193.8 -320.18 193.47 -320.86 193.13 C-311.41 184.59 -311.41 184.59 -306.8 180.63 C-285.55 161.98 -274.31 140.02 -263.86 114.13 C-271.97 121.77 -277.27 131.66 -280.86 142.13 C-281.19 142.13 -281.52 142.13 -281.86 142.13 C-282.77 130.58 -277.94 120.61 -272.35 110.81 C-270.77 108.16 -270.77 108.16 -269.86 105.13 C-270.52 105.35 -271.18 105.56 -271.85 105.79 C-292.59 111.86 -312.38 107.08 -331.02 97.18 C-334.97 94.92 -338.5 92.19 -341.86 89.13 C-340.87 88.64 -340.87 88.64 -339.86 88.13 C-337.83 88.84 -337.83 88.84 -335.36 89.94 C-321.01 95.89 -305.3 95.67 -290.86 89.94 C-266.43 79 -251.06 61.91 -236.8 39.88 C-232.98 34.12 -228.7 29.06 -223.86 24.13 C-223.25 23.51 -222.64 22.88 -222.01 22.24 C-214.13 14.8 -204.38 9.94 -194.3 6.26 C-187.52 3.76 -182.53 0.1 -176.96 -4.42 C-129.26 -42.23 -49.21 -26.04 0 0 Z M-249.86 104.13 C-248.86 106.13 -248.86 106.13 -248.86 106.13 Z M-149.86 131.13 C-148.86 133.13 -148.86 133.13 -148.86 133.13 Z M-150.86 133.13 C-152.72 135.28 -154.54 137.45 -156.36 139.63 C-168.61 154.06 -183.54 163.96 -200 173.09 C-225.65 187.37 -245.77 203.26 -254.61 232.61 C-256.28 239.71 -256.05 246.87 -255.86 254.13 C-255.53 254.13 -255.2 254.13 -254.86 254.13 C-254.67 253.17 -254.47 252.22 -254.27 251.23 C-251 236.28 -245.45 222.42 -234.86 211.13 C-234.04 210.23 -233.22 209.33 -232.37 208.4 C-223.57 199.16 -213.52 192.62 -202.55 186.32 C-196.52 182.85 -190.81 179.11 -185.24 174.94 C-184.6 174.47 -183.96 173.99 -183.3 173.51 C-179.38 170.51 -175.91 167.27 -172.48 163.73 C-170.86 162.13 -170.86 162.13 -168.17 159.98 C-160.77 154.05 -151.6 142.61 -149.86 133.13 C-150.19 133.13 -150.52 133.13 -150.86 133.13 Z M-220.24 172.69 C-225.1 175.78 -229.97 178.8 -234.99 181.63 C-260.21 196.28 -276.6 215.78 -284.57 243.99 C-286.83 252.52 -288.03 261.3 -287.86 270.13 C-284.69 268.54 -284.34 265.26 -283.24 262.07 C-272.93 233.54 -253.1 202.09 -228.37 184.02 C-224.92 181.42 -221.65 178.63 -218.36 175.82 C-217.74 175.29 -217.11 174.76 -216.47 174.22 C-213.22 171.55 -213.22 171.55 -210.86 168.13 C-214.43 168.13 -217.3 170.81 -220.24 172.69 Z M181.46 190.67 C175.28 194.83 168.7 198.14 162.08 201.51 C160.76 202.18 159.45 202.85 158.14 203.52 C155.59 204.83 153.04 206.13 150.48 207.43 C147.85 208.77 145.22 210.13 142.6 211.5 C130.46 217.8 117.77 222.9 105.14 228.13 C109.12 229.46 111.53 228.16 115.28 226.74 C115.99 226.47 116.7 226.21 117.43 225.94 C119.76 225.08 122.07 224.2 124.39 223.32 C125.18 223.02 125.97 222.72 126.78 222.42 C140.09 217.41 153.25 212.14 166.14 206.13 C166.98 205.75 167.83 205.37 168.69 204.98 C171.11 203.88 173.5 202.73 175.89 201.57 C176.59 201.25 177.29 200.94 178 200.61 C182.1 198.52 183.61 196.76 185.09 192.35 C185.47 190.95 185.83 189.55 186.14 188.13 C184.32 188.13 182.9 189.66 181.46 190.67 Z M-268.86 197.13 C-268.86 200.13 -268.86 200.13 -268.86 200.13 Z M174.02 212.3 C172.96 212.77 171.9 213.25 170.8 213.74 C169.63 214.26 168.47 214.78 167.26 215.32 C131.73 230.9 94.77 242.53 56.14 247.13 C55.3 247.24 54.47 247.34 53.61 247.45 C44.74 248.41 35.86 248.24 26.95 248.19 C25.32 248.19 23.68 248.18 22.04 248.18 C18.07 248.17 14.11 248.15 10.14 248.13 C13.9 250.14 17.6 250.95 21.76 251.69 C22.42 251.82 23.09 251.95 23.77 252.07 C67.96 260.18 109.66 247.59 150.92 233.1 C161.59 229.39 171.94 226.67 183.14 225.13 C183.24 219.11 183.24 219.11 182.64 213.13 C182.47 212.14 182.31 211.15 182.14 210.13 C178.75 210.13 177.09 210.9 174.02 212.3 Z M-55.86 217.13 C-54.86 219.13 -54.86 219.13 -54.86 219.13 Z M-54.86 219.13 C-53.86 221.13 -53.86 221.13 -53.86 221.13 Z " fill="#2B2520" transform="translate(341.861328125,25.86865234375)"/>
<path d="M0 0 C-2.62 1.4 -5.03 2.37 -7.92 3.03 C-8.69 3.21 -9.47 3.39 -10.26 3.57 C-11.11 3.76 -11.95 3.95 -12.82 4.14 C-13.73 4.35 -14.63 4.56 -15.56 4.77 C-18.6 5.46 -21.64 6.14 -24.69 6.81 C-25.75 7.05 -26.82 7.29 -27.92 7.53 C-96.33 22.77 -165.24 34.54 -234.51 45.13 C-236.92 45.5 -239.33 45.87 -241.74 46.24 C-248.65 47.3 -255.56 48.35 -262.47 49.4 C-264.61 49.72 -266.74 50.05 -268.87 50.37 C-271.81 50.82 -274.75 51.26 -277.7 51.71 C-278.56 51.84 -279.42 51.97 -280.3 52.11 C-284.58 52.74 -288.66 53.15 -293 53 C-290.32 50.88 -287.72 49.27 -284.63 47.83 C-283.33 47.21 -283.33 47.21 -281.99 46.59 C-281.05 46.15 -280.1 45.7 -279.12 45.25 C-268.03 40.02 -257.06 34.57 -246.12 29.04 C-245.5 28.73 -244.88 28.42 -244.24 28.09 C-242.55 27.25 -240.87 26.39 -239.18 25.54 C-235.83 23.92 -232.44 22.44 -229 21 C-243.58 22.87 -258.05 25.09 -272.5 27.75 C-273.45 27.92 -274.4 28.1 -275.38 28.28 C-292.06 31.34 -308.56 34.84 -325 39 C-326.45 39.36 -327.9 39.72 -329.34 40.08 C-346.77 44.44 -364.02 49.18 -381.12 54.69 C-411.81 64.56 -442.75 73.83 -474.12 81.25 C-474.87 81.43 -475.61 81.6 -476.38 81.79 C-528.38 94.07 -580.32 91.44 -626.95 63.28 C-646.02 51.39 -665.11 35.51 -678 17 C-677.67 16.34 -677.34 15.68 -677 15 C-676.48 15.57 -675.95 16.14 -675.41 16.73 C-647.4 46.05 -606.52 67.1 -567 75 C-566.33 75.15 -565.66 75.29 -564.97 75.44 C-547.25 79.24 -529.01 78.29 -511 78 C-511.89 77.94 -511.89 77.94 -512.79 77.88 C-559.84 74.6 -601.63 58.17 -635 24 C-634.67 23.34 -634.34 22.68 -634 22 C-633.16 22.65 -632.32 23.31 -631.46 23.98 C-621.63 31.5 -611.31 37.75 -600.46 43.66 C-598.95 44.48 -597.44 45.32 -595.94 46.16 C-538.27 78.54 -473.37 68.24 -412.78 51.27 C-400.86 47.9 -388.97 44.47 -377.07 41.04 C-344.97 31.8 -312.9 23.14 -280.16 16.44 C-278.16 16.03 -276.16 15.62 -274.17 15.2 C-266.47 13.61 -258.76 12.21 -251 11 C-249.76 10.81 -248.53 10.61 -247.26 10.41 C-220.57 6.32 -193.94 6.57 -167 7 C-169.9 8.49 -172.64 9.56 -175.79 10.45 C-187.4 13.78 -198.44 17.53 -209.34 22.74 C-212.81 24.39 -216.3 26.01 -219.79 27.64 C-220.48 27.96 -221.18 28.28 -221.89 28.62 C-223.59 29.41 -225.3 30.21 -227 31 C-225.79 30.83 -224.57 30.65 -223.33 30.47 C-82.69 10.36 -82.69 10.36 -34.32 3.85 C-32.2 3.56 -30.08 3.28 -27.95 2.99 C-24.11 2.47 -20.26 1.95 -16.42 1.44 C-15.31 1.29 -14.21 1.14 -13.08 0.99 C-12.07 0.86 -11.07 0.72 -10.04 0.59 C-9.18 0.47 -8.32 0.36 -7.43 0.24 C-4.94 -0.01 -2.5 -0.04 0 0 Z " fill="#2B2520" transform="translate(935,305)"/>
<path d="M0 0 C-0.62 8.59 -2.27 16.89 -3.98 25.31 C-6.64 38.44 -9.14 51.59 -11.39 64.8 C-11.59 65.96 -11.79 67.12 -11.99 68.32 C-12.96 74.03 -13.91 79.73 -14.85 85.44 C-20.91 121.73 -20.91 121.73 -34.16 131.79 C-43.45 137.89 -56 140.23 -67.04 138.47 C-73.58 137.23 -73.58 137.23 -79.78 139.01 C-83.45 141.81 -86.56 145.11 -89.64 148.53 C-91.31 150.33 -93.11 151.88 -95 153.44 C-100.99 158.6 -106.45 164.37 -112 170 C-112 166.82 -111.58 165.87 -110.09 163.18 C-109.66 162.41 -109.24 161.64 -108.8 160.85 C-108.33 160.01 -107.86 159.17 -107.38 158.31 C-106.64 157 -106.64 157 -105.9 155.65 C-101.42 147.65 -96.8 139.74 -92.16 131.84 C-86.96 122.97 -81.94 114.01 -77 105 C-76.67 105 -76.34 105 -76 105 C-75.5 109.95 -75.5 109.95 -75 115 C-67.77 118.34 -60.45 119.51 -52.63 117.34 C-47.68 115.17 -44.25 111.95 -42 107 C-40.44 102.04 -39.17 97.06 -38 92 C-38.33 92.33 -38.66 92.66 -39 93 C-45.63 98.52 -52.1 102.7 -61 102.28 C-67.79 101.33 -73.61 98.31 -78 93 C-85.29 80.17 -85.54 66.71 -82.09 52.51 C-77.96 39.22 -69.61 25.73 -57.01 18.89 C-48.45 15.09 -38.43 12.67 -29.31 15.97 C-26.94 17.12 -26.94 17.12 -24.9 18.32 C-23.01 19.21 -23.01 19.21 -21.09 18.45 C-18.28 16.5 -16.06 14.21 -13.69 11.75 C-2.2 0 -2.2 0 0 0 Z M-52.75 41.06 C-58.92 49.6 -62.08 60.47 -61 71 C-60.02 75.24 -58.68 78.25 -55.75 81.5 C-52.08 83.5 -50.13 83.71 -46 83 C-39.7 79.38 -36.51 73.68 -34.32 66.91 C-33.76 64.76 -33.27 62.61 -32.81 60.44 C-32.65 59.66 -32.48 58.89 -32.31 58.1 C-30.05 47.12 -30.05 47.12 -30 36 C-32.45 33.43 -33.69 33.04 -37.25 32.56 C-44.04 33.35 -48.35 35.82 -52.75 41.06 Z " fill="#2B2520" transform="translate(1091,183)"/>
<path d="M0 0 C0 3.52 -0.81 4.73 -2.6 7.72 C-3.15 8.65 -3.71 9.59 -4.28 10.55 C-5.16 12.01 -5.16 12.01 -6.06 13.5 C-6.9 14.92 -6.9 14.92 -7.76 16.36 C-11.16 22.05 -14.68 27.66 -18.25 33.24 C-21.24 37.95 -24.11 42.73 -27 47.5 C-30.59 53.43 -34.19 59.35 -37.88 65.22 C-38.45 66.14 -39.02 67.05 -39.62 68 C-40.07 68.66 -40.53 69.32 -41 70 C-41.33 70 -41.66 70 -42 70 C-42 63.4 -42 56.8 -42 50 C-50.78 48.05 -57.44 46.68 -65.56 50.81 C-69.13 54.01 -69.85 55.62 -70.38 60.38 C-69.91 64.83 -68.8 66.5 -66 70 C-63.4 72.02 -60.63 73.69 -57.81 75.38 C-39.46 86.84 -39.46 86.84 -36 97 C-35.75 97.71 -35.51 98.43 -35.25 99.16 C-32.91 107.88 -33.92 119.24 -37.69 127.5 C-43.88 137.85 -52.37 144.04 -64 147 C-73.5 148.86 -82.24 148.6 -91.5 145.81 C-96.15 144.81 -98.18 144.58 -102.46 146.76 C-105.54 149.02 -108.31 151.59 -111.07 154.21 C-114.65 157.53 -118.47 160.55 -122.25 163.62 C-124.31 165.34 -126.37 167.06 -128.43 168.78 C-130 170 -130 170 -132 171 C-130.36 166.31 -127.87 162.32 -125.25 158.12 C-124.26 156.52 -123.26 154.91 -122.27 153.3 C-121.74 152.44 -121.21 151.59 -120.67 150.71 C-118.34 146.92 -116.03 143.12 -113.73 139.33 C-108.95 131.45 -104.16 123.58 -99.31 115.75 C-98.91 115.1 -98.52 114.45 -98.11 113.78 C-96.25 110.8 -94.51 108.51 -92 106 C-91.51 114.41 -91.51 114.41 -91 123 C-82.52 126.39 -74.31 127.48 -65.76 123.92 C-62.05 121.98 -60.31 119.92 -59 116 C-58.63 112.05 -58.71 109.61 -60.44 106 C-65.3 100.31 -71.26 96.42 -77.62 92.56 C-86.11 87.24 -91.79 80.17 -94.75 70.56 C-94.83 69.72 -94.91 68.87 -95 68 C-95.09 67.07 -95.09 67.07 -95.19 66.12 C-95.75 56.14 -91.89 46.82 -85.54 39.27 C-77.07 29.97 -65.77 26.95 -53.59 25.98 C-49.69 26 -46.36 26.76 -42.56 27.62 C-38.11 28.31 -35.21 28.47 -31.39 26.07 C-28.31 23.79 -25.49 21.24 -22.71 18.61 C-19.95 16.02 -17.03 13.62 -14.12 11.19 C-13.06 10.28 -12 9.37 -10.93 8.46 C-7.39 5.49 -3.75 2.72 0 0 Z " fill="#2B2520" transform="translate(1238,140)"/>
<path d="M0 0 C0.33 0 0.66 0 1 0 C1 3.3 1 6.6 1 10 C2.29 9.68 3.58 9.36 4.91 9.02 C14.84 6.83 27.67 6.01 36.98 10.6 C42.82 14.65 46.04 19.23 48 26 C49.06 36.09 47.02 45.85 45.06 55.69 C44.51 58.54 43.96 61.4 43.41 64.26 C43.22 65.28 43.22 65.28 43.02 66.31 C42.04 71.53 41.41 76.7 41 82 C44.63 81.34 48.26 80.68 52 80 C48.11 84.01 44 87.63 39.75 91.25 C30.67 99.08 22.75 106.95 15.75 116.69 C15.17 117.45 14.6 118.22 14 119 C13.67 119 13.34 119 13 119 C13.47 111.5 14.59 104.21 15.98 96.84 C16.61 93.47 17 90.44 17 87 C16.54 87.46 16.08 87.92 15.6 88.39 C8.96 94.64 2.49 98.14 -6.75 98.44 C-12.66 98.19 -16.15 96.55 -20.69 92.75 C-25.62 86.89 -27.15 80.56 -27 73 C-25.72 62.7 -21.38 54.25 -13.25 47.69 C-11.86 46.75 -10.44 45.86 -9 45 C-8.27 44.56 -7.54 44.12 -6.79 43.67 C1.86 39.15 11.5 37.96 21.02 36.4 C23.06 36.08 23.06 36.08 25 35 C24.62 30.89 24.62 30.89 22.7 27.36 C18.89 24.32 13.95 24.81 9.3 25.26 C-0.37 27.12 -7.99 32.58 -16 38 C-17.16 38.77 -18.32 39.55 -19.48 40.32 C-20.73 41.15 -20.73 41.15 -22 42 C-20.57 38.24 -18.87 34.75 -16.95 31.21 C-16.36 30.1 -15.76 29 -15.14 27.86 C-14.52 26.71 -13.89 25.56 -13.25 24.38 C-12.34 22.69 -12.34 22.69 -11.41 20.96 C-7.62 13.97 -3.81 6.98 0 0 Z M2 59 C-2.19 63.75 -3.37 66.56 -3.27 72.8 C-3.13 75.18 -3.13 75.18 -1.44 77.56 C2 79.59 4.05 79.53 8 79 C14.16 76.45 17.32 73.1 20 67 C21.55 62.07 23 57.19 23 52 C15.6 52 7.67 54.18 2 59 Z " fill="#2B2520" transform="translate(1286,190)"/>
<path d="M0 0 C1.53 3.06 0.45 5.89 -0.18 9.12 C-0.31 9.83 -0.44 10.53 -0.58 11.25 C-0.86 12.74 -1.15 14.23 -1.43 15.71 C-1.87 17.99 -2.3 20.27 -2.73 22.55 C-3 23.99 -3.28 25.43 -3.55 26.88 C-3.68 27.56 -3.81 28.24 -3.95 28.95 C-4.88 33.77 -4.88 33.77 -6 36 C-5.34 36 -4.68 36 -4 36 C-3.62 35.12 -3.62 35.12 -3.23 34.22 C-0.18 28.71 5.68 24.32 11.67 22.44 C18.33 21.18 25.42 20.59 31.5 24 C36.97 28.07 39.88 33.36 41 40 C41.8 50.71 39.93 60.95 38.06 71.44 C37.78 73.06 37.5 74.69 37.22 76.31 C36.71 79.28 36.19 82.25 35.66 85.22 C35.09 88.48 34.54 91.74 34 95 C36.64 94.67 39.28 94.34 42 94 C38.65 97.41 35.2 100.68 31.68 103.91 C21.61 113.18 12.85 122.74 5 134 C3.59 131.18 4.29 129.48 4.86 126.4 C5.08 125.22 5.29 124.04 5.51 122.83 C5.87 120.91 5.87 120.91 6.24 118.95 C6.48 117.62 6.73 116.29 6.97 114.96 C7.61 111.44 8.26 107.92 8.91 104.4 C9.95 98.81 10.97 93.22 12 87.63 C12.35 85.7 12.71 83.77 13.07 81.84 C17.59 62.77 17.59 62.77 15 44 C11.8 42.4 9.55 42.59 6 43 C-0.39 46.43 -3.38 52.51 -6 59 C-7.15 63.13 -7.94 67.28 -8.69 71.5 C-8.89 72.56 -9.09 73.63 -9.29 74.72 C-10.05 78.77 -10.8 82.82 -11.49 86.88 C-11.64 87.77 -11.8 88.65 -11.96 89.56 C-12.09 90.33 -12.22 91.11 -12.36 91.9 C-13.62 96.02 -16.75 98.37 -20 101 C-21.3 102.06 -21.3 102.06 -22.62 103.15 C-24.5 104.67 -26.38 106.2 -28.27 107.71 C-32.09 110.91 -35.57 114.39 -39 118 C-40.18 114.47 -39.79 112.73 -39.14 109.08 C-38.81 107.25 -38.81 107.25 -38.49 105.39 C-38.25 104.05 -38 102.72 -37.76 101.38 C-37.52 100.01 -37.27 98.63 -37.03 97.25 C-36.39 93.62 -35.74 89.98 -35.09 86.35 C-34.18 81.27 -33.28 76.19 -32.38 71.11 C-31.9 68.4 -31.41 65.7 -30.93 63 C-29.65 55.85 -28.47 48.7 -27.44 41.51 C-27 39 -27 39 -26 37 C-28.64 37 -31.28 37 -34 37 C-32.59 33.69 -30.94 31.85 -28.19 29.56 C-25.72 27.48 -23.35 25.4 -21.12 23.06 C-19 21 -19 21 -17 21 C-16.62 20.12 -16.62 20.12 -16.23 19.23 C-14.87 16.76 -13.37 15.24 -11.31 13.31 C-7.08 9.2 -3.51 4.74 0 0 Z " fill="#2B2520" transform="translate(960,176)"/>
<path d="M0 0 C1.24 3.62 0.79 6.35 0.1 10.08 C-0.23 11.92 -0.23 11.92 -0.56 13.8 C-0.75 14.78 -0.75 14.78 -0.93 15.78 C-1.31 17.84 -1.68 19.91 -2.05 21.97 C-2.97 27.1 -3.91 32.22 -4.84 37.34 C-5.63 41.67 -6.41 45.99 -7.19 50.32 C-7.55 52.34 -7.92 54.35 -8.3 56.36 C-10.68 68.29 -10.68 68.29 -8.88 80.06 C-7.08 82.19 -7.08 82.19 -4.25 83.06 C0.03 82.98 2.79 81.69 6 79 C16.32 68.13 16.7 46.07 19 32 C17.35 32 15.7 32 14 32 C14 31.34 14 30.68 14 30 C15.84 28.51 15.84 28.51 18.5 26.69 C23.63 23.05 28.56 19.22 33.44 15.25 C34.12 14.7 34.81 14.14 35.52 13.57 C38.84 10.85 42.04 8.12 45 5 C45.99 5.5 45.99 5.5 47 6 C40.07 45.11 40.07 45.11 33 85 C35.64 85 38.28 85 41 85 C37.28 88.77 33.46 92.41 29.56 96 C29.02 96.51 28.47 97.02 27.9 97.54 C25.27 99.97 22.61 102.34 19.83 104.61 C17.33 106.72 15.23 108.82 13.12 111.31 C12.53 112.01 11.93 112.71 11.32 113.43 C10.88 113.95 10.45 114.46 10 115 C8.5 112 9.4 109.71 9.94 106.44 C10.79 100.85 11.19 95.64 11 90 C10.6 90.52 10.2 91.04 9.79 91.57 C4.23 98.38 -2.16 103.22 -11.08 104.24 C-17.82 104.47 -22.69 102.96 -27.76 98.42 C-34.03 91.68 -34.38 84.13 -34.25 75.24 C-33.91 67.67 -32.44 60.25 -31.06 52.81 C-30.78 51.23 -30.5 49.64 -30.22 48.06 C-28.07 35.98 -28.07 35.98 -27 32 C-29.64 32 -32.28 32 -35 32 C-31.76 28.67 -28.44 25.64 -24.81 22.75 C-16.05 15.65 -7.89 8.06 0 0 Z " fill="#2B2520" transform="translate(724,184)"/>
<path d="M0 0 C7.11 5.93 10.45 13.07 12.75 21.88 C14.06 38.27 11.43 56.01 0.71 69.13 C-6.99 77.54 -16.14 84.26 -27.85 85.24 C-37.69 85.47 -45.72 84.05 -53.44 77.62 C-60.42 70.9 -63.99 63.23 -64.43 53.55 C-64.46 51.61 -64.46 49.68 -64.44 47.75 C-64.43 46.74 -64.43 45.73 -64.42 44.68 C-64.25 36.81 -63.16 30.27 -60 23 C-59.58 21.91 -59.58 21.91 -59.16 20.8 C-54.85 10.72 -45.24 1.69 -35.31 -2.81 C-23.75 -6.96 -10.52 -6.61 0 0 Z M-31.57 17.41 C-39.49 25.81 -42 37.56 -42 48.84 C-41.53 55.3 -40.25 59.96 -35.31 64.44 C-31.68 66.15 -29.89 66.26 -26.03 65.75 C-20.75 63.8 -18.18 60.16 -15.81 55.25 C-15.32 54.27 -14.84 53.28 -14.33 52.27 C-11.53 45.39 -10.66 39.22 -10.69 31.88 C-10.67 31.1 -10.66 30.33 -10.64 29.54 C-10.63 23.8 -11.95 19.97 -15.25 15.19 C-21.04 11.26 -26.72 13.05 -31.57 17.41 Z " fill="#2B2520" transform="translate(671,203)"/>
<path d="M0 0 C0.99 0.5 0.99 0.5 2 1 C-0.16 5.23 -2.33 9.47 -4.51 13.7 C-5.24 15.13 -5.98 16.57 -6.71 18 C-16.03 36.24 -16.03 36.24 -20 42 C-20.33 42 -20.66 42 -21 42 C-21 37.38 -21 32.76 -21 28 C-30.21 26.92 -30.21 26.92 -38.44 30.12 C-40.21 32.87 -40.21 32.87 -40.11 35.84 C-38.44 40.6 -35.11 41.95 -30.88 44.38 C-22.91 49.22 -16.01 53.76 -13 63 C-12.09 71.47 -12.72 79.34 -17.7 86.41 C-23.68 93.63 -30.6 97.8 -40 99 C-52.32 99.68 -52.32 99.68 -57.79 98.3 C-63.84 96.81 -63.84 96.81 -69.77 98.13 C-72.49 99.89 -74.99 101.77 -77.5 103.81 C-79.22 105.14 -80.93 106.46 -82.66 107.77 C-83.4 108.36 -84.14 108.96 -84.9 109.57 C-86.99 110.99 -88.53 111.57 -91 112 C-87.5 105.55 -83.77 99.28 -79.88 93.06 C-76.48 87.62 -73.09 82.17 -69.78 76.67 C-69.28 75.84 -68.78 75.01 -68.26 74.15 C-67.31 72.58 -66.37 71 -65.43 69.42 C-62.22 64.11 -62.22 64.11 -60 63 C-60 67.62 -60 72.24 -60 77 C-55.22 78.59 -52.66 79.29 -47.88 79.31 C-46.36 79.34 -46.36 79.34 -44.8 79.36 C-41.61 78.95 -40.25 78.28 -38 76 C-37.25 72.59 -37.25 72.59 -38 69 C-41.25 65.27 -44.76 62.72 -48.94 60.12 C-56.22 55.34 -61.17 50.88 -63.59 42.32 C-65 34.33 -62.17 27.73 -58 21 C-52.72 14.58 -46.02 10.87 -38 9 C-34.28 8.77 -34.28 8.77 -30.5 8.81 C-28.63 8.82 -28.63 8.82 -26.72 8.83 C-23 9 -23 9 -19.55 9.82 C-14.45 10.08 -11.75 7.86 -7.69 5 C-6.28 4.03 -4.87 3.08 -3.45 2.12 C-2.83 1.69 -2.22 1.26 -1.58 0.82 C-1.06 0.55 -0.54 0.28 0 0 Z " fill="#2B2520" transform="translate(893,189)"/>
<path d="M0 0 C0.49 0.99 0.49 0.99 1 2 C-0.07 4.37 -1.2 6.6 -2.45 8.88 C-2.81 9.57 -3.18 10.25 -3.56 10.96 C-4.74 13.16 -5.93 15.36 -7.12 17.56 C-7.91 19.02 -8.69 20.47 -9.47 21.93 C-13.26 28.99 -17.09 36.01 -21 43 C-21.33 43 -21.66 43 -22 43 C-22.05 42.07 -22.1 41.15 -22.15 40.19 C-22.26 38.4 -22.26 38.4 -22.38 36.56 C-22.48 34.77 -22.48 34.77 -22.59 32.94 C-22.79 31.49 -22.79 31.49 -23 30 C-25.69 28.65 -27.87 28.79 -30.88 28.75 C-31.92 28.72 -32.97 28.7 -34.05 28.67 C-37.36 29.04 -38.69 29.65 -41 32 C-42 35.37 -42 35.37 -41 39 C-37.99 42.3 -34.04 44.38 -30.23 46.65 C-22.9 51.08 -17.18 55.43 -14.56 63.88 C-12.7 73.69 -15.81 82.12 -21.12 90.25 C-29.88 98.63 -40.61 100.24 -52.24 100.17 C-56 100 -56 100 -58.32 99.54 C-63.58 98.58 -66.55 98.86 -71.13 101.75 C-72.82 102.95 -74.48 104.18 -76.12 105.44 C-76.99 106.06 -77.85 106.69 -78.73 107.33 C-80.84 108.86 -82.93 110.42 -85 112 C-85.66 111.67 -86.32 111.34 -87 111 C-78.42 95.62 -69.77 80.27 -61 65 C-60.67 65 -60.34 65 -60 65 C-60 69.29 -60 73.58 -60 78 C-55.63 79.75 -53.45 80.32 -48.94 80.38 C-47.92 80.4 -46.89 80.43 -45.84 80.46 C-42.3 79.89 -41.16 78.81 -39 76 C-38.25 73.04 -38.25 73.04 -39 70 C-42.48 65.32 -47.45 62.74 -52.34 59.68 C-58.38 55.86 -62.96 52.08 -65 45 C-66.19 36.32 -65.21 29.14 -60 22 C-54.12 15.2 -47.06 10.59 -37.95 9.83 C-25.5 9.27 -25.5 9.27 -20.04 10.86 C-15.15 11.09 -12.03 8.3 -8.12 5.56 C-7.34 5.03 -6.56 4.5 -5.75 3.96 C-3.82 2.65 -1.91 1.33 0 0 Z " fill="#2B2520" transform="translate(1464,188)"/>
<path d="M0 0 C1.64 3.29 0.29 6.7 -0.4 10.18 C-0.55 10.99 -0.71 11.81 -0.87 12.64 C-1.19 14.36 -1.53 16.08 -1.86 17.79 C-2.37 20.42 -2.87 23.05 -3.38 25.68 C-3.69 27.35 -4.02 29.02 -4.34 30.68 C-4.49 31.47 -4.64 32.26 -4.79 33.07 C-5.39 36.12 -6.02 39.05 -7 42 C-1.39 42 4.22 42 10 42 C9.53 44.98 9.05 47.96 8.56 50.94 C8.43 51.79 8.29 52.64 8.15 53.51 C8.02 54.32 7.89 55.13 7.75 55.96 C7.57 57.09 7.57 57.09 7.39 58.23 C7 60 7 60 6 61 C3.3 61.07 0.63 61.09 -2.06 61.06 C-3.2 61.06 -3.2 61.06 -4.36 61.05 C-6.24 61.04 -8.12 61.02 -10 61 C-10.1 61.68 -10.2 62.37 -10.3 63.07 C-11.11 68.55 -11.99 74 -13.02 79.45 C-13.2 80.4 -13.39 81.36 -13.57 82.34 C-13.93 84.24 -14.3 86.14 -14.68 88.04 C-16.38 96.48 -16.38 96.48 -16 105 C-14.73 106.78 -14.73 106.78 -13 108 C-10.26 108.36 -10.26 108.36 -7.31 108.19 C-5.56 108.13 -3.81 108.06 -2 108 C-2.99 114.6 -3.98 121.2 -5 128 C-14.81 130.18 -23.75 131.88 -33 127 C-36.87 123.8 -39.01 119.88 -40 115 C-40.99 103.62 -38.46 92.4 -36.5 81.25 C-36.16 79.28 -35.82 77.31 -35.49 75.34 C-34.67 70.56 -33.84 65.78 -33 61 C-36.3 61 -39.6 61 -43 61 C-42.52 58.21 -42.04 55.42 -41.56 52.62 C-41.43 51.83 -41.29 51.04 -41.15 50.22 C-40.11 44.23 -40.11 44.23 -39 42 C-35.37 42 -31.74 42 -28 42 C-27.94 41.2 -27.88 40.41 -27.82 39.59 C-27.73 38.53 -27.65 37.47 -27.56 36.38 C-27.48 35.33 -27.4 34.29 -27.32 33.21 C-27.21 32.15 -27.11 31.09 -27 30 C-26.91 28.96 -26.83 27.91 -26.74 26.84 C-25.8 23.24 -24.56 22.33 -21.56 20.19 C-13.56 14.19 -6.3 7.79 0 0 Z " fill="#2B2520" transform="translate(1254,158)"/>
<path d="M0 0 C1.39 4.18 0.25 7.63 -0.65 11.82 C-0.92 13.12 -0.92 13.12 -1.19 14.43 C-1.77 17.19 -2.35 19.94 -2.94 22.69 C-3.33 24.55 -3.72 26.42 -4.11 28.28 C-5.06 32.86 -6.03 37.43 -7 42 C-1.72 42 3.56 42 9 42 C8.14 54.71 8.14 54.71 6 61 C3.9 61.03 1.79 61.05 -0.31 61.06 C-1.48 61.07 -2.66 61.09 -3.86 61.1 C-7 61 -7 61 -10 60 C-10.69 63.88 -11.39 67.76 -12.08 71.63 C-12.43 73.6 -12.78 75.56 -13.13 77.52 C-13.47 79.39 -13.47 79.39 -13.81 81.29 C-14.01 82.43 -14.22 83.57 -14.43 84.75 C-15.35 89.97 -16.15 94.93 -16.19 100.25 C-16.21 101.8 -16.21 101.8 -16.23 103.39 C-16.27 106.16 -16.27 106.16 -14 108 C-11.33 108.24 -11.33 108.24 -8.38 108.12 C-6.87 108.1 -6.87 108.1 -5.34 108.07 C-4.57 108.05 -3.79 108.02 -3 108 C-3.11 110.21 -3.24 112.42 -3.38 114.62 C-3.44 115.85 -3.51 117.08 -3.59 118.35 C-3.99 121.89 -4.54 124.75 -6 128 C-13.93 131.12 -22.96 131.09 -30.95 128.12 C-34.84 126 -38.13 122.6 -39.55 118.35 C-42.04 105.29 -39.06 91.74 -36.5 78.94 C-36.16 77.18 -35.82 75.43 -35.49 73.68 C-34.68 69.45 -33.84 65.22 -33 61 C-35.97 61 -38.94 61 -42 61 C-43.69 57.62 -42.25 53.97 -41.56 50.38 C-41.41 49.57 -41.27 48.77 -41.12 47.95 C-40.75 45.96 -40.38 43.98 -40 42 C-36.37 42 -32.74 42 -29 42 C-28.88 40.85 -28.75 39.71 -28.62 38.53 C-26.86 24.72 -26.86 24.72 -22.31 20.88 C-20.89 19.89 -19.45 18.93 -18 18 C-16.63 16.86 -15.27 15.69 -13.94 14.5 C-13.28 13.93 -12.63 13.35 -11.95 12.76 C-7.61 8.85 -3.3 4.85 0 0 Z " fill="#2B2520" transform="translate(1386,158)"/>
<path d="M0 0 C1.32 2.65 0.86 4.13 0.44 7.05 C0.23 8.56 0.23 8.56 0.02 10.11 C-0.13 11.17 -0.28 12.22 -0.44 13.31 C-0.73 15.39 -1.02 17.47 -1.31 19.55 C-1.44 20.48 -1.57 21.4 -1.71 22.35 C-1.99 24.93 -2.05 27.41 -2 30 C-1.65 29.49 -1.3 28.98 -0.93 28.46 C3.36 22.47 8.48 15.75 16 14 C17.72 13.96 19.45 13.95 21.17 13.96 C22.52 13.97 22.52 13.97 23.91 13.98 C24.6 13.99 25.29 13.99 26 14 C25.55 17.42 25.09 20.83 24.62 24.25 C24.44 25.7 24.44 25.7 24.24 27.18 C24.11 28.12 23.98 29.05 23.85 30.02 C23.74 30.87 23.62 31.73 23.5 32.62 C22.99 35.03 22.2 36.86 21 39 C19.85 38.92 18.69 38.84 17.5 38.75 C12.57 38.8 8.87 39.89 5 43 C-1.85 51.61 -4.19 61.98 -6.19 72.56 C-6.36 73.48 -6.54 74.39 -6.72 75.33 C-7.16 77.55 -7.58 79.78 -8 82 C-5.03 82 -2.06 82 1 82 C-1.69 84.86 -4.37 87.33 -7.56 89.62 C-11.33 92.38 -14.76 95.41 -18.19 98.56 C-18.69 99.02 -19.19 99.48 -19.7 99.95 C-22.87 102.9 -25.95 105.92 -29 109 C-31.33 111.33 -33.67 113.67 -36 116 C-37.21 112.36 -36.73 110.45 -36.04 106.69 C-35.93 106.05 -35.82 105.41 -35.7 104.76 C-35.45 103.37 -35.2 101.99 -34.94 100.61 C-34.54 98.4 -34.14 96.2 -33.75 93.99 C-33.04 90.08 -32.33 86.17 -31.62 82.26 C-30.49 76.06 -29.37 69.85 -28.25 63.64 C-27.87 61.5 -27.48 59.36 -27.08 57.22 C-25.32 47.51 -24.05 37.8 -23 28 C-25.97 28.33 -28.94 28.66 -32 29 C-29.46 25.65 -26.96 22.98 -23.62 20.44 C-19.2 16.98 -14.89 13.41 -10.62 9.75 C-10.03 9.24 -9.44 8.74 -8.82 8.21 C-5.76 5.58 -2.81 2.91 0 0 Z " fill="#2B2520" transform="translate(802,184)"/>
<path d="M0 0 C1.31 3.93 0.35 5.69 -0.88 9.62 C-3.34 18.03 -3.79 26.28 -4 35 C-3.74 34.47 -3.49 33.93 -3.22 33.38 C0.9 25.35 6.57 18.22 14 13 C13.71 14.24 13.42 15.47 13.12 16.75 C12.74 18.5 12.37 20.25 12 22 C11.82 22.84 11.64 23.67 11.46 24.53 C5.14 57.59 12.13 83.92 30 112 C30.33 102.76 30.66 93.52 31 84 C32.37 86.74 33.46 89.14 34.45 91.98 C39.71 106.97 45.25 121.05 56 133 C56.71 133.82 57.42 134.63 58.15 135.48 C66.08 144.48 74.29 152.92 84 160 C81 161 81 161 77.55 159.3 C76.13 158.46 74.72 157.61 73.31 156.75 C72.56 156.3 71.8 155.84 71.03 155.37 C57.78 147.29 45.45 138.49 34 128 C33.5 127.55 33 127.09 32.49 126.63 C14.28 109.88 -0.74 84.59 -5 60 C-7.52 63.12 -9.27 66.38 -11 70 C-11.66 69.67 -12.32 69.34 -13 69 C-17.7 46.51 -13.46 22.62 -2 3 C-1.34 2.01 -0.68 1.02 0 0 Z " fill="#2B2520" transform="translate(198,213)"/>
<path d="M0 0 C-0.56 7.25 -1.46 14.34 -2.78 21.5 C-2.95 22.45 -3.12 23.41 -3.3 24.39 C-3.84 27.41 -4.39 30.42 -4.94 33.44 C-5.48 36.44 -6.02 39.45 -6.56 42.46 C-6.91 44.38 -7.26 46.3 -7.61 48.23 C-8.68 54.13 -9.69 60.04 -10.61 65.97 C-11 68 -11 68 -12 70 C-9.36 69.67 -6.72 69.34 -4 69 C-6.97 72.17 -10.08 74.89 -13.5 77.56 C-18.35 81.38 -22.86 85.48 -27.36 89.69 C-31.16 93.23 -35.02 96.67 -39 100 C-38.45 91.97 -37.26 84.14 -35.83 76.23 C-35.45 74.17 -35.08 72.1 -34.72 70.04 C-33.68 64.18 -32.62 58.32 -31.57 52.46 C-30.92 48.86 -30.28 45.25 -29.64 41.65 C-29.28 39.61 -28.91 37.58 -28.54 35.55 C-28.32 34.32 -28.1 33.1 -27.88 31.84 C-27.69 30.75 -27.49 29.67 -27.29 28.56 C-26.77 26.01 -26.77 26.01 -28 24 C-29.98 24 -31.96 24 -34 24 C-29.37 20.21 -24.56 16.67 -19.75 13.12 C-18.54 12.23 -18.54 12.23 -17.3 11.31 C-1.97 0 -1.97 0 0 0 Z " fill="#2B2520" transform="translate(923,195)"/>
<path d="M0 0 C0.99 0.5 0.99 0.5 2 1 C-38.03 32.03 -92.67 59.63 -144 62 C-145.28 62.06 -145.28 62.06 -146.58 62.12 C-161.09 62.47 -174.39 59.8 -188 55 C-184.76 53.92 -184.04 54.07 -180.88 54.88 C-136.63 64.17 -89.83 44.67 -50.32 26.52 C-47.55 25.25 -44.77 24 -41.99 22.75 C-28.1 16.46 -14.21 9.35 -1.58 0.79 C-1.06 0.53 -0.54 0.27 0 0 Z " fill="#2B2520" transform="translate(514,196)"/>
<path d="M0 0 C9.22 1.32 16.86 5.7 25 10 C24.53 11.14 24.53 11.14 24.04 12.3 C22.59 16.07 22.27 17.96 23 22 C25.69 25.64 28.83 28.78 32 32 C33.32 33.47 34.64 34.95 35.94 36.44 C36.48 37.05 37.03 37.67 37.59 38.31 C39 40 39 40 41 43 C37.59 41.98 34.54 40.78 31.44 39.06 C25.01 35.77 17.78 34.7 10.73 33.39 C4.66 32.18 -0.13 30.56 -5.5 27.44 C-11.86 23.76 -17.73 22.58 -25 22 C-22.58 19.58 -20.93 19.25 -17.65 18.34 C-16.57 18.04 -15.49 17.74 -14.38 17.43 C-12.67 16.97 -12.67 16.97 -10.94 16.5 C-9.28 16.04 -9.28 16.04 -7.58 15.57 C-1.42 13.87 4.75 12.32 11 11 C10.46 10.46 9.91 9.91 9.36 9.36 C6.24 6.24 3.12 3.12 0 0 Z " fill="#2B2520" transform="translate(322,43)"/>
<path d="M0 0 C0.02 0.56 0.04 1.13 0.06 1.71 C0.47 12.93 1.08 23.92 3 35 C2.45 34.58 1.89 34.16 1.32 33.72 C0.6 33.17 -0.13 32.63 -0.88 32.06 C-1.59 31.52 -2.31 30.97 -3.05 30.41 C-4.94 28.96 -4.94 28.96 -7 28 C-6.09 40.74 -4.59 52.73 -1 65 C-0.54 66.59 -0.54 66.59 -0.07 68.21 C0.6 70.48 1.28 72.74 2 75 C-11.43 62.83 -15.61 40.45 -16.66 23.17 C-17.02 12.52 -17.02 12.52 -14.2 8.31 C-11.88 6.5 -9.66 5.24 -7 4 C-5.82 3.21 -4.65 2.4 -3.5 1.56 C-1 0 -1 0 0 0 Z " fill="#2B2520" transform="translate(142,245)"/>
<path d="M0 0 C1.43 4.28 0.32 7.55 -0.62 11.88 C-0.78 12.68 -0.93 13.48 -1.09 14.31 C-3 23.18 -8.81 26.8 -16 31.62 C-16.7 32.1 -17.4 32.58 -18.12 33.07 C-21.68 35.49 -25.27 37.83 -29 40 C-28.4 37.14 -27.8 34.29 -27.19 31.44 C-27.02 30.64 -26.86 29.84 -26.69 29.01 C-24.03 16.73 -24.03 16.73 -19.43 12.81 C-17.95 11.92 -17.95 11.92 -16.44 11 C-15.38 10.34 -14.32 9.68 -13.23 9 C-12.16 8.34 -11.1 7.68 -10 7 C-8.07 5.68 -6.16 4.35 -4.25 3 C-3.43 2.42 -2.61 1.84 -1.77 1.25 C-1.18 0.84 -0.6 0.43 0 0 Z " fill="#2B2520" transform="translate(929,159)"/>
<path d="M0 0 C5.14 1.49 9.4 3.78 14 6.44 C22.18 11.09 30.53 15.33 39 19.42 C39.9 19.86 40.8 20.3 41.72 20.75 C42.52 21.14 43.33 21.52 44.15 21.92 C46 23 46 23 47 25 C42.11 26.29 37.22 27.57 32.32 28.85 C30.66 29.28 28.99 29.72 27.33 30.15 C24.94 30.79 22.54 31.41 20.14 32.03 C19.4 32.23 18.66 32.42 17.9 32.63 C14.19 33.58 10.84 34.24 7 34 C9.68 30.86 13.09 29.18 16.69 27.31 C17.29 26.99 17.9 26.67 18.53 26.34 C20.01 25.56 21.51 24.78 23 24 C19.87 20.86 16.72 17.73 13.57 14.61 C11.95 12.99 10.32 11.37 8.69 9.75 C7.85 8.92 7.02 8.09 6.15 7.24 C5.36 6.46 4.58 5.67 3.76 4.86 C3.04 4.14 2.32 3.43 1.57 2.69 C0 1 0 1 0 0 Z " fill="#2B2520" transform="translate(291,76)"/>
<path d="M0 0 C0.83 0 1.67 0 2.52 0.01 C3.46 0.01 4.41 0.01 5.37 0.01 C6.4 0.01 7.42 0.02 8.47 0.02 C9.52 0.02 10.56 0.03 11.63 0.03 C14.97 0.03 18.32 0.05 21.66 0.06 C23.92 0.06 26.18 0.07 28.44 0.07 C33.99 0.08 39.54 0.1 45.1 0.12 C31.63 9.1 10.27 14.96 -5.9 14.12 C-5.43 11.97 -4.95 9.83 -4.47 7.68 C-4.2 6.49 -3.93 5.29 -3.66 4.06 C-2.66 0.17 -2.66 0.17 0 0 Z " fill="#2B2520" transform="translate(1095.904556274414,229.87974548339844)"/>
<path d="M0 0 C-1.75 2.59 -3.25 3.84 -6.33 4.49 C-9.22 4.77 -12.09 4.91 -15 5 C-15.88 5.04 -16.76 5.08 -17.67 5.12 C-25.24 5.31 -32.55 4.22 -40 3 C-40 2.67 -40 2.34 -40 2 C-39.09 2.02 -39.09 2.02 -38.16 2.04 C-27.06 2.15 -15.72 2.02 -4.92 -0.7 C-3 -1 -3 -1 0 0 Z " fill="#2B2520" transform="translate(429,324)"/>
<path d="M0 0 C6.6 0 13.2 0 20 0 C20 0.33 20 0.66 20 1 C22.48 1.5 22.48 1.5 25 2 C25 2.33 25 2.66 25 3 C16.49 3.31 8.4 2.37 0 1 C0 0.67 0 0.34 0 0 Z " fill="#2B2520" transform="translate(389,326)"/>
<path d="M0 0 C5 3.33 10 6.67 15 10 C13.02 10.99 13.02 10.99 11 12 C9.73 10.9 8.46 9.79 7.19 8.69 C6.48 8.07 5.77 7.46 5.04 6.82 C1.38 3.55 1.38 3.55 0 2 C0 1.34 0 0.68 0 0 Z " fill="#2B2520" transform="translate(300,327)"/>
<path d="M0 0 C4.67 4 9.33 8 14 12 C13.01 12.5 13.01 12.5 12 13 C11.67 13.66 11.34 14.32 11 15 C9.73 13.59 8.46 12.17 7.19 10.75 C6.48 9.96 5.77 9.17 5.04 8.36 C0 2.54 0 2.54 0 0 Z " fill="#2B2520" transform="translate(257,320)"/>
<path d="M0 0 C1.44 0.45 2.88 0.91 4.31 1.38 C5.11 1.63 5.91 1.89 6.74 2.15 C9 3 9 3 12 5 C11.01 5.99 10.02 6.98 9 8 C7.5 6.86 6 5.71 4.5 4.56 C3.66 3.92 2.83 3.29 1.97 2.63 C1.32 2.09 0.67 1.55 0 1 C0 0.67 0 0.34 0 0 Z " fill="#2B2520" transform="translate(0,114)"/>
<path d="M0 0 C0.99 0.33 1.98 0.66 3 1 C2.01 1 1.02 1 0 1 C0 0.67 0 0.34 0 0 Z " fill="#2B2520" transform="translate(156,377)"/>
<path d="M0 0 C0.99 0.33 1.98 0.66 3 1 C2.01 1 1.02 1 0 1 C0 0.67 0 0.34 0 0 Z " fill="#2B2520" transform="translate(282,374)"/>
</svg>
