<?xml version="1.0" encoding="UTF-8"?>
<!-- Generator: https://ezgif.com/png-to-svg -->
<svg version="1.1" xmlns="http://www.w3.org/2000/svg" width="1026" height="450">
<path d="M0 0 C15.28 -0.77 26.45 0.97 38.98 10.55 C41.03 12.18 41.03 12.18 44 13 C44 12.34 44 11.68 44 11 C59.72 5.78 73.24 3.58 89.47 6.93 C93.98 7.86 97.54 8.49 102 7 C120.58 9.99 138.67 19.67 152 33 C151.64 35.83 150.9 38.29 150 41 C149.01 48.79 152.37 56.37 156.9 62.62 C165.81 72.69 178.22 79.69 189.26 87.14 C199.87 94.33 210.26 101.66 220 110 C221.3 111.07 221.3 111.07 222.63 112.16 C223.46 112.85 224.28 113.54 225.12 114.25 C225.85 114.85 226.57 115.46 227.32 116.08 C229.32 118.36 229.66 120.02 230 123 C228.89 122.83 227.77 122.67 226.62 122.5 C218.99 121.56 211.59 121.88 204 123 C204.12 120.75 204.12 120.75 205 118 C208.65 115 210.22 114 215 114 C215 113.34 215 112.68 215 112 C213.32 112.13 213.32 112.13 211.61 112.25 C210.13 112.36 208.66 112.46 207.19 112.56 C206.08 112.65 206.08 112.65 204.95 112.73 C201.63 112.96 199.19 113.06 196 112 C196.33 112.99 196.66 113.98 197 115 C196.99 116.46 196.95 117.92 196.88 119.38 C196.82 123.42 197.45 125.74 200 129 C201.59 130.59 203.25 130.17 205.44 130.19 C206.24 130.2 207.04 130.22 207.87 130.23 C210.22 130.2 210.22 130.2 212 128 C212.99 128 213.98 128 215 128 C214.65 130.61 214.3 132.55 212.81 134.75 C210.32 136.47 207.98 136.67 205 137 C206.65 137.66 208.3 138.32 210 139 C210 139.99 210 140.98 210 142 C210.95 141.5 211.9 141.01 212.88 140.5 C216 139 216 139 218 139 C216.62 142.34 215.18 144.22 212 146 C209.88 145.69 209.88 145.69 208 145 C206.01 144.88 206.01 144.88 204.29 145.66 C185.34 152.85 167.69 145.57 150.31 137.88 C148.91 137.23 148.91 137.23 147.47 136.57 C138.06 132.31 128.34 128.5 118 131 C116.72 132.98 116.72 132.98 116 135 C117.74 135.06 117.74 135.06 119.52 135.11 C134.54 135.69 146.65 139.02 160.55 144.78 C170.53 148.84 179.37 150.32 190.12 150.12 C191.08 150.12 192.04 150.11 193.02 150.1 C195.35 150.07 197.67 150.04 200 150 C198.62 153.22 198.14 153.92 194.94 155.75 C180.03 160.47 165.43 155.25 151.14 150.92 C146.28 149.5 141.37 148.29 136.44 147.12 C135.6 146.92 134.76 146.72 133.9 146.51 C111.94 141.34 89.56 142.16 70 154 C61.01 160.75 54.45 168.28 51 179 C51.56 178.29 52.11 177.57 52.69 176.84 C57.38 170.95 62.05 165.63 68 161 C68.85 160.33 68.85 160.33 69.73 159.65 C71.31 158.5 71.31 158.5 74 157 C74.99 157.33 75.98 157.66 77 158 C76.52 158.43 76.03 158.85 75.53 159.29 C66.65 167.57 60.91 177.25 58 189 C57.65 189.85 57.3 190.69 56.94 191.56 C53.7 199.99 53.72 208.22 53.81 217.12 C53.82 219.07 53.82 219.07 53.83 221.06 C53.87 227.42 54.05 233.68 54.69 240 C56.39 261.4 49.23 283.21 35.73 299.78 C33.55 302.25 31.3 304.64 29 307 C28.37 307.67 27.74 308.34 27.09 309.03 C23.66 312.6 20.28 315.51 16 318 C15.34 318 14.68 318 14 318 C15.46 314.57 17.32 312.61 20.06 310.12 C25.88 304.44 29.88 297.95 34 291 C34.43 290.3 34.87 289.61 35.31 288.89 C39 282.39 42 272.47 42 265 C41.53 266.09 41.05 267.18 40.57 268.3 C36.31 277.84 31.77 285.97 25 294 C23.92 295.31 23.92 295.31 22.82 296.64 C7.67 314.24 -13.61 326.2 -36 332 C-39.44 332.13 -39.44 332.13 -42 332 C-39.41 328.12 -36.38 327.38 -32.19 325.81 C-18.24 320.29 -0.58 310.87 8 298 C8.66 298 9.32 298 10 298 C10.24 297.45 10.49 296.9 10.74 296.33 C12.26 293.53 14.13 291.24 16.12 288.75 C25.03 277.19 30.22 263.66 35 250 C35.33 249.09 35.66 248.18 36 247.24 C37.56 242.82 38.5 238.66 39 234 C37.35 237.96 35.7 241.92 34 246 C33.34 245.67 32.68 245.34 32 245 C32 242.69 32 240.38 32 238 C31.67 238 31.34 238 31 238 C30.8 238.97 30.61 239.94 30.41 240.94 C27.64 253.64 22.76 265.49 15 276 C14.34 276 13.68 276 13 276 C13.43 274.78 13.87 273.57 14.31 272.31 C14.89 270.55 15.45 268.77 16 267 C16.43 265.62 16.43 265.62 16.87 264.21 C21.65 246.57 19 229.29 13.84 212.11 C9.66 197.82 9.04 185.61 16 172 C21.99 161.22 30.41 154.19 41 148 C41.66 148 42.32 148 43 148 C41.35 151.58 39.22 154.74 37 158 C30.06 168.41 27.26 178.54 27 191 C27.33 191.33 27.66 191.66 28 192 C27.99 193.67 27.94 195.33 27.88 197 C27.78 205.19 29.41 213 31 221 C31.33 221 31.66 221 32 221 C32.5 225.45 32.5 225.45 33 230 C33.12 222.36 32.5 214.94 31.71 207.35 C30.04 190.41 30.22 172.76 41.38 158.93 C41.91 158.3 42.45 157.66 43 157 C43.79 156 43.79 156 44.59 154.97 C50.61 147.59 58.07 142.3 67 139 C53.72 139.31 38.07 143.25 28.25 152.62 C27.51 153.41 26.76 154.19 26 155 C25.21 155.44 24.42 155.88 23.61 156.33 C15.95 161.22 11.76 170.63 9 179 C8.34 178.67 7.68 178.34 7 178 C6.23 163.53 8.36 148.96 15 136 C15.49 135.02 15.98 134.04 16.49 133.02 C20.9 124.86 26.63 118.63 33 112 C34.37 110.49 35.72 108.97 37.06 107.44 C37.59 106.84 38.12 106.24 38.66 105.62 C40.19 103.83 40.19 103.83 42 101 C42.66 101 43.32 101 44 101 C44.15 101.64 44.29 102.28 44.45 102.94 C45.92 108.63 47.6 112.37 51.79 116.53 C53 118 53 118 53 121 C52.32 121.09 51.64 121.17 50.95 121.26 C42.71 122.51 35.2 124.57 29.38 130.81 C28.92 131.53 28.47 132.26 28 133 C28.48 132.66 28.97 132.32 29.47 131.98 C40.69 124.51 52.17 125.42 65.14 126.78 C70.42 127.19 75.71 127.08 81 127 C79.68 126.34 78.36 125.68 77 125 C77.99 123.51 77.99 123.51 79 122 C78.31 121.97 77.62 121.95 76.91 121.92 C67.99 121.38 61.24 119.82 55.06 113.06 C51.03 107.99 49.49 103.91 49.61 97.42 C50.45 92.26 53.34 87.66 57 84 C57.99 84 58.98 84 60 84 C59.67 87.3 59.34 90.6 59 94 C59.19 92.87 59.37 91.73 59.56 90.56 C60.9 85.04 64.35 81.21 68 77 C60.33 79.11 55.23 80.94 50 87 C49.34 87 48.68 87 48 87 C48.29 85.33 48.58 83.67 48.88 82 C49.04 81.07 49.2 80.14 49.37 79.19 C49.83 76.87 50.39 74.57 51.02 72.3 C52.28 67.33 52.53 62.35 52.88 57.25 C53.53 48.9 54.69 41.74 58 34 C58.67 32.33 59.33 30.67 60 29 C46.66 35.7 38.44 45.01 32.69 58.88 C30.78 64.75 30.03 70.98 28.98 77.04 C25.9 94.11 20.52 107.58 7 119 C6.34 119 5.68 119 5 119 C6.31 115.46 7.9 112.43 9.94 109.25 C14.53 101.69 16.3 94.76 17 86 C16.66 86.96 16.32 87.91 15.97 88.89 C9.99 105.08 0.98 117.17 -14.85 124.76 C-24.93 129.36 -34.12 129.24 -45 129 C-45.33 128.01 -45.66 127.02 -46 126 C-45.43 125.89 -44.85 125.77 -44.26 125.65 C-26.22 121.95 -12.46 117.06 -1.56 101.31 C4.15 91.99 8.55 81.36 12 71 C11.29 71.74 11.29 71.74 10.57 72.5 C9.95 73.14 9.33 73.78 8.69 74.44 C8.07 75.08 7.46 75.71 6.82 76.37 C5 78 5 78 2 79 C2.66 75.14 4.48 72.4 6.56 69.12 C12.5 59.68 18.17 50.07 23 40 C22.34 40 21.68 40 21 40 C21 40.66 21 41.32 21 42 C19.34 43.02 17.68 44.02 16 45 C15.5 45.99 15.5 45.99 15 47 C14.34 47 13.68 47 13 47 C12.67 47.81 12.67 47.81 12.33 48.64 C4.63 62.27 -12.5 72.88 -27 77 C-30.05 77.56 -32.89 77.84 -36 78 C-36.33 77.34 -36.66 76.68 -37 76 C-36.13 75.52 -35.26 75.05 -34.36 74.56 C-24.2 68.7 -17.78 61.46 -11 52 C-6.82 46.19 -2.58 41.54 3 37 C0.39 38.26 -2.21 39.54 -4.81 40.81 C-5.55 41.17 -6.29 41.53 -7.05 41.89 C-7.76 42.24 -8.47 42.6 -9.21 42.96 C-9.86 43.28 -10.52 43.6 -11.19 43.93 C-13.12 45.07 -14.45 46.39 -16 48 C-17.32 48.69 -18.66 49.35 -20 50 C-22.01 51.26 -24 52.53 -26 53.81 C-34.43 59.08 -42.93 63.42 -53 64 C-52 61 -52 61 -50.32 59.89 C-49.6 59.54 -48.87 59.18 -48.12 58.81 C-39.72 54.35 -32.54 48.78 -25.95 41.94 C-20.77 36.79 -10.62 27 -3 27 C-3 26.34 -3 25.68 -3 25 C-10.76 27.86 -17.39 31.37 -24.19 36.07 C-35.01 43.48 -46.71 48.25 -60 47 C-70.34 44.99 -80.37 40.41 -86.75 31.69 C-88 29 -88 29 -87 26 C-86.45 26.54 -85.91 27.09 -85.35 27.64 C-76.19 36.33 -67.56 38.19 -55 38 C-43.54 36.8 -33.53 32.35 -24 26 C-25.47 26.05 -25.47 26.05 -26.96 26.11 C-34.59 26.26 -40.87 26 -48 23 C-48 22.01 -48 21.02 -48 20 C-47.41 20.1 -46.81 20.19 -46.2 20.29 C-35.61 21.7 -27.28 19.27 -17.54 15.26 C-4 9.69 8.59 8.66 23 11 C15.91 5.65 8.57 4.37 0 3 C0 2.01 0 1.02 0 0 Z M-2 25 C2.46 24.5 2.46 24.5 7 24 C7 23.67 7 23.34 7 23 C3.03 22.78 1.77 23.12 -2 25 Z M35 29 C31.76 30.66 31.76 30.66 29 33 C29 33.99 29 34.98 29 36 C31.97 34.02 34.94 32.04 38 30 C37.01 29.67 36.02 29.34 35 29 Z M113 29 C112.67 30.32 112.34 31.64 112 33 C111.22 33.19 110.44 33.39 109.63 33.59 C108.62 33.85 107.61 34.11 106.56 34.38 C105.05 34.76 105.05 34.76 103.5 35.15 C100.84 35.73 100.84 35.73 100 38 C100.65 37.9 101.3 37.81 101.98 37.71 C110.04 36.69 114.8 38.23 122 42 C122.98 38.87 123.19 37.44 121.88 34.38 C119.81 31.75 117.99 30.46 115 29 C114.34 29 113.68 29 113 29 Z M98 51 C97.67 51.99 97.34 52.98 97 54 C96.32 54.08 95.64 54.16 94.94 54.25 C91.13 55.22 88.36 56.96 85 59 C85 59.33 85 59.66 85 60 C85.65 60.17 86.3 60.34 86.98 60.52 C92.41 62.02 96.46 63.68 101 67 C104.12 68.04 106.27 68.11 109.54 68.1 C111.15 68.09 111.15 68.09 112.79 68.09 C113.91 68.08 115.03 68.07 116.19 68.06 C117.32 68.06 118.45 68.05 119.62 68.05 C122.41 68.04 125.21 68.02 128 68 C128 64.78 127.66 64.11 125.95 61.53 C125.52 60.88 125.09 60.22 124.64 59.55 C123.95 58.54 123.95 58.54 123.25 57.5 C122.81 56.82 122.36 56.15 121.91 55.45 C118.64 50.54 118.64 50.54 114 47 C107.89 46.29 103.01 47.26 98 51 Z M89 72 C89.99 73.32 90.98 74.64 92 76 C92.99 75.67 93.98 75.34 95 75 C92.33 72.66 92.33 72.66 89 72 Z M97 77 C97 77.99 97 78.98 97 80 C99.94 82.21 99.94 82.21 103 84 C102.67 84.99 102.34 85.98 102 87 C107.14 86.56 110.75 86.18 115 83 C115 82.67 115 82.34 115 82 C113.93 81.84 113.93 81.84 112.84 81.67 C107.12 80.72 102.21 79.55 97 77 Z M60 99 C61 101 61 101 61 101 Z M48 183 C49 185 49 185 49 185 Z M47 185 C48 187 48 187 48 187 Z M43 258 C44 261 44 261 44 261 Z " fill="#d97706" transform="translate(794,111)"/>
<path d="M0 0 C1.29 1.56 1.29 1.56 1.29 3.56 C1.83 3.41 2.37 3.27 2.93 3.12 C5.4 2.45 7.88 1.78 10.36 1.12 C11.2 0.89 12.05 0.66 12.92 0.42 C17.71 -0.85 22.37 -1.86 27.29 -2.44 C23.51 -6.6 19.3 -9.63 14.68 -12.8 C12.1 -14.57 9.62 -16.35 7.29 -18.44 C7.29 -19.1 7.29 -19.76 7.29 -20.44 C10.26 -21.43 13.23 -22.42 16.29 -23.44 C30.29 -8.01 30.29 -8.01 30.29 -2.44 C31.52 -2.49 32.74 -2.53 34 -2.58 C52.68 -3.07 68.57 0.24 85.29 8.56 C86.03 8.92 86.77 9.29 87.53 9.67 C89.45 10.63 91.37 11.59 93.29 12.56 C80.69 -2.35 68.02 -15.9 51.92 -27.09 C51.38 -27.54 50.85 -27.98 50.29 -28.44 C50.29 -29.1 50.29 -29.76 50.29 -30.44 C57.15 -31.21 61.39 -30.5 66.94 -26.35 C67.71 -25.72 68.49 -25.09 69.29 -24.44 C70.2 -23.72 71.12 -23 72.05 -22.25 C74.83 -20.01 77.56 -17.73 80.29 -15.44 C80.96 -14.9 81.62 -14.37 82.3 -13.81 C86.82 -10.09 90.55 -5.94 94.29 -1.44 C94.99 -0.63 94.99 -0.63 95.69 0.19 C104.41 10.37 111.61 20.95 118.29 32.56 C119.08 33.9 119.87 35.24 120.66 36.59 C128.25 49.63 135.02 63.11 139.86 77.43 C140.11 78.18 140.36 78.92 140.62 79.69 C141.81 83.4 142.59 86.65 142.29 90.56 C138.83 87.78 137.47 83.88 135.73 79.93 C122.13 50.27 102.98 24.17 71.63 12.16 C54.2 5.89 27.58 1.54 9.96 9.63 C9.41 9.94 8.86 10.24 8.29 10.56 C8.8 11.36 9.31 12.16 9.83 12.98 C17.39 25.03 23.1 36.97 27.29 50.56 C25.31 52.04 25.31 52.04 23.29 53.56 C22.8 52.54 22.3 51.53 21.79 50.48 C16.06 38.83 10.36 27.57 1.89 17.62 C0.29 15.56 0.29 15.56 -0.71 12.56 C-14.02 16.26 -25.11 22.74 -35.71 31.56 C-36.57 32.2 -37.44 32.84 -38.33 33.5 C-41.26 36.04 -43.67 38.88 -46.16 41.85 C-47.71 43.56 -47.71 43.56 -49.71 44.56 C-48.12 34.95 -36.53 25.3 -29.16 19.58 C-24.5 16.26 -19.72 13.3 -14.71 10.56 C-13.39 9.81 -12.08 9.06 -10.77 8.31 C-9.25 7.44 -9.25 7.44 -7.71 6.56 C-28.26 -13.46 -55.15 -25.75 -84.02 -26.75 C-104.24 -26.22 -124.06 -19.58 -138.27 -4.77 C-150.77 9.79 -153.48 24.94 -152.71 43.56 C-151.8 55.28 -144.42 67.94 -135.71 75.56 C-132.84 77.61 -129.92 79.13 -126.71 80.56 C-125.9 80.95 -125.09 81.34 -124.25 81.75 C-114.68 85.87 -103.61 86.21 -93.71 82.93 C-86.54 79.88 -81.44 75.7 -76.71 69.56 C-75.72 69.23 -74.73 68.9 -73.71 68.56 C-76.72 77.37 -84.08 83.99 -92.11 88.38 C-104.06 93.81 -115.37 93.78 -127.71 89.56 C-137.42 85.41 -146.56 78.95 -151.71 69.56 C-150.06 80.68 -142.49 90.93 -135.71 99.56 C-138.71 99.56 -138.71 99.56 -140.29 98.38 C-156.23 82.21 -165 61.5 -164.88 38.82 C-164.58 18.21 -157.27 0.99 -142.77 -13.63 C-141.42 -14.91 -140.07 -16.18 -138.71 -17.44 C-138.05 -18.1 -137.39 -18.76 -136.71 -19.44 C-163.42 -4.75 -175.2 15.05 -183.71 43.56 C-184.04 43.56 -184.37 43.56 -184.71 43.56 C-184.92 37.19 -184.37 31.85 -182.58 25.75 C-182.24 24.57 -182.24 24.57 -181.9 23.37 C-175.18 1.04 -159.08 -17.39 -138.71 -28.44 C-90.56 -53.43 -36.66 -36.36 0 0 Z M-153.71 66.56 C-152.71 68.56 -152.71 68.56 -152.71 68.56 Z " fill="#d97706" transform="translate(284.70703125,92.44140625)"/>
<path d="M0 0 C0.99 1.49 0.99 1.49 2 3 C0.86 4.27 0.86 4.27 -0.31 5.56 C-3.05 8.82 -4.49 12.04 -6 16 C-5.5 15.5 -5.5 15.5 -5 15 C0 11.34 5.23 8.18 11.56 7.88 C22.63 12.98 28.02 26.37 32 37 C33.29 40.97 34.28 44.89 35 49 C35.16 49.88 35.32 50.75 35.49 51.65 C35.91 55.8 35.71 58.05 33.16 61.45 C30.86 63.76 28.48 65.89 26 68 C24.97 69.01 23.94 70.03 22.94 71.06 C22.3 71.7 21.66 72.34 21 73 C24.75 71.18 28.3 69.07 31.88 66.93 C34 66 34 66 37 67 C36.63 82.6 35.19 98.86 28 113 C27.65 113.71 27.31 114.42 26.95 115.15 C25.78 117.18 24.84 118.55 23 120 C18.83 121.03 15.29 120.48 11.31 119 C8.53 116.6 6.53 113.94 4.43 110.94 C3.08 109.11 1.65 107.56 0 106 C0.92 103.19 1.83 100.41 2.97 97.68 C4.09 94.77 4.88 91.89 5.62 88.88 C5.89 87.84 6.15 86.81 6.41 85.74 C9.56 71.01 7.47 47.93 -0.47 34.97 C-3.2 31.45 -6.54 28.76 -10 26 C-10.66 25.34 -11.32 24.68 -12 24 C-20.43 25.98 -27.02 27.6 -31.88 35.25 C-32.6 36.49 -33.31 37.74 -34 39 C-35.65 38.67 -37.3 38.34 -39 38 C-38.49 38.56 -37.98 39.11 -37.45 39.69 C-36 42 -36 42 -36.11 44.38 C-36.32 45.24 -36.53 46.11 -36.75 47 C-39.1 57.96 -39.14 68.85 -39 80 C-41.34 80.63 -41.34 80.63 -44 81 C-46.78 78.75 -48.63 76.7 -50.31 73.54 C-52.32 70.52 -54.26 69.27 -57.38 67.44 C-65.16 62.8 -65.16 62.8 -68 60 C-70.45 45.15 -61.5 27.83 -53.54 15.79 C-46.11 6.29 -35.39 1.06 -23.94 -1.75 C-15.97 -2.43 -7.68 -2.49 0 0 Z M-11 21 C-10 23 -10 23 -10 23 Z " fill="#d97706" transform="translate(373,137)"/>
<path d="M0 0 C4 3.6 5.79 6.59 6.26 12 C6.26 13.08 6.26 14.17 6.27 15.29 C6.27 17.07 6.27 17.07 6.27 18.89 C6.27 20.12 6.26 21.36 6.25 22.62 C6.26 24.49 6.26 24.49 6.27 26.38 C6.27 27.57 6.27 28.75 6.27 29.98 C6.26 31.06 6.26 32.14 6.26 33.26 C6 36 6 36 4 39 C1.38 39.19 1.38 39.19 -1 39 C-0.34 39.66 0.32 40.32 1 41 C0.67 45.06 -0.92 47.9 -3.06 51.31 C-3.61 52.2 -4.16 53.08 -4.72 53.99 C-5.14 54.65 -5.57 55.32 -6 56 C-5.16 55.99 -4.32 55.99 -3.46 55.98 C-0.36 55.97 2.75 55.95 5.85 55.95 C7.86 55.94 9.87 55.92 11.87 55.91 C13.76 55.91 13.76 55.91 15.68 55.9 C17.42 55.89 17.42 55.89 19.2 55.89 C22 56 22 56 24 57 C23.67 53.37 23.34 49.74 23 46 C23.66 45.67 24.32 45.34 25 45 C25.66 45.33 26.32 45.66 27 46 C26.67 45.3 26.35 44.61 26.01 43.89 C24.88 40.66 24.77 38.16 24.81 34.75 C24.82 33.69 24.83 32.64 24.83 31.55 C25 29 25 29 26 28 C27.68 27.9 29.37 27.87 31.06 27.87 C32.08 27.87 33.11 27.86 34.17 27.86 C35.79 27.87 35.79 27.87 37.44 27.88 C38.51 27.87 39.59 27.87 40.7 27.86 C42.24 27.87 42.24 27.87 43.81 27.87 C44.76 27.87 45.7 27.87 46.68 27.87 C49 28 49 28 51 29 C51 37.91 51 46.82 51 56 C54.3 56 57.6 56 61 56 C63.64 56.33 66.28 56.66 69 57 C69 62.61 69 68.22 69 74 C65 72 65 72 62.44 69.88 C60.12 67.7 60.12 67.7 57 68 C60.2 71.28 63.33 74.47 66.94 77.31 C67.62 77.87 68.3 78.43 69 79 C69 79.66 69 80.32 69 81 C63.06 81 57.12 81 51 81 C51 83.31 51 85.62 51 88 C49.03 90 49.03 90 46.5 91.44 C45.25 92.18 45.25 92.18 43.97 92.93 C43.32 93.29 42.67 93.64 42 94 C45.03 93.41 48 92.75 51 92 C51 98.27 51 104.54 51 111 C44.07 111 37.14 111 30 111 C31 107 31 107 32 106 C28.7 105.67 25.4 105.34 22 105 C22 97.41 22 89.82 22 82 C18.7 82.01 15.39 82.02 11.99 82.04 C8.75 82.04 5.5 82.05 2.26 82.05 C0.03 82.06 -2.2 82.07 -4.44 82.08 C-28.22 82.17 -28.22 82.17 -40 81 C-41.75 57.65 -41.75 57.65 -33.52 47.86 C-32.69 46.92 -31.86 45.97 -31 45 C-29.53 42.85 -28.09 40.69 -26.69 38.5 C-20.2 28.6 -20.2 28.6 -17 27 C-16.59 25.96 -16.59 25.96 -16.18 24.9 C-14.64 21.12 -12.48 17.98 -10.19 14.62 C-9.76 13.99 -9.34 13.36 -8.9 12.7 C-6 8.42 -3.02 4.2 0 0 Z " fill="#d97706" transform="translate(460,165)"/>
<path d="M0 0 C0.99 0.33 1.98 0.66 3 1 C5.74 7.66 5.09 14.36 4.83 21.44 C4.82 22.34 4.8 23.24 4.78 24.16 C4.75 24.97 4.72 25.78 4.69 26.62 C4.92 29.62 4.92 29.62 8 34 C4.04 39.94 0.08 45.88 -4 52 C5.57 52.33 15.14 52.66 25 53 C25.33 44.09 25.66 35.18 26 26 C30.13 23.94 35.47 24.77 40 24.75 C41.68 24.72 41.68 24.72 43.39 24.69 C44.46 24.68 45.53 24.68 46.62 24.67 C47.61 24.66 48.59 24.65 49.6 24.64 C50.39 24.76 51.18 24.88 52 25 C54.3 28.45 54.24 29.71 54.2 33.76 C54.19 34.88 54.18 36 54.18 37.15 C54.15 38.9 54.15 38.9 54.12 40.69 C54.12 41.87 54.11 43.05 54.1 44.26 C54.07 47.17 54.04 50.09 54 53 C55.98 53 57.96 53 60 53 C60.33 53.99 60.66 54.98 61 56 C61.56 55.67 62.11 55.34 62.69 55 C65 54 65 54 70 54 C70 61.92 70 69.84 70 78 C56.38 79.12 56.38 79.12 53 78 C53.04 78.87 53.07 79.75 53.11 80.65 C53.24 83.88 53.36 87.11 53.48 90.34 C53.54 91.74 53.59 93.13 53.65 94.53 C53.73 96.54 53.8 98.55 53.88 100.56 C53.95 102.37 53.95 102.37 54.02 104.22 C54 107 54 107 53 108 C51.01 108.1 49.02 108.13 47.03 108.13 C45.82 108.13 44.61 108.14 43.36 108.14 C42.09 108.13 40.81 108.13 39.5 108.12 C38.23 108.13 36.95 108.13 35.64 108.14 C34.43 108.14 33.22 108.13 31.97 108.13 C30.85 108.13 29.73 108.13 28.58 108.13 C26 108 26 108 25 107 C24.09 102.15 24.34 100.05 27.01 95.8 C29.23 92.78 31.59 89.87 34 87 C33.67 86.67 33.34 86.34 33 86 C32.59 86.43 32.18 86.87 31.76 87.31 C31.22 87.87 30.68 88.43 30.12 89 C29.59 89.56 29.06 90.11 28.51 90.69 C27 92 27 92 25 92 C24.67 87.71 24.34 83.42 24 79 C11.46 79 -1.08 79 -14 79 C-14.33 78.01 -14.66 77.02 -15 76 C-15.57 76.33 -16.13 76.65 -16.72 76.99 C-19.22 78.1 -20.83 78.23 -23.55 78.2 C-24.81 78.19 -24.81 78.19 -26.11 78.18 C-26.98 78.16 -27.85 78.14 -28.75 78.12 C-30.08 78.11 -30.08 78.11 -31.44 78.1 C-33.63 78.07 -35.81 78.04 -38 78 C-39.3 56.27 -39.3 56.27 -34.81 50.06 C-33.56 48.69 -32.29 47.33 -31 46 C-30.26 44.72 -29.53 43.43 -28.81 42.12 C-25.91 37.99 -21.56 37.24 -16.89 35.91 C-13.33 34.79 -10.92 33.27 -8 31 C-9.2 31.33 -10.39 31.66 -11.62 32 C-15.16 32.89 -18.34 33.18 -22 33 C-18.55 27.06 -14.92 21.33 -10.95 15.74 C-8.62 12.47 -6.34 9.17 -4.06 5.88 C-3.28 4.75 -2.5 3.62 -1.72 2.49 C-1.15 1.67 -0.59 0.85 0 0 Z M55 63 C54.01 64.49 54.01 64.49 53 66 C53.99 65.67 54.98 65.34 56 65 C55.67 64.34 55.34 63.68 55 63 Z M48 69 C47.01 70.49 47.01 70.49 46 72 C46.99 71.67 47.98 71.34 49 71 C48.67 70.34 48.34 69.68 48 69 Z M43 74 C41.97 75.31 40.97 76.65 40 78 C40.99 78 41.98 78 43 78 C43.33 76.68 43.66 75.36 44 74 C43.67 74 43.34 74 43 74 Z " fill="#d97706" transform="translate(224,168)"/>
<path d="M0 0 C0 0.33 0 0.66 0 1 C-6.01 0.4 -11.88 -0.47 -17.81 -1.6 C-40.55 -4.47 -62.5 5.19 -80.2 18.68 C-93.11 29.31 -102.94 45.08 -112.41 58.74 C-114.17 61.24 -115.97 63.69 -117.81 66.12 C-118.38 66.87 -118.94 67.62 -119.52 68.38 C-120.01 68.92 -120.5 69.45 -121 70 C-121.66 70 -122.32 70 -123 70 C-123.24 70.57 -123.49 71.13 -123.74 71.71 C-130.73 84.38 -147.86 95.05 -161 100 C-161 99.01 -161 98.02 -161 97 C-158.95 95.27 -158.95 95.27 -156.12 93.38 C-150.33 89.31 -145.15 84.85 -140 80 C-139.4 79.45 -138.79 78.9 -138.17 78.33 C-126.49 67.28 -117.56 52.66 -108.55 39.41 C-104.24 33.09 -99.77 27.1 -94.85 21.24 C-92.89 18.94 -92.89 18.94 -91 16 C-100.13 22.49 -109.15 29.06 -117.94 36 C-154.5 64.74 -195.47 85.81 -243 85 C-245.01 84.73 -247.02 84.43 -249 84 C-249 83.34 -249 82.68 -249 82 C-246.28 81.26 -243.71 80.82 -240.9 80.61 C-207.96 77.85 -180.57 67.27 -152 51 C-152.8 51.33 -152.8 51.33 -153.61 51.67 C-180.85 62.88 -208.75 68.27 -236.95 56.84 C-241.09 55.04 -244.94 52.86 -248.75 50.44 C-249.32 50.07 -249.89 49.71 -250.48 49.34 C-254 46.98 -256.52 44.42 -259 41 C-254.74 42.33 -250.82 43.98 -246.81 45.94 C-220.63 58.11 -191.76 55.59 -165.26 46.09 C-157.6 43.17 -150.43 39.32 -143.3 35.29 C-140.81 33.89 -138.3 32.54 -135.79 31.19 C-129.28 27.64 -122.92 23.86 -116.56 20.06 C-113.15 18.03 -109.73 15.99 -106.31 13.96 C-104.14 12.68 -101.99 11.39 -99.83 10.1 C-71.07 -6.98 -30.9 -19.49 0 0 Z " fill="#d97706" transform="translate(576,302)"/>
<path d="M0 0 C-1.43 4.5 -3.93 7.51 -7.12 10.88 C-7.62 11.4 -8.12 11.93 -8.63 12.47 C-10.07 13.99 -11.53 15.5 -13 17 C-13.69 17.71 -14.37 18.43 -15.08 19.16 C-24.42 28.1 -36.71 30.08 -49 32 C-29.55 35.18 -10.8 34.94 5.81 23 C9.26 20.39 12.63 17.71 16 15 C16 24.98 7.14 33.49 0.65 40.41 C-1.79 42.79 -4.29 44.93 -7 47 C0.74 43.42 7.5 39.54 14 34 C14.33 34.99 14.66 35.98 15 37 C9.41 47.45 -0.65 54.91 -11.69 58.81 C-28.04 63.66 -43.64 59.98 -59.25 54.44 C-69.11 50.94 -78.59 49.58 -89 49 C-87 46 -87 46 -85.34 45.32 C-82.08 44.87 -78.85 44.81 -75.56 44.81 C-74.47 44.81 -74.47 44.81 -73.36 44.81 C-63.86 44.9 -54.43 45.96 -45 47 C-45.59 46.87 -46.19 46.74 -46.8 46.6 C-47.59 46.43 -48.38 46.25 -49.2 46.07 C-50.02 45.89 -50.85 45.7 -51.7 45.52 C-53.34 45.15 -54.98 44.76 -56.62 44.37 C-62.62 43.06 -68.5 42.79 -74.62 42.75 C-75.41 42.74 -76.2 42.73 -77.01 42.72 C-85.86 42.77 -93.29 44.69 -101.12 48.75 C-101.82 49.1 -102.52 49.46 -103.23 49.82 C-108.1 52.37 -112.09 55.09 -116 59 C-117 60 -118 61 -119 62 C-120 59 -120 59 -118.95 56.69 C-108.43 40.08 -94.01 29.21 -75 24 C-68.08 22.49 -61.14 21.64 -54.09 20.96 C-33.9 19 -20.45 14.23 -4.47 1.76 C-2 0 -2 0 0 0 Z " fill="#d97706" transform="translate(783,158)"/>
<path d="M0 0 C0.66 0 1.32 0 2 0 C2.01 0.8 2.02 1.61 2.03 2.44 C2.52 36.34 7.63 66.92 31 93 C31.52 92 32.04 91 32.57 89.96 C39.44 76.85 39.44 76.85 44 71 C44.99 71.5 44.99 71.5 46 72 C45.46 73.05 44.91 74.1 44.36 75.18 C40.7 82.33 37.22 89.25 35 97 C37.19 98.73 39.37 100.46 41.56 102.19 C42.48 102.91 42.48 102.91 43.41 103.65 C47.52 106.89 51.72 109.98 56 113 C55.01 113.33 54.02 113.66 53 114 C50.11 112.52 50.11 112.52 46.75 110.38 C45.88 109.82 45.88 109.82 45 109.26 C40.9 106.64 36.9 103.9 33 101 C29.11 134.76 35.39 166.8 56.59 193.88 C58.24 195.93 59.9 197.9 61.79 199.73 C63 201 63 201 63 203 C63.56 203.24 64.13 203.49 64.71 203.74 C67.43 205.24 69.37 207.06 71.62 209.19 C97.2 232.45 131.49 240.09 165.28 239.14 C181.85 238.31 198.57 234.17 213.56 227.12 C219.37 224.41 223.75 222.96 230 225 C231.18 225.35 232.35 225.7 233.56 226.06 C234.37 226.37 235.17 226.68 236 227 C235 230 235 230 233.35 231.07 C232.64 231.39 231.93 231.72 231.2 232.05 C230.39 232.42 229.59 232.78 228.77 233.16 C227.89 233.54 227.02 233.92 226.12 234.31 C225.23 234.71 224.33 235.1 223.41 235.51 C184.55 252.27 142.21 253.55 102.77 238.04 C89.09 232.37 77.28 224.51 66 215 C65.47 214.57 64.94 214.14 64.4 213.69 C60.06 210.14 56.53 206.34 53 202 C52.38 201.24 51.77 200.49 51.13 199.71 C32.02 174.9 22.96 143.82 26.94 112.75 C27.96 105.18 27.96 105.18 28.43 102.9 C29.06 99.44 29.35 97.56 27.45 94.52 C26.68 93.81 25.91 93.11 25.12 92.38 C6.9 73.92 -2.27 47.26 -2.12 21.62 C-2.12 20.79 -2.12 19.96 -2.12 19.1 C-2 4 -2 4 0 0 Z " fill="#d97706" transform="translate(112,140)"/>
<path d="M0 0 C0.88 0.71 0.88 0.71 1.77 1.44 C7.05 5.75 12.25 10.11 17 15 C17.51 14.83 18.03 14.66 18.55 14.48 C21.35 13.6 24.17 12.8 27 12 C28.24 11.64 29.48 11.28 30.76 10.91 C39.97 8.44 48.84 7.61 58.38 7.56 C59.44 7.55 60.51 7.54 61.61 7.53 C71.18 7.64 80.64 9.12 89 14 C89 14.66 89 15.32 89 16 C87.83 15.78 86.65 15.57 85.44 15.34 C56.65 10.26 31.8 14.39 6.24 28.75 C5.11 29.38 5.11 29.38 3.95 30.02 C3.28 30.4 2.62 30.78 1.93 31.18 C0 32 0 32 -4 32 C-4 30.68 -4 29.36 -4 28 C-2.47 26.52 -2.47 26.52 -0.5 25.25 C0.15 24.82 0.8 24.39 1.47 23.95 C1.97 23.64 2.48 23.32 3 23 C-29.16 2.46 -69.29 -6.11 -106.82 1.58 C-107.99 1.85 -107.99 1.85 -109.19 2.12 C-112.32 2.84 -114.82 3.21 -118 3 C-114.67 -1 -110.89 -2.5 -106.06 -4.06 C-105.28 -4.32 -104.5 -4.57 -103.69 -4.84 C-69.68 -15.35 -36.12 -8.73 -5 7 C-33.48 -17.11 -71.16 -25.65 -107.69 -22.79 C-127.69 -20.72 -145.89 -13.65 -163.84 -4.94 C-165.89 -4.05 -167.83 -3.47 -170 -3 C-129.21 -47.65 -41.8 -34.12 0 0 Z " fill="#d97706" transform="translate(278,46)"/>
<path d="M0 0 C0.33 0 0.66 0 1 0 C0.93 0.55 0.86 1.1 0.78 1.66 C-1.64 22.36 1.12 38.73 13.88 55.47 C15.22 57.13 16.57 58.79 17.93 60.44 C21.48 64.82 24.76 69.38 28 74 C28.62 74.87 29.24 75.75 29.88 76.65 C40.88 92.88 45.16 113.44 41.88 132.69 C37.97 152.88 27.71 169.6 10.67 181.34 C-0.94 188.96 -14.86 195.37 -29 194 C-26.3 191.3 -23.15 190.49 -19.62 189.25 C0.61 181.8 16.7 170.64 26.68 150.93 C33.68 135.41 35.38 115.37 29.62 99.12 C28.25 95.66 26.71 92.31 25 89 C24.97 90.16 24.95 91.32 24.92 92.52 C24.56 103.82 23.6 114.38 17 124 C16.34 124 15.68 124 15 124 C15.46 122.21 15.46 122.21 15.94 120.38 C19.03 106.18 19.01 91.07 12 78 C5.09 67.41 -4.38 59.31 -16.87 56.4 C-29.37 54.06 -41.8 55.99 -52.69 62.64 C-57.53 66.18 -60.68 70.06 -64 75 C-64.66 75 -65.32 75 -66 75 C-64.87 66.86 -58.34 60.66 -52.23 55.57 C-41.9 48.31 -29.46 45.4 -17.05 47.5 C-10.15 49.05 -4.16 51.55 2 55 C1.52 54 1.04 53 0.54 51.96 C-0.1 50.62 -0.74 49.28 -1.38 47.94 C-1.69 47.28 -2.01 46.62 -2.34 45.95 C-7.48 35.08 -9.25 22.99 -5.95 11.27 C-4.28 7.22 -2.43 3.64 0 0 Z " fill="#d97706" transform="translate(746,253)"/>
<path d="M0 0 C11.71 6.15 11.71 6.15 16 10 C15.41 13.02 14.77 16.02 14 19 C17.12 17.69 17.12 17.69 19 15 C23.54 16.27 26.61 17.71 30 21 C31.15 24.17 31.15 24.17 31.94 27.75 C33.86 35.22 36.37 40.39 42.69 44.94 C47.53 47.16 51.74 47.54 57 47 C60.25 45.58 60.25 45.58 63 44 C67 44 67 44 68.49 45.39 C69.18 46.31 69.18 46.31 69.88 47.25 C72.06 50.06 73.07 51.03 76.38 52.69 C79 55 79 55 79.59 57.77 C79.75 61.02 79.66 63.82 79 67 C76.5 69.56 76.5 69.56 73 71 C72.35 71.28 71.7 71.56 71.03 71.85 C59.24 76.7 45.87 76.34 34 72 C33.32 71.76 32.63 71.51 31.93 71.26 C19.8 66.08 11.52 54.71 6.06 43.12 C4.37 38.15 4.37 38.15 5 35 C6.17 33.15 7.43 31.45 8.81 29.75 C10.11 27.84 10.57 26.25 11 24 C10.24 24.78 9.47 25.57 8.69 26.38 C6 29 6 29 3 31 C-0.55 24.84 -0.29 17.61 -0.62 10.69 C-0.68 9.77 -0.73 8.85 -0.78 7.9 C-0.85 6.6 -0.85 6.6 -0.91 5.26 C-0.95 4.47 -1 3.67 -1.04 2.85 C-1 1 -1 1 0 0 Z M29 52 C29.33 52.66 29.66 53.32 30 54 C30.33 53.34 30.66 52.68 31 52 C30.34 52 29.68 52 29 52 Z " fill="#d97706" transform="translate(305,203)"/>
<path d="M0 0 C2.93 3.54 4.83 7.51 6.81 11.62 C23.32 45.07 51.3 71.97 85.25 87.56 C86.27 88.03 87.3 88.5 88.35 88.99 C118.8 102.48 154.72 104.72 186.25 93.52 C194.24 90.39 202.18 86.59 209.29 81.77 C212.21 79.86 213.59 79.6 217 80 C216.11 85.88 211.31 89.32 207 93 C180.5 112.33 142.82 115.02 111.4 110.48 C85 106.25 60.64 97.35 37 85 C36.19 84.58 35.38 84.16 34.55 83.73 C32.53 82.59 30.72 81.55 29 80 C28.5 77.19 28.5 77.19 29 75 C29.95 75.4 30.9 75.8 31.88 76.21 C40.77 79.94 49.73 83.47 58.75 86.88 C60.3 87.46 60.3 87.46 61.89 88.07 C62.87 88.43 63.85 88.8 64.86 89.18 C65.73 89.51 66.6 89.83 67.5 90.17 C69.99 91 72.42 91.54 75 92 C73.65 91.23 73.65 91.23 72.28 90.45 C51.24 78.29 31.21 62.73 18 42 C17.41 41.15 16.83 40.3 16.23 39.42 C8.99 28.62 0 13.24 0 0 Z " fill="#d97706" transform="translate(511,155)"/>
<path d="M0 0 C1.35 1.31 2.69 2.64 4 4 C3.81 3.36 3.61 2.72 3.41 2.06 C2.87 0.26 2.34 -1.53 1.8 -3.32 C1.33 -4.91 0.85 -6.5 0.36 -8.08 C-0.61 -11.27 -1 -13.62 -1 -17 C0.98 -17 2.96 -17 5 -17 C5.34 -15.96 5.68 -14.92 6.03 -13.84 C11.61 2.82 18.48 18.77 31.3 31.23 C33 33 33 33 33 35 C33.59 35.27 34.18 35.53 34.79 35.81 C37.04 37.02 38.54 38.3 40.38 40.06 C46.04 45.16 52.55 48.98 59 53 C59.99 53.66 60.98 54.32 62 55 C62 55.66 62 56.32 62 57 C45.42 55.89 26.71 41.6 15.94 29.69 C13.08 26.35 10.32 22.92 7.56 19.5 C-9.7 -1.58 -28.69 -8.11 -55.02 -10.8 C-55.67 -10.87 -56.33 -10.93 -57 -11 C-57 -10.34 -57 -9.68 -57 -9 C-55.84 -8.91 -54.68 -8.81 -53.49 -8.72 C-48.89 -8.14 -45.22 -6.61 -41.12 -4.5 C-40.43 -4.14 -39.74 -3.79 -39.02 -3.42 C-25.99 3.53 -18.64 13.84 -12.53 27.03 C-11.9 29.37 -12.23 30.73 -13 33 C-13.48 32.01 -13.97 31.02 -14.47 30 C-21.42 16.15 -30.13 6.86 -44.91 1.28 C-64.99 -5.37 -85.91 -2.87 -106.34 0.63 C-108.98 1 -111.34 1.28 -114 1 C-116.15 -2.23 -116.2 -3.28 -116 -7 C-114.4 -7.33 -114.4 -7.33 -112.76 -7.66 C-111.21 -7.98 -109.67 -8.3 -108.12 -8.62 C-107.29 -8.8 -106.45 -8.97 -105.59 -9.15 C-99.43 -10.45 -93.3 -11.87 -87.17 -13.33 C-55.29 -20.89 -26.73 -21.72 0 0 Z " fill="#d97706" transform="translate(268,305)"/>
<path d="M0 0 C2.48 2.3 2.48 2.3 4.25 4.25 C4.25 4.91 4.25 5.57 4.25 6.25 C1.88 5.06 -0.49 3.87 -2.86 2.66 C-26.85 -9.29 -51.5 -9.62 -76.82 -1.46 C-86.23 1.75 -94.86 6.26 -103.56 11.05 C-142.91 32.65 -142.91 32.65 -163.19 39.44 C-163.98 39.7 -164.78 39.97 -165.6 40.25 C-176.64 43.72 -187.54 44.61 -199.06 44.56 C-200.98 44.56 -200.98 44.56 -202.94 44.55 C-219.61 44.34 -236.82 41.13 -250.75 31.25 C-251.41 30.26 -252.07 29.27 -252.75 28.25 C-248.02 28.9 -243.64 30.18 -239.12 31.69 C-230.41 34.5 -221.95 36.4 -212.75 36.25 C-213.91 35.87 -213.91 35.87 -215.1 35.47 C-227.36 31.13 -237.38 24.73 -247 16 C-247.55 15.5 -248.1 15.01 -248.66 14.5 C-251.68 11.65 -253.56 9.24 -254.75 5.25 C-254.06 5.78 -254.06 5.78 -253.35 6.32 C-251.16 7.97 -248.96 9.61 -246.75 11.25 C-246.03 11.8 -245.3 12.36 -244.55 12.93 C-223.11 28.73 -196.53 35.2 -170.12 31.72 C-149.48 28.51 -132.26 20.26 -114.76 9.25 C-81.14 -11.87 -34.76 -30.37 0 0 Z " fill="#d97706" transform="translate(599.75,284.75)"/>
<path d="M0 0 C22.01 17.41 33.09 37.39 42.39 63.35 C54.04 95.83 73.79 120.12 104.75 136.06 C110.69 138.87 116.71 141.48 122.75 144.06 C122.42 144.72 122.09 145.38 121.75 146.06 C94.68 141.06 67.97 122.04 52.06 99.88 C47.01 92.26 42.91 84.19 38.75 76.06 C39.08 82.33 39.41 88.6 39.75 95.06 C38.76 95.06 37.77 95.06 36.75 95.06 C36.54 93.96 36.33 92.87 36.11 91.74 C35.31 87.58 34.49 83.43 33.66 79.28 C33.31 77.5 32.96 75.72 32.62 73.93 C28.29 51.39 21.26 32.6 4.75 16.06 C4 15.3 3.26 14.55 2.49 13.77 C-18.67 -6.52 -50.36 -16.23 -79.22 -16.04 C-80.03 -16.03 -80.84 -16.03 -81.67 -16.03 C-84.22 -16.03 -86.77 -16.01 -89.31 -16 C-91.05 -15.99 -92.8 -15.99 -94.54 -15.99 C-98.77 -15.98 -103.01 -15.96 -107.25 -15.94 C-107.25 -16.6 -107.25 -17.26 -107.25 -17.94 C-105.21 -18.42 -103.17 -18.9 -101.12 -19.38 C-99.99 -19.64 -98.85 -19.91 -97.68 -20.18 C-64.52 -27.47 -27.48 -19.78 0 0 Z M36.75 70.06 C37.75 72.06 37.75 72.06 37.75 72.06 Z " fill="#d97706" transform="translate(513.25,104.9375)"/>
<path d="M0 0 C8.54 7.08 18.59 18.16 20.82 29.35 C17 28.08 16.36 26.58 14.13 23.29 C2.9 7.53 -13.92 -3.99 -32.96 -8.18 C-45.57 -10.03 -58.62 -9.32 -69.56 -2.09 C-76.58 3.77 -82.2 13.43 -83.5 22.56 C-83.66 24.89 -83.7 27.19 -83.68 29.54 C-83.68 30.36 -83.67 31.19 -83.67 32.04 C-83.4 41.73 -80.64 50.87 -73.79 57.98 C-67.61 63.22 -61.58 64.65 -53.66 64.57 C-48.85 64.14 -45.28 61.97 -42.18 58.35 C-41.19 58.84 -41.19 58.84 -40.18 59.35 C-43.92 64.35 -46.98 67.59 -53.18 69.35 C-61.03 70.26 -67.28 69.18 -73.69 64.53 C-84.15 55.8 -88.39 45.7 -90.18 32.35 C-90.37 28.99 -90.39 25.7 -90.18 22.35 C-95.54 32.77 -96.27 45.89 -93.12 57.13 C-91.94 59.97 -90.63 62.64 -89.18 65.35 C-88.5 67.01 -87.83 68.67 -87.18 70.35 C-86.52 70.35 -85.86 70.35 -85.18 70.35 C-84.52 71.21 -83.86 72.08 -83.18 72.97 C-79.66 77.36 -75.13 79.81 -70.18 82.35 C-69.19 82.86 -69.19 82.86 -68.17 83.39 C-59.1 87.19 -46.32 86.82 -37.12 83.72 C-35.45 82.98 -33.8 82.19 -32.18 81.35 C-31.39 80.95 -30.59 80.55 -29.77 80.13 C-23.98 76.79 -20.98 72.59 -17.69 66.84 C-16.35 64.63 -15.09 63.06 -13.18 61.35 C-13.56 70.21 -18.59 76.06 -24.75 82.1 C-34.66 90.59 -46.47 92.94 -59.25 92.16 C-72.76 90.47 -83.83 83.36 -92.22 72.78 C-101.02 59.94 -103.31 45.49 -100.52 30.35 C-96.75 14.38 -86.89 0.03 -73.35 -9.41 C-48.92 -23.41 -21.41 -16.2 0 0 Z " fill="#d97706" transform="translate(577.18359375,334.65234375)"/>
<path d="M0 0 C0.99 0.33 1.98 0.66 3 1 C2.61 1.48 2.23 1.97 1.83 2.47 C-9.17 16.62 -10.53 31.37 -8.57 48.83 C-6.88 58.47 -3.47 67.36 0.04 76.46 C1.7 80.85 3.26 85.27 4.81 89.69 C5.1 90.5 5.39 91.31 5.69 92.15 C12.47 111.44 13.8 133.03 5 152 C3.72 154.55 2.38 157.06 1 159.56 C0.67 160.17 0.34 160.78 -0.01 161.41 C-1.9 164.69 -3.34 166.75 -7 168 C-6.56 166.67 -6.13 165.33 -5.69 164 C-5.44 163.26 -5.2 162.51 -4.95 161.75 C-4.42 160.22 -3.87 158.69 -3.27 157.18 C-1.43 152.55 -0.29 148.09 0.25 143.12 C0.33 142.4 0.41 141.68 0.5 140.93 C2.89 116.4 -4.89 95.35 -14 73 C-11.71 83 -9.28 92.94 -6.58 102.84 C-5.73 105.97 -5 108.74 -5 112 C-5.66 112 -6.32 112 -7 112 C-31.01 56.32 -31.01 56.32 -19.75 27.75 C-14.94 17.06 -8.27 8.27 0 0 Z M-16 66 C-15 69 -15 69 -15 69 Z " fill="#d97706" transform="translate(797,234)"/>
<path d="M0 0 C1.7 0.25 3.38 0.58 5.06 0.94 C5.98 1.13 6.9 1.33 7.85 1.53 C8.56 1.68 9.27 1.84 10 2 C10.5 3.98 10.5 3.98 11 6 C-2.1 18.87 -15.54 27.18 -33 33 C-21.24 32.16 -9.56 29.28 1 24 C0.86 24.69 0.71 25.38 0.56 26.1 C-1.03 34.52 -1.21 42.46 -1 51 C-2.79 50.02 -4.58 49.05 -6.37 48.07 C-13.11 45.33 -20.09 44.69 -27.29 44.47 C-29.06 44.4 -30.84 44.34 -32.61 44.27 C-33.52 44.23 -34.43 44.2 -35.37 44.17 C-60.88 43.22 -86 41.4 -110 32 C-110 31.34 -110 30.68 -110 30 C-108.2 30.02 -108.2 30.02 -106.35 30.05 C-101.79 30.1 -97.23 30.14 -92.67 30.16 C-90.72 30.18 -88.76 30.2 -86.8 30.23 C-59.18 30.59 -30.65 26.95 -8.83 8.45 C-7 7 -7 7 -4.84 5.93 C-2.46 4.72 -2.01 3.41 -1 1 C-0.67 0.67 -0.34 0.34 0 0 Z " fill="#d97706" transform="translate(735,240)"/>
<path d="M0 0 C3.98 0.67 7.54 1.86 11.31 3.29 C12.54 3.76 13.77 4.22 15.04 4.7 C15.69 4.94 16.33 5.18 17 5.43 C48.14 17.15 78.13 22.84 111.37 24.03 C132.86 24.82 132.86 24.82 140 28 C140.33 28.99 140.66 29.98 141 31 C139.39 31.04 139.39 31.04 137.74 31.08 C121.53 31.64 106.96 35.31 95 47 C84.71 59.44 82.86 71.31 84 87 C84.28 88.68 84.59 90.35 85 92 C83.11 91.33 83.11 91.33 81 90 C76.5 79.98 76.33 66.72 79.97 56.43 C83.9 47.16 88.76 40.96 96 34 C95.34 33.94 94.69 33.88 94.01 33.82 C61.63 30.77 29.33 24.05 3 4 C2.01 3.34 1.02 2.68 0 2 C0 1.34 0 0.68 0 0 Z " fill="#d97706" transform="translate(587,264)"/>
<path d="M0 0 C0.33 0.99 0.66 1.98 1 3 C-0.51 5.3 -0.51 5.3 -2.69 7.88 C-3.39 8.72 -4.1 9.56 -4.82 10.43 C-5.54 11.28 -6.26 12.13 -7 13 C-7.67 13.86 -8.35 14.72 -9.04 15.61 C-11.99 19.21 -15.44 22.03 -19 25 C-19.75 25.64 -20.51 26.28 -21.29 26.95 C-27.78 32.33 -34.69 36.79 -42 41 C-42.57 41.34 -43.15 41.67 -43.74 42.02 C-78.18 61.98 -123.09 70.41 -161.98 60.5 C-172.09 57.74 -180.95 53.17 -190 48 C-190 47.01 -190 46.02 -190 45 C-180.75 43.72 -173.66 46.74 -165.33 50.27 C-146.57 58.02 -121.55 57.06 -102 53 C-101.11 52.82 -100.21 52.63 -99.29 52.45 C-61.15 44.43 -27.4 27.96 0 0 Z " fill="#d97706" transform="translate(456,346)"/>
<path d="M0 0 C3.09 2.56 3.97 5.25 5.25 9 C11.74 26.32 23.54 38.15 40 46 C60.3 54.85 80.43 53.95 101.72 50.36 C105.14 49.82 108.56 49.41 112 49 C112 49.66 112 50.32 112 51 C83.98 64.14 50.5 67.35 20.81 58.25 C9.69 54.22 -0.18 48.93 -9 41 C-9.62 40.47 -10.25 39.94 -10.89 39.39 C-19.42 31.63 -25.68 19.97 -29 9 C-28.67 8.34 -28.34 7.68 -28 7 C-25.45 10.64 -23.33 14.29 -21.31 18.25 C-18.03 24.34 -13.88 29.12 -9 34 C-8.36 34.64 -7.72 35.28 -7.07 35.93 C5.52 47.69 24.63 55.63 41.9 56.07 C42.59 56.05 43.29 56.03 44 56 C43.27 55.74 42.55 55.49 41.8 55.22 C24.95 48.81 11.44 36.5 4 20 C1.18 13.45 0.38 7.09 0 0 Z " fill="#d97706" transform="translate(315,284)"/>
<path d="M0 0 C0.33 0.99 0.66 1.98 1 3 C1.38 2.51 1.76 2.02 2.14 1.51 C4.71 -0.58 6.43 -0.3 9.69 -0.19 C10.68 -0.16 11.68 -0.13 12.7 -0.11 C13.46 -0.07 14.22 -0.04 15 0 C14.4 2.96 13.5 5.06 11.8 7.55 C11.34 8.24 10.88 8.93 10.41 9.63 C9.9 10.37 9.4 11.11 8.88 11.88 C8.35 12.66 7.82 13.44 7.28 14.24 C6.13 15.94 4.98 17.63 3.83 19.32 C1.95 22.07 0.09 24.83 -1.78 27.59 C-8.72 37.82 -15.74 47.99 -23 58 C-24.65 57.67 -26.3 57.34 -28 57 C-28.62 55.25 -28.62 55.25 -29 53 C-28.52 52.08 -28.52 52.08 -28.04 51.15 C-25.19 45.26 -27.05 37.7 -28.56 31.62 C-29.98 23.16 -28.54 19.13 -23.69 12.25 C-23.19 11.51 -22.69 10.77 -22.17 10 C-20.81 7.98 -19.42 5.98 -18 4 C-17.51 3.27 -17.01 2.55 -16.51 1.8 C-15 0 -15 0 -12.19 -0.64 C-11.14 -0.7 -10.08 -0.76 -9 -0.81 C-7.95 -0.88 -6.9 -0.95 -5.81 -1.02 C-3 -1 -3 -1 0 0 Z " fill="#d97706" transform="translate(259,138)"/>
<path d="M0 0 C0.6 0.4 1.19 0.8 1.81 1.21 C30.46 19.99 64.99 32.57 99.58 25.77 C111.73 23.03 124.22 18.85 133.2 9.78 C135 8 135 8 137 8 C133.09 17.59 121.36 24.43 112.4 28.65 C98.65 34.12 84.65 34.76 70 35 C78.63 36.67 86.98 37.19 95.75 37.19 C96.71 37.19 97.66 37.19 98.65 37.19 C104.82 37.14 110.88 36.73 117 36 C113.88 39.42 110.35 40.66 106 42 C105.33 42.21 104.65 42.42 103.96 42.63 C89.2 46.34 73.33 44.49 59 40 C58.33 39.79 57.66 39.58 56.97 39.37 C41.93 34.52 28.41 26.74 16 17 C15.03 16.24 14.06 15.49 13.06 14.71 C8.18 10.82 3.62 7.11 0 2 C0 1.34 0 0.68 0 0 Z " fill="#d97706" transform="translate(611,399)"/>
<path d="M0 0 C5.56 5.04 8.96 9.87 9.38 17.44 C9.27 21.96 8.02 24.56 5 28 C1.6 30.58 -1.85 30.44 -6 30 C-8.89 27.94 -9.82 26.68 -10.75 23.25 C-10.87 22.14 -10.87 22.14 -11 21 C-10.01 21 -9.02 21 -8 21 C-7.34 22.32 -6.68 23.64 -6 25 C-1.91 25.4 -1.91 25.4 1.68 23.76 C4.1 20.54 3.5 16.84 3 13 C1.35 9.21 -0.58 7.24 -4 5 C-10.21 3.21 -15.44 3.83 -21.15 6.76 C-24.95 9.31 -26.13 12.7 -27 17 C-28.19 35.01 -22.42 50.16 -10.89 63.91 C-9.57 65.37 -8.18 66.78 -6.76 68.15 C-5 70 -5 70 -5 72 C-4.16 72.37 -4.16 72.37 -3.3 72.74 C-0.57 74.24 1.53 76.08 3.88 78.12 C24.23 94.92 49 101.24 75 101.06 C76.25 101.06 77.5 101.05 78.79 101.05 C81.86 101.04 84.93 101.02 88 101 C87.5 102.49 87.5 102.49 87 104 C58.43 108.48 31.29 104.27 7 88 C6.14 87.44 5.29 86.88 4.41 86.3 C-13.18 74.23 -28.98 55.76 -33.38 34.38 C-34.74 24.71 -35.04 14.87 -29.93 6.18 C-26.56 1.74 -22.16 -0.81 -17 -2.75 C-10.8 -3.52 -5.42 -3.21 0 0 Z " fill="#d97706" transform="translate(606,144)"/>
<path d="M0 0 C-3.06 3.32 -6.46 5.9 -10.1 8.54 C-12.03 9.95 -12.03 9.95 -13.62 11.68 C-15 13 -15 13 -17 13 C-17.28 13.57 -17.56 14.14 -17.85 14.73 C-18.98 16.97 -20.2 19.14 -21.44 21.31 C-29.46 35.85 -31.61 52.86 -27 69 C-25.5 72.76 -23.83 76.39 -22 80 C-27.49 78.3 -28.93 75.57 -31.64 70.73 C-34.29 65.4 -36.05 59.88 -37 54 C-38.57 55.57 -38.13 57.11 -38.14 59.28 C-38.15 60.65 -38.15 60.65 -38.16 62.05 C-38.17 63.04 -38.17 64.04 -38.18 65.07 C-38.2 67.19 -38.22 69.3 -38.25 71.42 C-38.28 74.75 -38.31 78.08 -38.33 81.42 C-38.41 98.95 -39.95 113.14 -48 129 C-48.66 129 -49.32 129 -50 129 C-49.88 128.44 -49.76 127.88 -49.63 127.3 C-48.57 122.22 -47.66 117.13 -46.88 112 C-46.71 110.91 -46.54 109.81 -46.37 108.69 C-45.59 100.9 -46.1 93.36 -46.86 85.59 C-48.54 67.88 -48.24 51.13 -40 35 C-39.45 33.74 -39.45 33.74 -38.88 32.45 C-32.91 19.22 -16.24 -1.17 0 0 Z " fill="#d97706" transform="translate(900,257)"/>
<path d="M0 0 C1.09 -0.01 1.09 -0.01 2.2 -0.01 C7.13 -0 11.87 0.43 16.75 1.12 C16.13 4.23 15.11 6.38 13.34 9 C12.85 9.73 12.36 10.46 11.85 11.22 C11.32 11.99 10.8 12.76 10.25 13.56 C9.71 14.37 9.16 15.17 8.6 16 C4.79 21.64 0.94 27.24 -2.95 32.82 C-4.69 35.31 -6.4 37.8 -8.11 40.3 C-8.6 41.02 -9.09 41.74 -9.6 42.48 C-10.55 43.87 -11.5 45.26 -12.45 46.66 C-17.43 53.95 -17.43 53.95 -20.25 57.12 C-20.91 57.12 -21.57 57.12 -22.25 57.12 C-22.17 56.15 -22.17 56.15 -22.08 55.16 C-21.84 52.17 -21.64 49.18 -21.44 46.19 C-21.35 45.17 -21.26 44.14 -21.17 43.09 C-20.77 36.57 -21.38 32.57 -25.15 27.16 C-26.55 24.58 -26.62 23.03 -26.25 20.12 C-25.18 18.03 -25.18 18.03 -23.7 15.99 C-23.16 15.25 -22.63 14.5 -22.08 13.74 C-21.52 12.98 -20.96 12.22 -20.38 11.44 C-19.82 10.67 -19.26 9.89 -18.69 9.1 C-12.92 1.14 -9.91 -0.05 0 0 Z " fill="#d97706" transform="translate(491.25,136.875)"/>
<path d="M0 0 C2.21 1.68 4.31 3.43 6.41 5.24 C7.07 5.76 7.74 6.28 8.42 6.81 C22.14 17.92 29.82 34.29 36.36 50.27 C38.38 55.19 40.5 60.06 42.66 64.93 C43.14 66 43.14 66 43.62 67.1 C46.97 74.62 50.44 81.68 55.29 88.36 C55.69 88.94 56.1 89.53 56.52 90.12 C59.48 94.24 62.75 97.73 66.41 101.24 C66.08 102.23 65.75 103.22 65.41 104.24 C62.71 101.94 60.05 99.6 57.41 97.24 C56.75 96.66 56.09 96.08 55.41 95.48 C43.18 84.08 36.66 67.99 29.71 53.11 C25.14 43.36 20.49 34.25 14.04 25.59 C12.41 23.24 12.41 23.24 12.41 21.24 C11.75 21.24 11.09 21.24 10.41 21.24 C9.4 20.13 8.46 18.98 7.54 17.8 C-3.76 4.7 -22.28 -5.06 -39.59 -6.76 C-47.92 -7.06 -56.26 -6.95 -64.59 -6.76 C-64.59 -7.75 -64.59 -8.74 -64.59 -9.76 C-43.54 -18.04 -18.18 -12.37 0 0 Z " fill="#d97706" transform="translate(592.58984375,295.76171875)"/>
<path d="M0 0 C3.97 0.56 5.94 2.49 8.81 5.19 C11.64 7.83 14.45 10.38 17.5 12.75 C25.47 19.54 31.32 29.33 36.99 38.01 C47.8 54.09 61.03 71.03 80.94 75.69 C88.59 76.47 93.87 75.73 101 73 C101.97 72.69 102.94 72.38 103.94 72.06 C106.56 70.71 106.94 69.72 108 67 C108.5 66.09 108.99 65.19 109.5 64.25 C111.23 60.51 112.1 57.01 113 53 C115.23 56.35 115.22 57.8 114.6 61.68 C112.61 69.4 108.8 75.76 102 80 C92.8 85.03 84.47 85.18 74.5 82.38 C62.5 78.28 53.85 71.87 45 63 C43.73 61.75 43.73 61.75 42.44 60.48 C33.27 50.93 26.55 39.57 19.47 28.46 C13.93 19.78 8.18 11.18 1.71 3.16 C0 1 0 1 0 0 Z " fill="#d97706" transform="translate(615,307)"/>
<path d="M0 0 C19.81 7.96 31.59 22.62 40 42 C43.97 51.63 46.76 61.59 49.5 71.62 C58.05 102.73 72.86 124.37 101 141 C101.95 141.49 102.91 141.98 103.89 142.48 C104.58 142.98 105.28 143.48 106 144 C106 145.32 106 146.64 106 148 C100.69 147.47 96.92 145.67 92.38 143.06 C91.68 142.67 90.99 142.27 90.27 141.87 C83.63 137.98 77.45 133.46 72 128 C72 127.34 72 126.68 72 126 C71.43 125.78 70.86 125.56 70.27 125.33 C55.95 116.94 47.06 91.47 43 76.25 C41.58 70.66 40.21 65.05 38.93 59.43 C37.08 51.47 34.69 44.3 31 37 C30.48 35.86 29.95 34.72 29.41 33.55 C26.52 27.56 23.48 22.9 19 18 C19 17.34 19 16.68 19 16 C18.01 15.67 17.02 15.34 16 15 C16 14.34 16 13.68 16 13 C15.22 12.61 15.22 12.61 14.42 12.22 C12.55 11.28 10.69 10.31 8.83 9.34 C-2.44 3.5 -12.48 1.53 -25 0 C-17.98 -4.2 -7.46 -2.62 0 0 Z " fill="#d97706" transform="translate(30,123)"/>
<path d="M0 0 C8.26 7.04 13.6 14.54 16.37 25.05 C16.6 25.87 16.82 26.7 17.06 27.55 C18.8 41.48 14.89 54.33 6.52 65.52 C-1.35 74.91 -10.6 80.04 -22.63 82.05 C-40.44 83.36 -55.36 78.71 -69.15 67.27 C-77.18 60.07 -83.82 51.72 -88.63 42.05 C-88.3 41.39 -87.97 40.73 -87.63 40.05 C-87.09 40.72 -87.09 40.72 -86.55 41.4 C-84.89 43.48 -83.23 45.54 -81.57 47.61 C-81.01 48.31 -80.44 49.02 -79.87 49.74 C-69.83 62.19 -57.93 72.33 -41.63 75.05 C-26.24 76.37 -13.8 75.25 -1.63 65.05 C3.7 60.05 6.8 54.84 9.37 48.05 C9.73 47.32 10.09 46.6 10.45 45.85 C13.41 36.84 12.56 23.98 8.75 15.41 C3.68 6.75 -3.01 1.34 -12.64 -1.56 C-20.72 -3.16 -28.39 -1.85 -35.63 2.05 C-39.52 5.38 -42.19 9.57 -44.63 14.05 C-45.12 13.06 -45.12 13.06 -45.63 12.05 C-43 4.73 -39.52 -0.03 -32.63 -3.95 C-21.73 -8.4 -9.4 -6.98 0 0 Z " fill="#d97706" transform="translate(737.62890625,332.953125)"/>
<path d="M0 0 C0.33 0 0.66 0 1 0 C0.93 0.72 0.86 1.44 0.79 2.17 C-1.55 27.96 -1.75 55.02 14.88 76.5 C16.22 78.02 17.6 79.52 19 81 C19.75 81.84 20.5 82.68 21.27 83.54 C41.7 105.39 69.75 109.32 98 111 C98.38 113.33 98.71 115.66 99 118 C97.34 119.66 95.48 119.21 93.19 119.25 C65.01 118.95 39.36 109.5 18.75 90.19 C7.9 78.86 1.82 66.05 -2 51 C-2.18 50.35 -2.36 49.7 -2.55 49.04 C-4.31 42.16 -4.38 35.38 -4.38 28.31 C-4.38 27.07 -4.38 25.84 -4.38 24.56 C-4.28 15.78 -3.44 8.17 0 0 Z " fill="#d97706" transform="translate(43,189)"/>
<path d="M0 0 C38.91 -0.9 72.23 14.5 100.5 40.52 C102.59 42.59 104.33 44.59 106 47 C103.88 48.2 101.75 49.38 99.62 50.56 C99.02 50.9 98.42 51.25 97.8 51.6 C96.23 52.46 94.62 53.24 93 54 C92.34 53.67 91.68 53.34 91 53 C91.99 52.34 92.98 51.68 94 51 C94 50.34 94 49.68 94 49 C61.58 31.1 31.91 24.09 -5 23 C-5 22.67 -5 22.34 -5 22 C3.77 20.28 12.33 19.61 21.25 19.38 C22.48 19.34 23.72 19.3 24.99 19.26 C27.99 19.16 31 19.08 34 19 C34 19.33 34 19.66 34 20 C35.27 20.27 36.54 20.54 37.86 20.81 C54.11 24.38 70.07 29.54 85 37 C85.33 37.66 85.66 38.32 86 39 C89.78 41.24 89.78 41.24 94 42 C94 41.34 94 40.68 94 40 C91.91 38.19 89.82 36.49 87.62 34.81 C86.98 34.32 86.34 33.82 85.67 33.31 C83.79 31.86 81.89 30.43 80 29 C79.16 28.35 78.31 27.7 77.44 27.04 C55.16 10.62 27.44 2.23 0 1 C0 0.67 0 0.34 0 0 Z " fill="#d97706" transform="translate(190,19)"/>
<path d="M0 0 C2.79 0.14 5.58 0.14 8.38 0.12 C9.09 0.13 9.81 0.13 10.55 0.14 C15.44 0.13 20.15 -0.31 25 -1 C23.56 2.63 21.91 4 18.56 5.94 C17.78 6.4 17 6.86 16.19 7.34 C14.61 8.16 14.61 8.16 13 9 C12.24 9.4 11.49 9.79 10.71 10.2 C3.2 13.89 -4.23 15.53 -12.44 17 C-27.89 19.78 -42.93 24.27 -54 36 C-56.31 37.31 -56.31 37.31 -58 38 C-55.33 27.81 -46.87 21.63 -38.25 16.3 C-31.33 12.57 -24.37 10.56 -16.76 8.86 C-13.12 8.03 -9.58 7.06 -6 6 C-13.23 5.12 -20.34 4.87 -27.62 4.94 C-29.13 4.94 -29.13 4.94 -30.67 4.95 C-33.11 4.96 -35.56 4.98 -38 5 C-38 4.34 -38 3.68 -38 3 C-26.52 -3.02 -12.47 -2.11 0 0 Z " fill="#d97706" transform="translate(730,160)"/>
<path d="M0 0 C-1.31 2.82 -2.79 5.1 -4.75 7.5 C-10.47 15.03 -14.83 23.56 -16 33 C-16.22 34.65 -16.22 34.65 -16.44 36.33 C-17.65 48.44 -16.42 60.44 -10.77 71.4 C-10 73 -10 73 -10 75 C-14.48 73.49 -16.44 69.91 -18.88 66.12 C-19.31 65.45 -19.75 64.78 -20.2 64.09 C-29.29 49.93 -34.99 36.05 -33 19 C-31.83 13.82 -30.38 8.76 -28 4 C-25.03 4 -22.06 4 -19 4 C-19.46 4.71 -19.92 5.41 -20.39 6.14 C-24.26 13.03 -25.58 21.18 -25 29 C-24.67 29.66 -24.34 30.32 -24 31 C-23.79 30.32 -23.58 29.64 -23.37 28.95 C-19.57 17.45 -12.99 9.04 -4 1 C-2 0 -2 0 0 0 Z " fill="#d97706" transform="translate(783,241)"/>
<path d="M0 0 C14.73 4.55 29.36 4.47 43.83 -0.98 C46.64 -2.49 49.26 -4.07 51.87 -5.91 C52.84 -6.44 52.84 -6.44 53.83 -6.98 C54.82 -6.65 55.81 -6.32 56.83 -5.98 C46.7 4.82 35.79 11.71 20.83 13.02 C6.15 13.19 -7.33 8.19 -20.77 2.84 C-29.31 -0.54 -36.46 -2.3 -45.67 -2.11 C-46.5 -2.1 -47.32 -2.09 -48.17 -2.08 C-50.17 -2.06 -52.17 -2.02 -54.17 -1.98 C-53.17 -4.98 -53.17 -4.98 -50.99 -6.11 C-33.61 -11.51 -16.59 -5.16 0 0 Z " fill="#d97706" transform="translate(731.174072265625,218.98095703125)"/>
<path d="M0 0 C3.41 3.08 5.25 5.74 5.91 10.36 C6.11 14.83 5.66 18.03 2.62 21.38 C-0.56 22.19 -0.56 22.19 -3.38 22.38 C-3.7 21.71 -4.04 21.06 -4.38 20.38 C-2.39 20.05 -0.42 19.71 1.62 19.38 C3.02 15.2 3.2 11.31 1.94 7.06 C0.01 4.59 -1.31 4.09 -4.38 3.38 C-8.77 3.3 -12.23 3.52 -15.81 6.19 C-19.07 10.74 -19.96 13.63 -19.38 19.38 C-17.47 23.95 -14.9 28.23 -10.28 30.32 C5.47 35.16 19.82 30.75 34.03 23.46 C38.56 21.05 42.87 18.42 47.02 15.41 C48.62 14.38 48.62 14.38 50.62 14.38 C47.79 22.5 35.36 28.7 28.02 32.49 C16.06 38.25 2.63 41.51 -10.38 37.38 C-16.27 34.56 -20.3 31.13 -23.38 25.38 C-25.28 19.67 -25.6 13.29 -23.25 7.69 C-17.8 -0.96 -9.55 -4.6 0 0 Z " fill="#d97706" transform="translate(430.375,269.625)"/>
<path d="M0 0 C15.72 11.94 24.09 28.41 26.75 47.75 C27.14 51.97 26.68 55.83 26 60 C23.71 56.25 23.31 52.26 22.69 48 C19.62 29.41 10.25 15.82 -5 4.84 C-17.1 -3.09 -29.74 -6.46 -44 -8 C-45.63 -8.21 -47.25 -8.41 -48.88 -8.62 C-49.91 -8.75 -50.94 -8.87 -52 -9 C-51.67 -9.66 -51.34 -10.32 -51 -11 C-34.03 -15.78 -14.25 -9.25 0 0 Z " fill="#d97706" transform="translate(374,36)"/>
<path d="M0 0 C-0.22 0.82 -0.22 0.82 -0.44 1.66 C-2.02 8.41 -2.1 14.8 -1.88 21.68 C-2 24.95 -2.42 26.25 -4 29 C-4.45 30.68 -4.86 32.37 -5.25 34.06 C-7.7 43.3 -12.33 51.18 -19 58 C-19.66 58 -20.32 58 -21 58 C-19.76 54.72 -18.31 51.78 -16.56 48.75 C-12.91 41.65 -12.12 33.82 -11 26 C-11.4 27.21 -11.4 27.21 -11.8 28.45 C-12.33 30.05 -12.33 30.05 -12.88 31.69 C-13.22 32.74 -13.57 33.8 -13.93 34.89 C-14.87 37.63 -15.89 40.32 -17 43 C-17.99 43 -18.98 43 -20 43 C-14.19 0 -14.19 0 0 0 Z " fill="#d97706" transform="translate(846,151)"/>
<path d="M0 0 C1.32 0.66 2.64 1.32 4 2 C2.58 5.38 0.91 7.1 -1.94 9.38 C-18 23.3 -28.69 43.76 -39 62 C-39.66 61.67 -40.32 61.34 -41 61 C-33.87 42.41 -23.97 26.2 -11.25 10.94 C-10.81 10.41 -10.38 9.89 -9.93 9.35 C-6.89 5.79 -3.64 2.9 0 0 Z " fill="#d97706" transform="translate(258,87)"/>
<path d="M0 0 C3.94 2.63 4.52 5.72 6 10 C8.57 17.03 11.69 23.39 15.62 29.75 C16.31 30.86 16.31 30.86 17 31.98 C19.11 35.3 21.28 38.41 23.84 41.39 C26 44 26 44 26 46 C26.66 46 27.32 46 28 46 C29.62 47.61 29.62 47.61 31.44 49.75 C32.03 50.45 32.63 51.14 33.25 51.86 C34.89 53.87 36.46 55.91 38 58 C34.59 59.14 33.17 58.75 29.96 57.27 C25.89 54.63 22.99 50.77 20 47 C19.54 46.42 19.07 45.84 18.59 45.24 C9.85 33.63 0 14.9 0 0 Z " fill="#d97706" transform="translate(218,319)"/>
<path d="M0 0 C-1.39 4.06 -3.34 6.67 -6 10 C-15.03 23.04 -18.93 37.69 -19.66 53.33 C-19.83 56.98 -20.17 60.44 -21 64 C-23 63 -23 63 -23.61 61.19 C-26.42 45.33 -23.69 27.56 -15 14 C-12.19 10.46 -9.19 7.2 -6 4 C-5.29 3.25 -4.58 2.49 -3.85 1.72 C-2 0 -2 0 0 0 Z " fill="#d97706" transform="translate(817,224)"/>
<path d="M0 0 C0.55 0.71 1.1 1.41 1.66 2.14 C15.36 18.92 32.5 29.19 54.39 31.72 C67.24 32.72 79.06 31.5 91.72 29.36 C95.14 28.82 98.56 28.41 102 28 C102 28.66 102 29.32 102 30 C88.35 35.96 88.35 35.96 82 37 C80.51 36.01 80.51 36.01 79 35 C76.56 34.79 76.56 34.79 73.84 34.95 C72.29 34.99 72.29 34.99 70.71 35.03 C69.61 35.06 68.51 35.09 67.38 35.12 C45.05 35.44 24.52 29.3 8.06 13.5 C4.37 9.64 1.62 5.65 -1 1 C-0.67 0.67 -0.34 0.34 0 0 Z " fill="#d97706" transform="translate(325,305)"/>
<path d="M0 0 C0.33 0 0.66 0 1 0 C1.51 9.03 -3.64 15.72 -9.38 22.31 C-19.25 32.71 -31.92 40.61 -46.56 41.12 C-47.37 41.08 -48.17 41.04 -49 41 C-49.33 40.34 -49.66 39.68 -50 39 C-48.13 38.36 -48.13 38.36 -46.23 37.71 C-26.2 30.73 -12.25 20.86 -1.37 2.21 C-0.92 1.48 -0.47 0.75 0 0 Z " fill="#d97706" transform="translate(467,375)"/>
<path d="M0 0 C3.17 2.9 5.07 5.71 7.06 9.5 C13.25 20.37 22.6 30.07 33 37 C32.34 38.65 31.68 40.3 31 42 C25.21 42 22.72 38.66 18.74 34.83 C12.65 28.55 8.58 21.48 4.62 13.75 C4.11 12.74 4.11 12.74 3.58 11.71 C1.65 7.81 0.48 4.38 0 0 Z " fill="#d97706" transform="translate(427,104)"/>
<path d="M0 0 C0.93 0.8 1.86 1.61 2.81 2.44 C3.46 2.99 4.11 3.53 4.77 4.1 C6.32 5.42 7.84 6.76 9.35 8.12 C28.02 24.39 51.86 29.97 76.08 30.79 C80 31 80 31 83 32 C82.67 33.65 82.34 35.3 82 37 C80.51 36.5 80.51 36.5 79 36 C79 35.67 79 35.34 79 35 C77.98 34.97 76.96 34.95 75.91 34.92 C46.96 33.88 22.33 24.45 1.62 3.88 C0 2 0 2 0 0 Z " fill="#d97706" transform="translate(59,271)"/>
<path d="M0 0 C2.12 2.12 2.12 2.12 3 5 C3 9.2 2.62 11.25 -0.06 14.5 C-3.52 16.26 -5.39 16.32 -9.13 15.61 C-12.01 14.67 -13.32 13.49 -15 11 C-16 8.06 -16 8.06 -16 5 C-11.95 -1.51 -7 -1.87 0 0 Z M-7 4 C-8.11 5.88 -8.11 5.88 -9 8 C-8.67 8.66 -8.34 9.32 -8 10 C-6.35 10 -4.7 10 -3 10 C-1.99 6.95 -1.99 6.95 -3 4 C-4.32 4 -5.64 4 -7 4 Z " fill="#d97706" transform="translate(908,162)"/>
<path d="M0 0 C7.28 4.85 10.28 11.67 12 20 C12.5 24.96 12.48 28.59 10 33 C9.67 33 9.34 33 9 33 C8.99 32.03 8.97 31.07 8.96 30.07 C8.63 21.04 7.85 13.38 1.51 6.35 C-4.23 1.22 -9.72 0.6 -17.13 0.75 C-23.47 1.3 -27.42 4.96 -32 9 C-31.51 4.77 -29.1 1.75 -26 -1 C-17.28 -6.11 -8.47 -4.79 0 0 Z " fill="#d97706" transform="translate(549,363)"/>
<path d="M0 0 C2.67 0.55 5.29 1.16 7.94 1.81 C17.24 3.99 26.49 5.17 36 6 C37.88 6.17 37.88 6.17 39.8 6.34 C42.53 6.57 45.26 6.8 48 7 C47.67 7.66 47.34 8.32 47 9 C33 13.67 13.57 8.79 0 5 C-0.56 3.06 -0.56 3.06 -1 1 C-0.67 0.67 -0.34 0.34 0 0 Z " fill="#d97706" transform="translate(146,271)"/>
<path d="M0 0 C2.93 3.54 4.83 7.51 6.81 11.62 C11.92 21.98 17.69 31.16 24.83 40.21 C27 43 27 43 29 46 C28.01 46 27.02 46 26 46 C23.96 43.81 23.96 43.81 21.81 41 C21.1 40.07 20.38 39.14 19.64 38.19 C19.1 37.47 18.56 36.74 18 36 C19.32 38.64 20.64 41.28 22 44 C21.01 44 20.02 44 19 44 C10.36 32.86 0 14.13 0 0 Z " fill="#d97706" transform="translate(511,155)"/>
<path d="M0 0 C0.5 1.49 0.5 1.49 1 3 C0.11 3.34 -0.78 3.68 -1.7 4.02 C-2.87 4.47 -4.04 4.92 -5.25 5.38 C-6.99 6.04 -6.99 6.04 -8.77 6.71 C-13.74 8.35 -13.74 8.35 -17 12 C-14.03 11.01 -11.06 10.02 -8 9 C-7.67 9.66 -7.34 10.32 -7 11 C-7.8 11.33 -7.8 11.33 -8.62 11.66 C-17.07 15.26 -24.64 19.27 -31 26 C-33.31 27.31 -33.31 27.31 -35 28 C-32.57 18.7 -25.63 13.3 -18 8 C-12.2 4.69 -6.37 2.02 0 0 Z " fill="#d97706" transform="translate(707,170)"/>
<path d="M0 0 C-0.33 0.99 -0.66 1.98 -1 3 C-3 4 -5 5 -7 6 C-8.21 7.33 -8.21 7.33 -9.44 8.69 C-12 11 -12 11 -15.44 11.44 C-18.88 11.01 -21.78 10.26 -25 9 C-24.67 7.35 -24.34 5.7 -24 4 C-23.11 3.8 -22.22 3.59 -21.3 3.38 C-20.13 3.11 -18.96 2.84 -17.75 2.56 C-16.59 2.3 -15.43 2.03 -14.23 1.75 C-12.42 1.33 -10.61 0.89 -8.81 0.41 C-5.89 -0.25 -2.98 -0.06 0 0 Z " fill="#d97706" transform="translate(131,341)"/>
<path d="M0 0 C0.66 0.99 1.32 1.98 2 3 C0.25 3.62 0.25 3.62 -2 4 C-2.62 3.68 -3.24 3.37 -3.88 3.04 C-11.24 -0.59 -24.16 1.31 -31.69 3.62 C-36.13 5.36 -39.75 7.65 -43.38 10.73 C-45 12 -45 12 -48 13 C-48.31 13.62 -48.62 14.24 -48.94 14.88 C-50.2 17.41 -51.67 18.45 -54 20 C-54 16.5 -53.07 15.31 -50.8 12.75 C-37.3 -0.35 -18.24 -5.92 0 0 Z " fill="#d97706" transform="translate(373,137)"/>
<path d="M0 0 C2.04 1.62 4.04 3.29 6 5 C6 5.66 6 6.32 6 7 C6.99 7.33 7.98 7.66 9 8 C10.15 9.12 11.3 10.25 12.42 11.41 C17.49 16.52 22.86 21.22 29 25 C28.67 26.32 28.34 27.64 28 29 C21.84 29 16.72 22.71 12.55 18.56 C0 4.96 0 4.96 0 0 Z " fill="#d97706" transform="translate(418,133)"/>
<path d="M0 0 C10.54 1.56 21.45 5.22 31 10 C30.67 10.99 30.34 11.98 30 13 C23.83 13.5 19.9 11.96 14.44 9.19 C13.34 8.65 13.34 8.65 12.23 8.11 C10.15 7.09 8.07 6.05 6 5 C4.84 4.42 3.67 3.84 2.47 3.24 C1.66 2.83 0.84 2.42 0 2 C0 1.34 0 0.68 0 0 Z " fill="#d97706" transform="translate(294,40)"/>
<path d="M0 0 C5.36 0.33 9.11 3.57 13 7 C14.48 9.96 14.06 12.74 14 16 C8.93 14.98 4.68 12.62 1 9 C-0.02 5.95 -0.18 3.2 0 0 Z " fill="#d97706" transform="translate(64,104)"/>
<path d="M0 0 C-0.45 1.79 -0.91 3.58 -1.38 5.38 C-1.63 6.37 -1.89 7.37 -2.15 8.4 C-3 11 -3 11 -5 13 C-6.52 13.6 -8.07 14.14 -9.62 14.62 C-10.44 14.89 -11.26 15.15 -12.1 15.41 C-12.73 15.61 -13.35 15.8 -14 16 C-15 15 -15 15 -15.12 11.81 C-13.48 6.24 -9.86 4.76 -5 2 C-2 0 -2 0 0 0 Z " fill="#d97706" transform="translate(393,417)"/>
<path d="M0 0 C9.26 3.11 9.26 3.11 12.12 6.56 C13 9 13 9 13 12 C8.71 12.42 6.69 12.52 3.19 9.88 C0.95 6.94 -0.09 4.56 -1 1 C-0.67 0.67 -0.34 0.34 0 0 Z " fill="#d97706" transform="translate(261,3)"/>
<path d="M0 0 C0.33 0.66 0.66 1.32 1 2 C3.95 2.43 3.95 2.43 7.38 2.56 C13.72 2.91 13.72 2.91 17 4 C17 4.66 17 5.32 17 6 C6.77 6 -3.46 6 -14 6 C-14 5.01 -14 4.02 -14 3 C-12.23 2.5 -10.46 2 -8.69 1.5 C-7.7 1.22 -6.72 0.94 -5.7 0.66 C-3 0 -3 0 0 0 Z " fill="#d97706" transform="translate(542,283)"/>
<path d="M0 0 C0.99 0.66 1.98 1.32 3 2 C4.18 2.33 5.35 2.66 6.56 3 C10 4 10 4 12 6 C12.12 9.12 12.12 9.12 12 12 C7.61 11.34 4.02 9.81 0 8 C0 7.34 0 6.68 0 6 C-0.66 5.67 -1.32 5.34 -2 5 C-1.34 3.35 -0.68 1.7 0 0 Z " fill="#d97706" transform="translate(206,339)"/>
<path d="M0 0 C3 1 3 1 4.17 2.71 C4.5 3.4 4.84 4.1 5.19 4.81 C5.53 5.5 5.88 6.19 6.23 6.89 C7 9 7 9 7 13 C-0.62 12.12 -0.62 12.12 -4 11 C-4.37 7.06 -4.3 5.43 -2 2.12 C-1.34 1.42 -0.68 0.72 0 0 Z " fill="#d97706" transform="translate(949,147)"/>
<path d="M0 0 C3.76 2.05 6.42 4.9 8.75 8.5 C8.75 9.49 8.75 10.48 8.75 11.5 C-0.31 9.37 -0.31 9.37 -3.94 6 C-4.37 5.17 -4.8 4.35 -5.25 3.5 C-4.92 2.51 -4.59 1.52 -4.25 0.5 C-2.25 -0.5 -2.25 -0.5 0 0 Z " fill="#d97706" transform="translate(457.25,40.5)"/>
<path d="M0 0 C1.46 0.03 1.46 0.03 2.96 0.05 C3.69 0.08 4.43 0.1 5.19 0.12 C5.52 1.44 5.85 2.76 6.19 4.12 C0.44 6.42 -4.85 7.11 -10.81 5.12 C-10.81 4.13 -10.81 3.14 -10.81 2.12 C-7.04 0.37 -4.15 -0.1 0 0 Z " fill="#d97706" transform="translate(224.8125,263.875)"/>
<path d="M0 0 C1.65 0 3.3 0 5 0 C4.27 2.47 3.53 4.93 2.79 7.4 C2.2 9.35 1.63 11.3 1.06 13.25 C-0.21 16.55 -1.86 19.19 -4 22 C-4.66 22 -5.32 22 -6 22 C-5.57 20.78 -5.13 19.57 -4.69 18.31 C-2.68 12.32 -1.35 6.17 0 0 Z " fill="#d97706" transform="translate(813,365)"/>
<path d="M0 0 C2.56 0.38 2.56 0.38 4.44 1.81 C6.15 5.72 5.29 9.26 4.56 13.38 C3.24 13.38 1.92 13.38 0.56 13.38 C0.56 10.74 0.56 8.09 0.56 5.38 C-0.43 5.71 -1.42 6.03 -2.44 6.38 C-3.1 5.06 -3.76 3.74 -4.44 2.38 C-2.44 0.38 -2.44 0.38 0 0 Z " fill="#d97706" transform="translate(951.4375,159.625)"/>
<path d="M0 0 C5.75 2.75 5.75 2.75 8 5 C7.62 8.62 7.62 8.62 7 12 C3.2 11.46 1.31 10.05 -1 7 C-1.31 3.81 -1.31 3.81 -1 1 C-0.67 0.67 -0.34 0.34 0 0 Z " fill="#d97706" transform="translate(628,196)"/>
<path d="M0 0 C0.99 0 1.98 0 3 0 C3 5.94 3 11.88 3 18 C2.34 18 1.68 18 1 18 C-2.26 12.84 -2.83 7.97 -2 2 C-1.34 1.34 -0.68 0.68 0 0 Z " fill="#d97706" transform="translate(93,150)"/>
<path d="M0 0 C1.88 0.31 1.88 0.31 4 1 C6 4 6 4 5.62 7.19 C5.42 8.12 5.21 9.04 5 10 C3.12 9.75 3.12 9.75 1 9 C-0.87 6.5 -1.05 5.37 -0.62 2.25 C-0.42 1.51 -0.21 0.77 0 0 Z " fill="#d97706" transform="translate(540,79)"/>
<path d="M0 0 C4.17 0.47 6.93 1.05 10 4 C10 4.66 10 5.32 10 6 C8.74 6.02 7.48 6.04 6.19 6.06 C5.48 6.07 4.77 6.09 4.04 6.1 C2 6 2 6 -1 5 C-0.67 3.35 -0.34 1.7 0 0 Z " fill="#d97706" transform="translate(494,178)"/>
<path d="M0 0 C1.73 1.9 1.73 1.9 3.62 4.38 C4.26 5.19 4.89 6 5.54 6.84 C7 9 7 9 7 11 C1.91 9.41 -1.87 6.26 -6 3 C-2.25 0 -2.25 0 0 0 Z " fill="#d97706" transform="translate(301,71)"/>
<path d="M0 0 C2.31 -0.25 2.31 -0.25 5 0 C6.88 1.69 6.88 1.69 8 4 C7.69 6.75 7.69 6.75 7 9 C6.01 9 5.02 9 4 9 C0 3.86 0 3.86 0 0 Z " fill="#d97706" transform="translate(591,406)"/>
<path d="M0 0 C-1.94 2.56 -1.94 2.56 -5 5 C-8.11 5.15 -10.97 4.67 -14 4 C-14 3.01 -14 2.02 -14 1 C-12.04 0.64 -10.08 0.29 -8.12 -0.06 C-7.03 -0.26 -5.94 -0.46 -4.82 -0.66 C-2 -1 -2 -1 0 0 Z " fill="#d97706" transform="translate(123,345)"/>
<path d="M0 0 C2.88 0.19 2.88 0.19 6 1 C7.38 3.56 7.38 3.56 8 6 C5.69 6.62 5.69 6.62 3 7 C2.01 6.34 1.02 5.68 0 5 C-0.19 2.38 -0.19 2.38 0 0 Z " fill="#d97706" transform="translate(67,74)"/>
<path d="M0 0 C7.21 3.36 7.21 3.36 9 6 C8.57 8.1 8.57 8.1 8 10 C5.18 8.52 2.48 7.01 0 5 C-0.5 2.19 -0.5 2.19 0 0 Z " fill="#d97706" transform="translate(67,107)"/>
<path d="M0 0 C2.31 0.33 4.62 0.66 7 1 C6.69 2.94 6.69 2.94 6 5 C2.38 6.21 1.36 5.54 -2 4 C-1.34 2.68 -0.68 1.36 0 0 Z " fill="#d97706" transform="translate(63,318)"/>
<path d="M0 0 C2.62 -0.19 2.62 -0.19 5 0 C4.65 3.26 3.98 4.02 1.44 6.25 C0.63 6.83 -0.17 7.4 -1 8 C-1.62 5.69 -1.62 5.69 -2 3 C-1.34 2.01 -0.68 1.02 0 0 Z " fill="#d97706" transform="translate(388,259)"/>
<path d="M0 0 C0.66 0 1.32 0 2 0 C2 4.62 2 9.24 2 14 C0 13 0 13 -0.62 11.44 C-1.17 7.91 -1.12 4.57 -1 1 C-0.67 0.67 -0.34 0.34 0 0 Z " fill="#d97706" transform="translate(794,274)"/>
<path d="M0 0 C0.66 0 1.32 0 2 0 C1.38 5.54 1.38 5.54 -0.56 7.88 C-1.27 8.43 -1.27 8.43 -2 9 C-2.99 8.67 -3.98 8.34 -5 8 C-1.12 1.12 -1.12 1.12 0 0 Z " fill="#d97706" transform="translate(1019,237)"/>
<path d="M0 0 C1.32 0.66 2.64 1.32 4 2 C4 3.65 4 5.3 4 7 C3.01 7 2.02 7 1 7 C-0.69 4.5 -0.69 4.5 -2 2 C-1.34 1.34 -0.68 0.68 0 0 Z " fill="#d97706" transform="translate(628,133)"/>
<path d="M0 0 C1.5 1.38 1.5 1.38 3 3 C3 3.66 3 4.32 3 5 C0.69 5.66 -1.62 6.32 -4 7 C-3.44 3.73 -2.5 2.17 0 0 Z " fill="#d97706" transform="translate(949,150)"/>
<path d="M0 0 C0.33 0 0.66 0 1 0 C1 1.65 1 3.3 1 5 C0.67 5 0.34 5 0 5 C0 3.35 0 1.7 0 0 Z " fill="#d97706" transform="translate(467,178)"/>
<path d="" fill="#d97706" transform="translate(0,0)"/>
<path d="" fill="#d97706" transform="translate(0,0)"/>
<path d="" fill="#d97706" transform="translate(0,0)"/>
<path d="" fill="#d97706" transform="translate(0,0)"/>
<path d="" fill="#d97706" transform="translate(0,0)"/>
</svg>
