<?xml version="1.0" encoding="UTF-8"?>
<!-- Generator: https://ezgif.com/png-to-svg -->
<svg version="1.1" xmlns="http://www.w3.org/2000/svg" width="2320" height="464">
<path d="M0 0 C3.44 3.18 5.83 6.54 8.31 10.5 C13.73 19 20.65 22.96 30.31 25.38 C37.21 26.86 44.29 26.46 51.31 26.38 C40.29 39.36 22.46 42.99 6.31 44.38 C-4.29 45.1 -18.43 45.05 -27.38 38.5 C-28.51 37.49 -29.62 36.45 -30.69 35.38 C-31.21 34.9 -31.73 34.43 -32.27 33.95 C-33.69 32.62 -33.69 32.62 -35.69 30.38 C-35.69 29.72 -35.69 29.05 -35.69 28.38 C-36.35 28.38 -37.01 28.38 -37.69 28.38 C-37.69 27.72 -37.69 27.05 -37.69 26.38 C-38.26 26.11 -38.84 25.85 -39.43 25.58 C-41.83 24.3 -43.68 22.81 -45.75 21.06 C-56.58 12.55 -70.9 7.87 -84.69 9.38 C-90.35 10.47 -93.92 12.85 -97.43 17.43 C-100.55 22.26 -102.2 26.2 -101.19 32 C-98.57 41.03 -91.54 45.04 -83.69 49.38 C-57.69 62.1 -31.21 58.82 -3.68 53.83 C18.86 50.41 38.71 54.41 58.31 65.38 C58.93 65.72 59.56 66.06 60.2 66.41 C70.16 71.92 79.05 78.57 88 85.58 C92.12 88.78 96.27 91.93 100.44 95.06 C101.27 95.69 102.11 96.32 102.97 96.97 C108.76 101.3 114.65 105.41 120.73 109.32 C123.56 111.14 125.99 112.95 128.31 115.38 C120.16 113.95 112.98 110.9 105.44 107.56 C104.11 106.98 102.78 106.4 101.45 105.82 C92.7 101.98 84.08 97.9 75.5 93.69 C66.72 89.39 57.88 85.36 48.81 81.69 C47.82 81.28 46.82 80.87 45.79 80.44 C28.69 73.67 10.13 74.2 -8.01 74.33 C-10.57 74.35 -13.14 74.36 -15.7 74.37 C-22.97 74.39 -30.24 74.43 -37.52 74.47 C-42 74.5 -46.49 74.51 -50.98 74.53 C-52.67 74.53 -54.36 74.54 -56.05 74.56 C-69.73 74.67 -82.43 73.23 -95.69 69.69 C-96.67 69.43 -97.64 69.17 -98.65 68.91 C-105.44 67.08 -112.1 64.97 -118.75 62.69 C-139.72 55.52 -160.08 51.96 -180.81 61.88 C-193.9 68.61 -201.73 78.37 -209.87 90.34 C-213.37 95.44 -217.32 100 -221.69 104.38 C-222.27 104.97 -222.85 105.56 -223.45 106.17 C-228.71 111.13 -235.47 114.6 -242.81 114.62 C-243.76 114.54 -244.71 114.46 -245.69 114.38 C-244.92 113.82 -244.16 113.26 -243.38 112.69 C-240.65 110.35 -239.13 108.65 -237.69 105.38 C-237.92 101.97 -238.26 100.81 -240.69 98.38 C-249.36 98.38 -254.09 102.79 -260.12 108.56 C-263.86 112.39 -267.14 116.58 -270.49 120.74 C-272.86 123.58 -275.36 126.15 -278.02 128.71 C-279.79 130.48 -281.39 132.34 -283 134.25 C-295.31 148.41 -311.2 158.75 -327.69 167.38 C-328.35 167.72 -329.01 168.07 -329.69 168.43 C-339.99 173.78 -350.65 179.31 -361.66 183.04 C-363.82 183.76 -363.82 183.76 -366.69 185.38 C-367.96 187.97 -367.96 187.97 -368.12 191 C-368.24 192.07 -368.35 193.13 -368.47 194.23 C-368.54 195.27 -368.61 196.31 -368.69 197.38 C-368.78 198.24 -368.87 199.1 -368.97 199.99 C-369.24 203.96 -369.06 205.81 -366.81 209.19 C-351.73 219.74 -331.95 218.41 -314.69 215.38 C-300.04 212.32 -287.27 206.36 -274.19 199.31 C-263.51 193.57 -252.88 188.57 -240.69 187.38 C-242.92 188.87 -245.06 190.15 -247.43 191.41 C-258.05 197.12 -267.8 203.4 -277.4 210.67 C-299.27 227.17 -322.58 232.77 -349.97 230.16 C-367.2 227.73 -383.3 218.62 -393.92 204.77 C-404.69 190.33 -404.69 190.33 -404.69 185.94 C-402.9 181.36 -399.3 179.15 -395.02 177.09 C-391.76 175.71 -388.48 174.41 -385.19 173.12 C-383.99 172.65 -382.79 172.17 -381.55 171.67 C-377.93 170.23 -374.31 168.8 -370.69 167.38 C-333.41 152.68 -300.38 134.88 -275 103.02 C-272.42 99.79 -269.8 96.58 -267.19 93.38 C-262.73 87.9 -262.73 87.9 -258.31 82.4 C-225.96 42.08 -175.71 18.61 -125.59 8.54 C-114.05 6.12 -105.23 1.5 -97.31 -7.25 C-74.65 -27.75 -21.69 -17.84 0 0 Z " fill="#ffffff" transform="translate(404.6875,16.625)"/>
<path d="M0 0 C0 0.33 0 0.66 0 1 C-1.2 0.93 -2.4 0.86 -3.64 0.78 C-55.43 -2.18 -112.99 0.96 -155 35 C-156.07 35.83 -156.07 35.83 -157.17 36.67 C-172.19 48.81 -181.29 67.12 -184 86 C-184.72 97.45 -184.15 108.63 -177 118 C-177 118.66 -177 119.32 -177 120 C-176.22 120.31 -175.43 120.62 -174.62 120.94 C-172 122 -172 122 -170 123 C-161.24 123.99 -155.41 121.81 -148.56 116.5 C-131.67 101.18 -123.31 78.33 -118.3 56.7 C-115.99 47.34 -110.76 38.88 -103 33 C-95.68 28.67 -88.47 25.31 -80 24 C-80.18 24.61 -80.37 25.21 -80.56 25.84 C-87.51 48.82 -91.44 71.94 -95.15 95.61 C-104.45 154.77 -104.45 154.77 -116 179 C-116.31 179.66 -116.61 180.33 -116.93 181.01 C-132.63 214.65 -165.31 238.35 -199.35 251.05 C-225.73 260.49 -256.74 269.58 -285 269 C-282.19 267.13 -280.04 266.23 -276.86 265.19 C-275.3 264.67 -275.3 264.67 -273.71 264.13 C-272.59 263.76 -271.47 263.39 -270.31 263 C-221.03 246.21 -170.34 221.49 -145.84 172.93 C-137.33 155.27 -133 135.41 -131 116 C-131.41 116.68 -131.82 117.36 -132.25 118.05 C-141.57 133.07 -153.24 149.12 -171 154.44 C-181.37 156.35 -191.26 155.37 -200.22 149.56 C-212.66 139.61 -216.84 124.58 -218.68 109.37 C-221.76 76.55 -210.22 42.48 -189.63 17.08 C-170.79 -4.71 -143.76 -15.27 -115.62 -17.82 C-76.91 -20.5 -36.59 -12.47 0 0 Z " fill="#ffffff" transform="translate(2317,172)"/>
<path d="M0 0 C7.39 7.94 9.19 16.85 9.2 27.44 C8.31 41.22 5.03 54.34 1.63 67.69 C0.87 70.73 0.11 73.78 -0.65 76.82 C-1.12 78.7 -1.59 80.57 -2.07 82.45 C-4 90.1 -5.01 96.97 -5.05 104.88 C-5.08 105.8 -5.1 106.73 -5.12 107.69 C-5.15 113.04 -4.86 116.84 -1.8 121.44 C1.89 124.7 4.98 126.18 10 125.88 C22.11 123.46 31.23 113.61 37.8 103.78 C38.95 102.01 40.08 100.23 41.2 98.44 C41.59 97.81 41.99 97.18 42.4 96.53 C52.11 81 59.65 64.59 66.32 47.56 C73.48 29.35 82.22 14.31 95.95 0.31 C96.48 -0.23 97.01 -0.78 97.55 -1.34 C100.83 -4.57 103.92 -6.7 108.2 -8.56 C107.57 -5.05 106.66 -1.82 105.45 1.53 C93.68 34.85 87.05 69.64 79.6 104.12 C79.26 105.7 79.26 105.7 78.91 107.32 C74.25 128.89 74.25 128.89 80.2 149.44 C82.94 153.05 85.99 156.24 89.2 159.44 C77.39 160.13 66.92 159.08 57.63 151.19 C52.22 145.86 48.45 139.81 48.08 132.06 C48.09 131.2 48.09 130.34 48.1 129.45 C48.1 128.52 48.1 127.58 48.11 126.62 C48.12 125.65 48.12 124.68 48.13 123.69 C48.14 122.7 48.14 121.72 48.15 120.71 C48.16 118.28 48.17 115.86 48.2 113.44 C47.65 114.12 47.1 114.79 46.54 115.49 C41.92 121.2 37.2 126.74 32.24 132.15 C30.83 133.73 29.46 135.36 28.15 137.02 C19.77 147.38 5.41 157.76 -7.8 160.44 C-14.45 160.97 -21.01 161.08 -26.8 157.44 C-36.17 149.44 -38.79 138.28 -39.8 126.44 C-40.67 103.22 -33.88 80.23 -27.63 58.11 C-19.75 32.09 -19.75 32.09 -23.87 5.88 C-27.27 -0.09 -31.86 -2.45 -38.12 -4.81 C-51.13 -7.46 -61.09 -5.85 -72.8 0.44 C-73.46 0.44 -74.12 0.44 -74.8 0.44 C-74.8 1.43 -74.8 2.42 -74.8 3.44 C-74.22 3.7 -73.64 3.96 -73.04 4.23 C-62.75 9.8 -56.82 21.61 -53.43 32.31 C-46.08 57.8 -52.85 85.91 -65.05 108.84 C-77.54 131.29 -96.05 150.24 -121.12 157.83 C-130.08 160.26 -138.51 160.97 -147.8 160.44 C-145.13 158.65 -142.47 157.33 -139.56 155.98 C-115.13 144.45 -98.4 123.97 -89.04 98.83 C-81.97 78.89 -79.91 59.42 -89.24 39.81 C-93.07 32.9 -97.13 28.06 -104.8 25.44 C-110.7 24.6 -115.05 26.03 -119.8 29.44 C-122.7 32.26 -125.27 35.29 -127.8 38.44 C-128.63 39.45 -129.45 40.46 -130.3 41.5 C-131.05 42.46 -131.05 42.46 -131.8 43.44 C-131.56 31.09 -124.06 20.5 -115.62 12.06 C-91.88 -10.01 -26.98 -23.36 0 0 Z " fill="#ffffff" transform="translate(1526.8046875,166.5625)"/>
<path d="M0 0 C58.38 1.76 115.78 24.39 161 61 C162.01 61.81 163.02 62.61 164.07 63.45 C172.28 70.15 179.8 77.59 187.31 85.06 C187.82 85.57 188.34 86.08 188.86 86.6 C195.71 93.39 202.05 100.39 208 108 C208.81 109.03 208.81 109.03 209.64 110.09 C232.43 139.33 260.72 181.16 264 219 C260.09 214.52 257.37 209.55 254.5 204.38 C231.31 163.3 201.98 122.67 164 94 C162.98 93.22 161.96 92.44 160.9 91.64 C126.25 65.77 86.27 55.6 43.39 60.65 C27.23 63.04 11.17 67.85 -3.88 74.19 C-9.09 76.36 -14.21 78 -19.69 79.31 C-20.67 79.55 -20.67 79.55 -21.67 79.8 C-31.38 81.98 -41.35 82.09 -51.26 82.29 C-77.11 82.85 -97.29 89.27 -120.82 99.59 C-187.92 129.02 -187.92 129.02 -212.5 120 C-214.01 119.36 -215.52 118.7 -217 118 C-217 117.67 -217 117.34 -217 117 C-215.91 116.97 -214.82 116.95 -213.7 116.92 C-182.08 115.86 -155.41 102.53 -128.15 87.43 C-94.7 69 -94.7 69 -84 69 C-84.59 68.26 -85.18 67.52 -85.79 66.76 C-90.8 60.34 -95.63 53.93 -98 46 C-97.67 45.01 -97.34 44.02 -97 43 C-96.16 43.58 -95.33 44.16 -94.46 44.76 C-74.56 58.24 -52.11 64.26 -28.07 60.27 C-13.88 57.52 1.46 52.65 10.78 40.92 C14.67 34.79 16.08 27.97 14.53 20.85 C12.05 12.21 6.94 6.45 0 1 C0 0.67 0 0.34 0 0 Z " fill="#ffffff" transform="translate(307,144)"/>
<path d="M0 0 C12.47 11.67 17.53 25.57 18.09 42.37 C18.43 63.97 11.61 82.29 -3.49 98.02 C-24.7 118.4 -52.68 122.34 -80.83 121.83 C-82.64 121.78 -84.44 121.74 -86.25 121.69 C-86.53 122.68 -86.53 122.68 -86.83 123.69 C-93.27 145.92 -101.28 167.27 -112.25 187.69 C-112.57 188.28 -112.88 188.88 -113.21 189.49 C-121.81 205.51 -133.88 225.61 -150.25 234.69 C-152.47 235.33 -152.47 235.33 -154.25 235.69 C-153.36 234.72 -152.48 233.75 -151.56 232.75 C-141.91 221.37 -139.18 207.04 -135.89 192.83 C-135.58 191.5 -135.26 190.17 -134.95 188.84 C-134.11 185.28 -133.28 181.72 -132.45 178.16 C-131.76 175.17 -131.06 172.17 -130.36 169.18 C-124.58 144.54 -118.88 119.87 -113.21 95.2 C-111.56 88.03 -109.91 80.86 -108.25 73.69 C-108.01 72.63 -107.76 71.58 -107.51 70.5 C-106.84 67.59 -106.16 64.69 -105.47 61.79 C-105.28 60.96 -105.09 60.13 -104.89 59.27 C-101.03 42.98 -94.05 27.8 -79.56 18.5 C-72.27 14.35 -64.72 11.36 -56.25 11.69 C-57.59 15.14 -59.08 18.48 -60.66 21.83 C-63.15 27.27 -65 32.73 -66.63 38.48 C-67.07 40.01 -67.07 40.01 -67.52 41.57 C-71.27 54.92 -74.17 68.46 -77.12 82 C-77.99 85.95 -78.86 89.89 -79.73 93.84 C-80.27 96.26 -80.8 98.69 -81.33 101.12 C-81.57 102.2 -81.81 103.29 -82.05 104.4 C-82.26 105.35 -82.47 106.31 -82.68 107.29 C-83.25 109.69 -83.25 109.69 -84.25 112.69 C-61.45 107.78 -38.52 101.72 -24.94 81 C-18.62 69.68 -15.32 55.03 -18.4 42.26 C-23.81 25.94 -34.02 16.89 -48.88 9.06 C-78.43 -5.23 -113.42 -4.78 -145.02 1.81 C-148.49 2.51 -150.88 2.69 -154.25 1.69 C-108.8 -20.05 -42.51 -36.25 0 0 Z " fill="#ffffff" transform="translate(909.25,112.3125)"/>
<path d="M0 0 C1.13 1.16 2.26 2.33 3.38 3.5 C1.66 7.49 -1 10.7 -3.69 14.06 C-4.18 14.68 -4.67 15.3 -5.18 15.94 C-9.6 21.51 -14.1 27.01 -18.62 32.5 C-24.34 39.46 -30.01 46.45 -35.62 53.5 C-36.87 49.77 -36.17 48.71 -34.75 45.12 C-31.38 36.58 -29.91 27.07 -32.27 18.02 C-35.21 11.53 -40.33 7.14 -46.94 4.62 C-57.31 1.69 -65.76 4.06 -75.19 8.79 C-81.79 12.49 -87.24 17.21 -92.62 22.5 C-93.3 23.15 -93.98 23.81 -94.68 24.48 C-118.75 49.47 -129.78 92.92 -129.66 126.66 C-129.28 143.3 -126.57 161.39 -114.75 174 C-106.35 181.69 -96.49 184.03 -85.3 183.81 C-60.34 181.72 -40.02 168.6 -21.62 152.5 C-21.3 153.16 -20.96 153.82 -20.62 154.5 C-32.75 178.17 -54.58 196.63 -79.41 205.5 C-96.58 210.92 -117.23 210.5 -133.5 202.31 C-150.49 191.71 -159.03 175.88 -163.86 157.01 C-170.33 127.22 -165.09 94.32 -153.62 66.5 C-153.32 65.76 -153.02 65.03 -152.71 64.27 C-146.05 48.5 -136.8 34.43 -125.62 21.5 C-124.85 20.52 -124.07 19.54 -123.26 18.54 C-112.83 6.03 -96.35 -2.87 -80.62 -6.5 C-108.01 -11.38 -135.07 -5.07 -160.43 5.75 C-161.15 6 -161.88 6.25 -162.62 6.5 C-163.29 6.17 -163.94 5.84 -164.62 5.5 C-117.83 -28.58 -45.15 -44.76 0 0 Z " fill="#ffffff" transform="translate(1347.625,118.5)"/>
<path d="M0 0 C73.35 -1.99 165.02 13.77 225 59 C225.33 59.66 225.66 60.32 226 61 C218.74 65.29 211.48 69.58 204 74 C206.94 76.69 206.94 76.69 209.94 79.44 C211.75 81.11 213.55 82.79 215.35 84.47 C216.7 85.72 218.05 86.96 219.41 88.2 C232.86 100.97 242.69 117.12 252 133 C252.38 133.64 252.76 134.28 253.15 134.94 C278.87 178.82 292.12 232.64 296 283 C296.13 284.68 296.13 284.68 296.26 286.4 C296.95 296.13 297.16 305.82 297.13 315.58 C297.12 318.03 297.13 320.48 297.14 322.93 C297.14 324.51 297.13 326.1 297.13 327.69 C297.13 328.41 297.14 329.12 297.14 329.86 C297.12 334.65 296.67 339.26 296 344 C295.67 344 295.34 344 295 344 C294.9 342.77 294.9 342.77 294.8 341.52 C288.14 259.47 260.89 169.73 197.06 113.38 C196.44 112.86 195.82 112.34 195.18 111.81 C193.45 110.37 191.75 108.88 190.07 107.38 C176.07 94.88 160.53 84.82 144 76 C147.5 72.29 151.01 69.48 155.31 66.69 C156.38 65.99 157.45 65.29 158.55 64.57 C159.36 64.05 160.17 63.54 161 63 C124.08 24.01 50.12 10.5 0 1 C0 0.67 0 0.34 0 0 Z " fill="#ffffff" transform="translate(336,116)"/>
<path d="M0 0 C11.79 0.29 21.35 4.34 29.87 12.52 C34.97 18.45 38.15 25.46 38.1 33.33 C38.09 34.13 38.09 34.93 38.09 35.75 C38.08 36.99 38.08 36.99 38.06 38.25 C38.06 39.09 38.05 39.93 38.05 40.8 C38.04 42.86 38.02 44.93 38 47 C38.62 46.18 39.23 45.36 39.87 44.51 C45.27 37.36 50.84 30.51 57 24 C57.45 23.52 57.89 23.03 58.35 22.53 C69.01 11 82.2 0.33 98.56 -0.56 C105.32 -0.26 110.82 2.1 115.82 6.66 C123.42 15.65 124.71 27.92 124.56 39.25 C124.55 40.47 124.54 41.68 124.53 42.93 C124.05 62.73 118.54 81.57 113.12 100.48 C108.06 118.28 104.18 137.74 113.38 155 C116.83 160.57 120.7 165.06 126 169 C112.82 168.46 99.16 165.51 89.2 156.34 C79.74 146.01 78.27 133.55 78.55 120.1 C79.13 108.84 82.3 97.9 85 87 C91.8 62.78 91.8 62.78 87 39 C84.83 36.44 83.33 35.28 80.03 34.59 C72.05 34.04 66.13 37.42 60.12 42.37 C51.4 50.33 45.11 59.98 39 70 C38.56 70.71 38.13 71.42 37.68 72.15 C30.21 84.47 24.79 97.57 19.3 110.86 C10.45 132.22 0.49 153.24 -18 168 C-19.12 164.64 -18.87 163.59 -18.05 160.23 C-17.81 159.24 -17.58 158.26 -17.34 157.25 C-17.07 156.17 -16.8 155.09 -16.53 153.98 C-16.25 152.84 -15.98 151.7 -15.7 150.53 C-14.94 147.4 -14.18 144.27 -13.41 141.15 C-12.12 135.83 -10.85 130.51 -9.57 125.19 C-9.24 123.8 -8.91 122.42 -8.58 121.03 C-4.81 105.31 -1.21 89.56 2.35 73.8 C2.81 71.75 3.27 69.71 3.74 67.66 C4.61 63.83 5.47 60 6.33 56.17 C6.59 55.04 6.85 53.91 7.11 52.74 C10.32 38.39 13.38 21.78 5.5 8.46 C4.05 6.27 2.54 4.14 1 2 C0.67 1.34 0.34 0.68 0 0 Z " fill="#ffffff" transform="translate(1959,158)"/>
<path d="M0 0 C-1.46 4.53 -4.02 7.68 -7.12 11.19 C-8.13 12.35 -9.13 13.51 -10.13 14.67 C-10.62 15.24 -11.12 15.8 -11.62 16.39 C-13.47 18.55 -15.24 20.77 -17 23 C-20.18 27 -23.41 30.95 -26.69 34.88 C-27.37 35.7 -27.37 35.7 -28.06 36.54 C-30.78 39.78 -33.61 42.47 -37 45 C-36.81 44.36 -36.61 43.72 -36.41 43.06 C-35.87 41.26 -35.33 39.45 -34.8 37.65 C-34.18 35.61 -33.51 33.58 -32.81 31.56 C-31.39 25.32 -30.84 19.45 -33.62 13.56 C-39.52 7.2 -45.51 5.36 -53.88 4.69 C-61.24 4.91 -68.28 7.37 -74 12 C-78.6 16.98 -80.64 21.65 -80.43 28.42 C-77.58 45.64 -59.26 58.88 -46.81 69.62 C-45.54 70.74 -44.27 71.87 -43 73 C-42.28 73.64 -41.57 74.28 -40.83 74.93 C-30.51 84.63 -22.26 96.68 -21.55 111.07 C-21.27 123.12 -24.74 132.41 -32.66 141.63 C-41.37 150.46 -51.79 156.02 -63 161 C-63.92 161.41 -63.92 161.41 -64.86 161.83 C-95.49 175.21 -132.86 178.58 -166 178 C-163.58 175.58 -162.16 175.4 -158.84 174.66 C-157.75 174.41 -156.66 174.16 -155.54 173.89 C-153.76 173.48 -153.76 173.48 -151.94 173.06 C-100.97 161.48 -100.97 161.48 -60.6 131.04 C-57.47 125.42 -56.34 119.76 -57.45 113.41 C-59.98 104.8 -65.81 99.15 -72 93 C-73.11 91.87 -74.22 90.73 -75.33 89.6 C-79.81 85.03 -84.29 80.51 -89.19 76.38 C-101.56 65.75 -111.72 52.69 -113.28 36.03 C-113.65 24.51 -110.48 15.43 -104 6 C-103.28 4.95 -102.56 3.9 -101.81 2.81 C-95.2 -3.8 -86.85 -8.15 -78 -11 C-77.08 -11.3 -76.17 -11.6 -75.22 -11.91 C-50.28 -18.84 -22.27 -12.06 0 0 Z " fill="#ffffff" transform="translate(1873,171)"/>
<path d="M0 0 C81.29 -1.8 163.25 21.76 288 84 C286 85 286 85 283.65 84.28 C282.66 83.88 281.67 83.49 280.66 83.08 C279.53 82.64 278.4 82.19 277.24 81.74 C276.33 81.37 276.33 81.37 275.4 81 C231.28 63.52 182.59 47.54 135 45 C134.24 44.96 133.48 44.92 132.69 44.88 C126.93 44.72 121.6 45.69 116 47 C115.51 53.39 115.51 53.39 118 59 C119.66 59.67 121.33 60.34 123 61 C136.02 68.28 148.18 76.74 159 87 C159.78 87.73 159.78 87.73 160.58 88.48 C175.37 102.34 186.47 118.82 195.69 136.81 C196.04 137.49 196.39 138.16 196.75 138.86 C199.12 143.64 199.12 143.64 198 147 C189.47 137.56 189.47 137.56 185.44 132.88 C178.62 125.09 171.19 118.32 163 112 C162.39 111.53 161.79 111.06 161.17 110.57 C140.81 94.9 118.04 83.18 95 72 C92.73 70.89 90.45 69.79 88.18 68.67 C86.37 67.78 84.55 66.89 82.73 66.01 C81.48 65.35 80.24 64.68 79 64 C78.22 63.59 77.44 63.17 76.64 62.75 C66.51 56.88 58.95 48.21 50.92 39.84 C37.71 26.13 23.61 14.84 7.29 5.02 C4.74 3.45 2.35 1.86 0 0 Z " fill="#ffffff" transform="translate(464,54)"/>
<path d="M0 0 C10.46 -0.47 17.31 0.38 25.46 7.11 C29.87 12.51 30.44 17.8 30.25 24.5 C30.24 25.22 30.24 25.94 30.23 26.68 C30.17 31.2 29.73 35.54 29 40 C29.58 39 30.17 37.99 30.77 36.96 C39.33 22.54 51.76 4.5 69 0 C74.91 -0.69 80.05 -0.91 85.5 1.62 C86.33 2.41 87.15 3.19 88 4 C88.93 4.85 89.86 5.69 90.81 6.56 C94.14 10.89 94.33 15.7 94 21 C91.69 33.41 85.02 44.26 76 53 C73.06 55 73.06 55 71 56 C71.14 55.47 71.29 54.93 71.44 54.38 C73.12 47.63 74.5 40.6 71.75 34 C69.48 31.41 67.44 30.16 63.99 29.78 C55.79 30.4 50.3 34.61 44.68 40.38 C29.63 57.92 21.03 79.58 14.56 101.5 C7.57 125.14 -2.81 145.3 -20 163 C-21.34 164.41 -21.34 164.41 -22.71 165.85 C-25 168 -25 168 -27 168 C-25.24 158.99 -23.36 150.02 -21.35 141.06 C-15.56 115.24 -10.3 89.31 -5.02 63.38 C-4.34 60.02 -3.65 56.65 -2.97 53.29 C-2.49 50.97 -2.02 48.64 -1.55 46.32 C-0.01 38.74 1.61 31.2 3.43 23.68 C4.21 20 4.33 16.7 4.25 12.94 C4.23 11.71 4.22 10.48 4.2 9.21 C4.02 5.51 4.02 5.51 3 2 C2.01 1.67 1.02 1.34 0 1 C0 0.67 0 0.34 0 0 Z " fill="#ffffff" transform="translate(1657,158)"/>
<path d="M0 0 C8.84 -0.4 15.08 -0.02 22.75 4.69 C28.72 10.82 30.18 17.97 30.1 26.25 C29.94 30.52 29.51 34.76 29 39 C29.55 38.12 30.09 37.23 30.65 36.32 C39.97 21.41 50.57 5.85 68 0 C73.84 -0.87 79.67 -1.09 85.06 1.62 C89.51 5.22 92.58 9.29 93.24 15.09 C93.69 29.8 85.55 41.55 76.05 52.07 C74 54 74 54 71 55 C71.16 54.15 71.32 53.29 71.49 52.41 C72 49.02 72.17 45.81 72.19 42.38 C72.2 41.27 72.22 40.16 72.23 39.02 C72.01 36.07 71.6 34.45 70 32 C66.54 29.44 63.17 29.58 59 30 C45.62 34.79 38.11 46.95 31.38 58.75 C31.04 59.33 30.7 59.91 30.36 60.51 C22.66 74.42 17.65 89.38 12.77 104.44 C5.29 127.45 -6.07 153.02 -26 168 C-26.66 167.67 -27.32 167.34 -28 167 C-27.65 165.5 -27.65 165.5 -27.29 163.98 C-21.1 137.61 -15.51 111.15 -10.19 84.6 C-9.51 81.19 -8.83 77.79 -8.14 74.39 C-7.94 73.39 -7.94 73.39 -7.74 72.38 C-5.97 63.61 -4.13 54.87 -2.17 46.14 C-1.85 44.7 -1.85 44.7 -1.52 43.23 C-0.54 38.88 0.45 34.54 1.46 30.2 C3.75 20.26 5.76 10.82 2 1 C1.34 0.67 0.68 0.34 0 0 Z " fill="#ffffff" transform="translate(942,158)"/>
<path d="M0 0 C0.78 0 1.56 0.01 2.36 0.01 C4.26 0.03 6.16 0.04 8.06 0.06 C3.55 2.52 -1.35 4.07 -6.18 5.76 C-9.81 7.08 -12.35 8.21 -14.94 11.06 C-14.3 11.58 -13.66 12.11 -13 12.64 C-6.55 18.13 -2 23.64 2.06 31.06 C2.66 32.14 2.66 32.14 3.27 33.23 C13.23 53.15 9.55 77.35 2.94 97.69 C-5.84 123.39 -22.36 147.77 -47.03 160.33 C-60.79 166.99 -73.66 169.85 -88.94 169.06 C-86.22 167.25 -83.49 165.85 -80.54 164.45 C-72.72 160.69 -65.73 156.51 -58.94 151.06 C-58.3 150.57 -57.65 150.08 -56.99 149.58 C-38.05 134.46 -27.09 107.56 -23.3 84.15 C-21.82 69.17 -25.08 54.77 -33.38 42.12 C-37.49 37.21 -41.7 34.38 -48.12 33.75 C-55.37 34.34 -60.4 37.85 -65.33 43.05 C-68.04 46.44 -70.03 50.18 -71.94 54.06 C-73.94 48.49 -71.13 43.24 -68.94 38.06 C-59.6 20.99 -45.38 9.47 -26.82 3.71 C-17.88 1.16 -9.27 -0.1 0 0 Z " fill="#ffffff" transform="translate(1155.9375,157.9375)"/>
<path d="M0 0 C-2.82 1.88 -5.29 2.96 -8.44 4.19 C-24.57 10.88 -36.86 20.77 -47 35 C-47.51 35.7 -48.02 36.39 -48.54 37.11 C-62.13 57.61 -68.67 85.88 -63.88 110.06 C-61.25 119.68 -56.7 128.32 -48.19 133.81 C-42.69 135.86 -38.22 135.81 -32.94 133.44 C-25.22 129.11 -20.84 122.81 -17 115 C-14.94 121.19 -18.8 128.38 -21.41 134.07 C-30.29 150.42 -44.99 163.6 -63 169 C-69.71 170.82 -76.07 171.27 -83 171 C-80.32 169.21 -77.7 167.8 -74.81 166.38 C-73.91 165.93 -73.01 165.48 -72.08 165.02 C-71.39 164.69 -70.71 164.35 -70 164 C-71.13 160.6 -71.78 160.21 -74.62 158.25 C-87.55 148.8 -94.1 136.45 -97.46 120.86 C-97.77 118.9 -97.91 116.99 -98 115 C-98.05 114.11 -98.1 113.21 -98.16 112.29 C-99.13 80.1 -85.62 48.65 -63.82 25.43 C-47.18 8.24 -23.75 -0.49 0 0 Z " fill="#ffffff" transform="translate(1435,156)"/>
<path d="M0 0 C-3.01 2.01 -5.6 2.99 -9 4.19 C-20.03 8.39 -28.62 14.76 -37 23 C-37.69 23.68 -38.38 24.35 -39.09 25.05 C-55.45 42.25 -66.54 70.46 -66.22 94.22 C-65.2 107.17 -62.51 121.49 -53 131 C-48.72 134.15 -44.33 135.71 -39 135.37 C-30.69 133.83 -26.1 128.34 -21 122 C-20.17 120.99 -19.35 119.98 -18.5 118.94 C-18.01 118.3 -17.51 117.66 -17 117 C-18.17 133.1 -28.64 146.08 -40.27 156.54 C-50.91 165.54 -64.34 171.25 -78.38 171.06 C-79.25 171.05 -80.12 171.04 -81.02 171.04 C-82 171.02 -82 171.02 -83 171 C-80.32 169.21 -77.7 167.8 -74.81 166.38 C-73.91 165.93 -73.01 165.48 -72.08 165.02 C-71.39 164.69 -70.71 164.35 -70 164 C-71.14 160.58 -71.88 160.12 -74.75 158.12 C-87.43 148.92 -94.92 136.1 -97.56 120.73 C-101.14 90.18 -91.03 58.7 -72.14 34.64 C-71.08 33.33 -71.08 33.33 -70 32 C-69.43 31.27 -68.85 30.55 -68.26 29.8 C-54.17 12.72 -33.57 2.99 -11.86 0.23 C-7.88 -0.09 -3.99 -0.14 0 0 Z " fill="#ffffff" transform="translate(1124,156)"/>
<path d="M0 0 C1.41 2.83 0.59 4.27 -0.22 7.31 C-0.52 8.43 -0.82 9.55 -1.12 10.71 C-1.45 11.94 -1.79 13.17 -2.13 14.45 C-2.47 15.75 -2.82 17.05 -3.16 18.35 C-3.9 21.15 -4.65 23.94 -5.39 26.74 C-7.16 33.37 -8.91 40.01 -10.66 46.64 C-11.06 48.15 -11.46 49.67 -11.85 51.18 C-16.02 66.99 -20.04 82.83 -24 98.69 C-24.3 99.89 -24.6 101.09 -24.91 102.32 C-25.76 105.7 -26.6 109.07 -27.44 112.45 C-27.68 113.44 -27.93 114.42 -28.19 115.44 C-29.99 122.71 -31.18 129.55 -31.19 137.06 C-31.21 138.1 -31.21 138.1 -31.22 139.17 C-31.24 143.2 -30.99 146.45 -29 150 C-24.54 152.23 -21.78 152.2 -17 150.88 C-12.65 149.39 -8.89 147.45 -5 145 C-8.33 154.75 -17.27 162.03 -26 167 C-32.59 170.16 -39.85 171.38 -47.01 169.46 C-54.44 166.53 -57.63 162.41 -60.98 155.44 C-65.83 143.82 -63.45 129.44 -60.65 117.6 C-60.39 116.47 -60.13 115.34 -59.86 114.17 C-59.1 110.87 -58.32 107.57 -57.54 104.27 C-56.97 101.86 -56.4 99.44 -55.84 97.03 C-53.4 86.64 -50.92 76.27 -48.37 65.91 C-47.14 60.92 -45.93 55.92 -44.75 50.91 C-43.59 45.99 -42.39 41.08 -41.17 36.17 C-40.71 34.32 -40.27 32.46 -39.84 30.6 C-39.25 28.03 -38.6 25.46 -37.95 22.9 C-37.78 22.14 -37.62 21.38 -37.45 20.59 C-36.88 18.48 -36.88 18.48 -35 15 C-32.1 13.44 -29.19 12.73 -26 12 C-24.65 11.55 -23.31 11.09 -21.97 10.61 C-21.33 10.37 -20.69 10.14 -20.03 9.91 C-12.85 7.28 -6.36 4.31 0 0 Z " fill="#ffffff" transform="translate(1937,157)"/>
<path d="M0 0 C0.33 0 0.66 0 1 0 C0.69 14.23 -5.57 27.35 -15.25 37.75 C-22.64 44.6 -36.35 54 -47 54 C-44.9 44.28 -42.7 34.59 -40.31 24.94 C-39.99 23.63 -39.99 23.63 -39.66 22.29 C-38.12 16.12 -38.12 16.12 -37 15 C-34.71 14.7 -32.42 14.43 -30.12 14.19 C-19.78 12.9 -11.79 10.29 -3.78 3.39 C-2 2 -2 2 0 2 C0 1.34 0 0.68 0 0 Z " fill="#ffffff" transform="translate(1951,91)"/>
<path d="M0 0 C0.33 0.66 0.66 1.32 1 2 C-5.43 2.5 -5.43 2.5 -12 3 C-7.98 0.32 -4.74 -1.58 0 0 Z " fill="#ffffff" transform="translate(2044,438)"/>
<path d="M0 0 C-0.66 0 -1.32 0 -2 0 C-2 0.66 -2 1.32 -2 2 C-5.3 2 -8.6 2 -12 2 C-12 1.34 -12 0.68 -12 0 C-3.43 -1.29 -3.43 -1.29 0 0 Z " fill="#ffffff" transform="translate(1482,158)"/>
<path d="" fill="#ffffff" transform="translate(0,0)"/>
<path d="" fill="#ffffff" transform="translate(0,0)"/>
<path d="" fill="#ffffff" transform="translate(0,0)"/>
<path d="M0 0 C2 1 2 1 2 1 Z " fill="#ffffff" transform="translate(533,132)"/>
<path d="M0 0 C2 1 2 1 2 1 Z " fill="#ffffff" transform="translate(1181,125)"/>
<path d="" fill="#ffffff" transform="translate(0,0)"/>
<path d="" fill="#ffffff" transform="translate(0,0)"/>
<path d="" fill="#ffffff" transform="translate(0,0)"/>
<path d="" fill="#ffffff" transform="translate(0,0)"/>
<path d="" fill="#ffffff" transform="translate(0,0)"/>
<path d="" fill="#ffffff" transform="translate(0,0)"/>
<path d="" fill="#ffffff" transform="translate(0,0)"/>
<path d="" fill="#ffffff" transform="translate(0,0)"/>
<path d="" fill="#ffffff" transform="translate(0,0)"/>
<path d="" fill="#ffffff" transform="translate(0,0)"/>
</svg>
