<?xml version="1.0" encoding="UTF-8"?>
<svg id="Layer_1" data-name="Layer 1" xmlns="http://www.w3.org/2000/svg" version="1.1" viewBox="0 0 256 256">
  <defs>
    <style>
      .cls-1 {
        fill: #cc6118;
      }

      .cls-1, .cls-2 {
        stroke-width: 0px;
      }

      .cls-2 {
        fill: #fff;
      }
    </style>
  </defs>
  <circle class="cls-2" cx="128" cy="128" r="112.7"/>
  <path class="cls-1" d="M158.3,57.8c-1.5,0-2.4.9-2.6,2.7v.2h.1l2.1-.6c1.2-.4,2.4-.7,3.6-1,0,0,.1,0,.1-.2s0-.2-.1-.2c-1.3-.7-2.5-1-3.3-1h0Z"/>
  <path class="cls-1" d="M128,3.3C59.1,3.3,3.3,59.1,3.3,128s55.9,124.7,124.7,124.7,124.7-55.8,124.7-124.7S196.9,3.3,128,3.3ZM78.7,164.4c-.8-1.6-1.9-2.9-3.5-3.7,2.3,3.7,1.1,6.4-1.3,7.3-.7-1.4-1.8-2.4-3.2-2.9.5,2.2.6,3.1.2,4.2-.2,0-3,1.3-4,1.3s-.3,0-.4-.1c-.3-.5.8-2,1.2-2.5,1.5-1.9,3.3-3.7,5.1-5.4,4.5-4.3,11.1-9.3,15.8-12.9.4-.3-4.2,8.4-5.8,10.4-.4-1.3-1.3-2.5-2.6-2.9.9,2.9,1.3,4.6-1.4,7.4v-.2ZM104.4,149.1c-.6.6-1.1,1.1-1.8,1.6,0,0-.2.2-.4.3,0,0-.2.1-.3.2-3.6,3-9.7,7.1-12.6,11.1-3.1,4.2-3,8.3-2.2,13.4,0,.5.5,1.7.6,2.1,0,.6,1.9,5.6,3,7.9.2.4.6.7.9.9.3.1.6.2.9.2,1.3,0,2.1-.4,2.4-.4h.3c1,0,1.3.9,1.8,1.6.2.2.4.6.6.9.3.7.6,1.6-2.1,1.7h-6.1c-1.3-.2-2.1-.9-2.4-1.8q-.2-.6,0,0c-1.6-4.2-5.4-18.8-6.3-21h0c2-2.2,3.9-5.4,5.5-8.3.6-1.2,1.3-2.4,2-3.6,1.2-2.2,2.5-4.7,3.8-7,.5-.8,1-1.6,1.5-2.4.6-.9,1.2-1.8,1.9-2.7.8-.6,1.6-1.3,2.4-2,0,0,.2-.2.3-.3h0c2.5-2.3,4.2-3.9,5.6-5.5.2-.2.4-.4.5-.6,2.2-2.6,3.6-5,4.4-7.8,1.5-4.3,1.6-8.3,1.3-11.2v-.9c1.9,1.1,4,1.6,6.1,2.2.6,0,1.8.5,1.8.5,0,0-4.4,21.7-13.8,31h.2ZM193.4,190c-.4.4-1.3.6-3,.6h-1.2v-.2s.1-.2.1-.3h0c.1-1.1-.2-2.1-.7-2.9,0-.1-.2-.3-.2-.4v-.2c.1,0,.4,0,.6-.1.4,0,.7-.1,1-.2h.3c.2,0,.4,0,.6.1,1.5.7,2.8,2.5,2.7,3.2,0,.1,0,.3-.2.4h0ZM198.8,114.3c0,.3-.1.5-.2.7,0,.2-.1.4-.1.6h0c0,.3-.2.6-.3,1,0,.2-.1.4-.2.5-.1.4-.3.8-.4,1.2-2.4,6.4-6.2,13.2-7.8,15.4-7.8,10.4-8.6,36.9-5.3,49.9v.2l-3.3.6c-3.8-4.8-5.6-35.8,1-49.2-3.7,3.7-5.6,8.8-6.6,14-.1.8-.6,14.7-.3,19.4,0,3.5,2,15.6,3.8,18.1.1.2.4.3.7.3,1.2,0,2.5-.3,3.5-.5,1.7-.2,3.7,2.6,3.6,3.3-.3,1-1.3.9-3.2,1h-5.8c-1.8,0-2.6-.3-2.9-.9-2.5-5.3-3.7-14.5-6-19.4-.6-.7-1.3-1.2-2.3-1.2s-.6,0-.6-.1c0-.5,0,0,.6-1.4s1.2-2.8,1.8-4.1h-3.4c-1-.2.3-1.1,1.8-4,.2-.4.3-.7.4-.9,0-.1.1-.3.2-.5-1.3.3-2.6.8-3.8,1.5v-.2c0-.5.4-1.6.9-2.8.5-1.3,1-2.7,1.6-4-.2,0-.5,0-.7.1-1,.2-1.8.3-2.6,0-1.3-.5-.2-2.2.7-3.5.6-.8,1-1.5.6-1.5s-2,.9-2.8,1.4v-.5c-.1-.6-.2-1.3-.2-2-.1-9.3.7-15.6,4-25.9-4.1,4.2-6,10.4-6.6,16.1-.4,4.8.7,10.9.5,10.8-4.7-.2-3.6-9.6-8.5-14.3-.1,2.7,2.1,11.5,3.5,14.5-5.9-1.4-7.3-12.2-12.3-17,0,3.1,3.2,10.9,5.3,14.1-.5,0-2.9-1-4.2-2.8-3.5-4.5-4.5-10-8.7-14.3,0,3,5,12.3,5,12.3-.9-.5-3.7-2.9-4.9-4.9-2.7-4.4-4.1-8.2-5.3-11.6-1.3-3.9-4-5.7-6.7-6.8-.3,0-.6-.3-1-.4s-.8-.3-1.2-.4c-3.3-1-6.7-1.7-9.7-3.5-1.4-.8-3.3-2.4-3.3-2.4.7,5.7,1.9,9.4-.4,16.7h0c0,.2,0,.4-.2.5-.8,2.2-2.2,4.6-4,6.6-.3.4-.7.8-1.1,1.1h0c-1.4,1.4-3.2,3-5,4.6q-1.2,1.1,0,0c-1,.8-2.1,1.8-3.2,2.6-7.2,5.9-15.4,11.4-22.5,18.2-2.8,2.7-5.4,5.5-7.5,8.7-1.4,2.3-3.2,5.8-4.3,9s-.9,5.1-1,5.8c-.2,4,2.7,2.6,4.4,2.4,1,0,1.3.9,1.8,1.6,1.1,1.4,2.2,2.6-2.7,2.6h-4.3c-1.9,0-2.9-.9-3.3-1.9-1.3-3.7,1.8-12.8,2.4-16.5.6-2.4.9-4.4,2.1-6.2h0c.4-.5,1.1-.8,1.8-1.1,4.2-1.6,10.2-8.1,13.6-16.7,0,0,0-.2,0-.3,3.8-9.8,3.1-19.6,5.8-29.7.3-1.3.5-2.2.8-3.3,0-.2-.3-.4-.4,0-1,1.8-1.6,2.9-2.1,4.5-3.5,10.3-3.7,14.5-6.2,23.9-1.5,6.3-5.5,13-9.2,16.9-1,.9-1.9,1.6-3.1,2-1,.5-2.1.9-2.9,1.7-.9.8-1.4,2-1.8,3.1,0,.1,0,.3-.2.4-.5,1.3-.7,2.5-1.1,3.7-.7.6-1.5.3-2.3-.2-.6-1.3,1-5.9,1.3-7.7,0-.1,0-.2-.2-.2-2,2.2-3.2,7.7-6.8,6.2,0-2.2.4-4.3,1.3-6.3v-.2h-.2c-1.7,1.4-3,3.1-4,5-2.8-1.3-2.2-3.3-.4-6.1,0-.1,0-.3-.2-.3-1.6.4-3,1.2-4,2.6-1.7-2.2-2.8-6.7-2.9-8.7,3.5,2.3,6.8,3.3,9.9,3.2,13.5-.2,23-19.4,27-31.6,10.2-31.3,35.7-47.4,60.3-47.4s19.7,2.4,26.5,8.4c.6.5.9,1,1.1,1.3,0,0,.1,0,.2,0h0v-.2c-2.3-3.8.9-12.1,5.5-16.2.6-.6.9-1.3.8-2.1-.1-.9-.7-1.7-1.3-2.3-1.3-1.2-2.6-1.3-3.7-1.1-.6,0-1.2.4-1.7.6-3.4,1.5-10,4.6-13.1,4.6s-1.7-.3-1.7-1.2c-.9.4-2.6.9-4,.9s-2-.3-2.4-1.1c3.1-5,11.7-10.4,16.2-13.4,0-3.1,8-4.2,13.4-4.2s3.1,0,4,.3h-.6c-1.5.5-2.9,1.2-4.1,2.3v.2s.1,0,.2,0h.3c1.5-.2,3.8-.5,6.1-.5,4.1,0,6.7.8,7.7,2.5.8,1.3.6,3.3-.6,5.8-1.4-.4-2.7-1.4-3.6-2.6v-.2h-.1q0,0-.1,0h0v.2q0,.1,0,0h0c.4,1.1,1,2.6,1.7,3.9h0c1,1.6,1.9,2.5,2.7,2.5s.7-.2,1-.5c1-1.1,1.6-2.9,1.7-4.7h.1c.3.4.6.7.9,1,3.9,4.5,7,11.1,9.1,17.7,2.7,8.6,3.8,17.2,2.9,21.1,0,0,.1.2.2.3,2.4,1.6,2.7,5.5,1.1,11.3l.2.2ZM182.2,61.6s0,0-.1.2v-.2h.1Z"/>
</svg>